<?xml version="1.0" encoding="UTF-8"?>
<svg xmlns="http://www.w3.org/2000/svg" version="1.1" viewBox="0 0 612 369.2">
  <defs>
    <style>
      .cls-1 {
        fill: #fff;
        fill-rule: evenodd;
      }
    </style>
  </defs>
  <!-- Generator: Adobe Illustrator 28.6.0, SVG Export Plug-In . SVG Version: 1.2.0 Build 709)  -->
  <g>
    <g id="Layer_1">
      <g>
        <path class="cls-1" d="M366.5,170.2l.2.2-.2-.2h0ZM308,149.9c0-2.1,3.6-9.5,5-10.5.9,3.6,4.1,6.7,4.1,10s-3.6,6-3.6,11.7h1c0-3.1.7-4.8,2.1-6.5,2.1-2.6,3.4-3.1,7.1-3.1,5.9,0,5.2,8.3,1,11.2-.2-5.3-5.7-6.9-8.6-2.6.3,1.5,0,1,1.6,1.5-.5,1.4.9,1-1.6.5,0,1.2.2,2.6.9,2.9,1.9,1.2-1.2-.7,2.6-.9,2.9,4.8-4.3,5.9-5-2.1h-1c0,2.4.5,2.9.5,4.5,0,2.4-.9,1.5-1,4.1-2.8-2.1-1.6-4.7-1.6-8.6h-.9c-.7,7.2-8.3,7.4-4.7,2.1,1.6.3,2.2,3.6,3.6-2.1-2.1.2-1.6,1.2-2.1-.5l2.1-.5c-3.3-5.9-8.8-3.6-9.1,1.6-3.8-2.6-4-7.8-1.9-10,2.2-2.4,12.1-2.2,12.1,8.4h.9c0-5.5-3.4-9.1-3.4-11.2h0ZM297.8,47.4c0,15.2,11.7,13.8,11.7,15.7,0,5-8.8,45.1-10.2,54.1-.5,2.6-1.4,5.5-1.5,8.1,0-.2-.2-.5-.2-.3l-.5-1c-.2-.3-.5-1-.5-1.4-.5-1.2-.7-1.9-1.2-3.1l-13.4-36c-.9-2.2-1.4-4.3-2.4-6.2,9.5-.9,14.8-14.8,6.7-22.9-7.4-7.6-22.9-2.8-22.9,8.3s1,8.6,4.5,11.7c2.4,2.1,5.9,3.4,10.3,3.4,0,2.9,0,5.5-.3,8.3l-.7,17.4c0,3.1-.5,5-.5,8.6l-1.2,25.7c-.5,2.8-.3,5.7-.3,8.8-2.2-2.8-24.1-46.3-28.2-54.1,15-1.2,14.8-26.9-2.6-26.9s-10.2,3.6-12.2,8.1c-2.4,5.2-1.2,11.4,2.9,15.3,1.2,1,2.9,2.2,4.3,2.8,5,2.2,6.2-.7,6.5,4.1l1.2,9.5c.7,4.7.9,8.4,1.6,13.1l6.4,51.3c-5.9-6.7-40-61-43.1-63.2.3,3.8,13.1,46.5,14.6,52l3.8,12.9c.5,1.7.7,3.8,2.2,3.8h156.4c1.9,0,1.9-2.9,2.4-4.7l19.5-61.3c1.7-5.9,3.3-1.5,8.6-6.2,9-7.9,4.3-23.9-8.8-23.9s-17.6,14.3-10.3,22.4c1.7,2.1,5,4.5,8.3,4.5-1,4.1-30.3,46.3-36,56-1.2,1.9-4.1,6.7-5.5,7.8,0-7.2,6.7-56.3,8.1-66.8.3-3.1,1-7.4,1-10,7.2,0,15.2-4.1,15.2-12.2s-.7-8.1-3.8-11.2c-5.2-5.2-13.4-4.6-18.4-.5-8.4,6.9-4.3,22.6,6,23.4l-28.8,55.6c0-9.5-1-17.6-1-26.4s-1-12.1-1-17.7-.5-5.5-.5-8.6-.2-16-1-17.6c18.9,0,18.3-27.4.5-27.4s-10.2,3.4-12.2,8.1c-3.6,8.1,1.7,18.6,10.3,18.8-.2,1.6-2.9,9-3.8,10.9-1.4,3.8-2.6,7.6-4,11.2-1.9,5.5-5.2,16.9-7.6,21.7l-.3.7c-4.7-19.6-8.6-39.4-13.3-59.1,3.4-.9,6-2.1,8.3-4,8.4-7.8,2.6-23.4-9.3-23.4s-13.6,5.7-13.6,12.2h0Z"/>
        <path class="cls-1" d="M499.6,240c0,20.2-.9,46,1,65.6.5,5.7,3.3,11.5,5.9,15.5,5,7.8,16.7,15.3,26.9,15.3s12.2.3,18.4-4c5.5-3.8,6.5-7.2,8.4-8.6,0,.7,2.1,9.6,4.1,9.6h23.3v-76.3c0-1.2-.3-1.6-1.6-1.6h-41.5c-1.2,0-1.5.3-1.5,1.6v20.7h7.6c0,10,.2,16.4-.5,26.2-.5,7.8-3.8,7.8-7.6,7.8-5.7,0-5-12.2-5-17.7v-64.8c0-4.5.3-7.1.5-11,.2-6.9,2.4-7.2,6.5-7.2s4.5,5.3,4.5,9.6v21.7h38.6c0-25.8-1-41.2-21.5-51.3-10-5-16.7-4.6-27.6-4.6s-25.1,6.9-31.3,14.6c-7.9,10-7.6,25-7.6,38.9h0Z"/>
        <path class="cls-1" d="M378.7,271.8c0-1.9,10-30.8,11.9-36.7.7-2.1,3.3-11,4.3-12.4v102.6c-.2-.2-.2-.3-.2-.3l-.2-.3c-.2,0-.3-.5-.3-.7l-15.5-52.2ZM325.2,221.7v111.8h29.8v-45l11.5,45,56.7.5c1.2,0,1.5-.3,1.5-1.5v-110.7c0-1.2-.3-1.6-1.5-1.6h-54.1c-1.9,0-3.1,6.4-4.1,9.6l-10,31.9v-37.4c0-2.2.5-4.1-1.6-4.1h-26.9c-1,0-1.4.3-1.4,1.6h0Z"/>
        <path class="cls-1" d="M20.7,237.9v44.4c0,15.3,1.2,30.5,7.6,39.4,5.9,8.1,18.6,14.6,32.4,14.6s27.2-1,40.3-14.1c9.6-9.6,8.8-31.2,8.8-47h-37.9c0,7.9.3,24.6-.7,31.7-1,5.3-3.3,4.8-7.4,4.8s-4.3-3.1-4.5-5.7c-1-9.1-1.2-82.5,0-89.7,1.4-7.8,9.5-5.3,10.7-4,1.6,1.7,1.9,7.6,1.9,9.8v29.8h37.9c0-25.8,3.3-51-22-61.8-21.9-9.1-61.1-4-65.8,26.2-1,6.4-1.2,14.5-1.2,21.5h0Z"/>
        <path class="cls-1" d="M428.9,221.7v111.8h25.1v-48.1l13.1,42.7c2.2,7.2-2.6,5.3,27.4,5.3v-113.3c-26.7,0-24.8-1.7-24.8,4.7v44.4c0-.2,0-.3-.2-.3l-13.9-43.1c-2.2-7.6.5-5.7-25.3-5.7s-1.4.3-1.4,1.6h0Z"/>
        <path class="cls-1" d="M146.1,316.3c-5.3,0-4.7-.2-5-7.6-1-21-.7-43.7,0-64.8.2-6.5,2.1-6,5.5-6s2.6,4.5,2.6,7.1.5,5.9.5,9.6v46.5c0,2.8-.5,2.9-.5,5.5-.2,3.6.5,9.6-3.1,9.6h0ZM110.8,273.7v17.2c0,3.6.5,6,.5,10.2,0,7.6.5,13.6,2.9,18.8,4.3,9.1,16,16,26.9,16h7.6c12.6,0,23.9-7.8,27.6-16.9,2.4-6.2,2.8-11,2.8-19.5s.5-14.1.5-22.2-.5-14.3-.5-21.7-.2-14-2.4-19.8c-4.5-10.7-16-17.6-27.4-17.6s-16.9-.2-24.3,4.7c-11.2,7.2-13.6,15.8-13.6,29.6s-.5,13.6-.5,21.2h0Z"/>
        <path class="cls-1" d="M288.7,316.3c-5.3,0-4.7-.2-5-7.6-1-21-.7-43.7,0-64.8.2-6.5,2.1-6,5.5-6s2.6,4.5,2.6,7.1.5,5.9.5,9.6v46.5c0,2.8-.5,2.9-.5,5.5-.2,3.6.5,9.6-3.1,9.6h0ZM253.4,273.7v17.2c0,3.6.5,6,.5,10.2,0,13.4,2.2,22.6,13.1,29.8,7.8,5.2,15.2,5,24.3,5s23.9-7.8,27.6-16.9c2.4-6.2,2.8-11,2.8-19.5s.5-14.1.5-22.2-.5-14.3-.5-21.7c0-13.4-.9-24.3-12.6-32-13.3-8.8-42.5-8.6-52,10.3-2.4,5-3.1,11.4-3.1,18.6s-.5,13.6-.5,21.2h0Z"/>
        <path class="cls-1" d="M181.6,266.2c0,15-1.4,46.2,4.8,56.5,5,8.4,16.2,13.3,26.5,13.3s16.7.3,26.2-6c5.2-3.4,9-8.3,10.5-14.3,2.2-8.8,1.7-18.6,1.7-27.6h-29.8v20.7c0,7.8-1.9,7.6-6.5,7.6s-3.6-12.4-3.6-16.2v-45c0-4,.5-6.9.5-10.2,0-7.4,1.7-7.1,6.5-7.1s3.1,3.4,3.1,6v25.8h29.8c0-11.7,1.6-31.2-5.7-39.8-2.2-2.8-3.1-3.8-6.2-5.9-8.6-6-17.1-5.9-26.5-5.9-16.5,0-30,11.5-30.8,28.2-.3,6.7-.5,12.7-.5,19.6h0Z"/>
        <path class="cls-1" d="M322.6,189.3c0-9.5,13.1-9.5,13.1,0s-7.2,8.1-11,4.5c-.9-.9-2.1-2.8-2.1-4.5h0ZM287.1,188.8c0-8.6,13.3-8.8,13.3.5s-13.3,8.8-13.3-.5h0ZM269.6,189.3c0-9.5,13.1-9.5,13.1,0s-13.1,8.1-13.1,0h0ZM358.1,188.8c0-7.8,13.1-9.8,13.1,1s-13.1,7.9-13.1-1h0ZM347.4,195.4c-10.2,0-8.8-13.1-.5-13.1s8.4,13.1.5,13.1h0ZM311.9,195.4c-10.2,0-8.8-13.1-.5-13.1s8.8,13.1.5,13.1h0ZM258.9,195.4c-10,0-8.8-13.1-.5-13.1s8.6,13.1.5,13.1h0ZM234.6,184.9c2.6-.7,1.9-2.6,6-2.6,8.1,0,8.1,13.1.5,13.1h-2.9c0,2.4.5,2.8,1,4.7h142.9c.3-2.2.9-2.4,1-4.7-13.1,0-7.6-18.8,4.1-11,.7-1.4,1.4-3.6,1.5-5.5h-155.9c.2,2.6,1,3.8,1.5,6h0Z"/>
        <path class="cls-1" d="M241.7,210.7h138.1c.5-2.4,1.9-5.5,2.1-7.6h-142.3c.2,1.4,1.6,6.4,2.1,7.6h0Z"/>
        <path class="cls-1" d="M196.2,92.4c0,3.6.7,6.2,3.1,9,9,10.7,23.8,2.2,23.8-7.1v-2.9c0-10-14.5-16.9-22.9-8.3-2.2,2.1-4,5.2-4,9.3h0Z"/>
      </g>
    </g>
  </g>
</svg>