<?xml version="1.0" encoding="UTF-8"?>
<svg xmlns="http://www.w3.org/2000/svg" version="1.1" viewBox="0 0 532.1 252.5">
  <defs>
    <style>
      .cls-1 {
        fill: #fff;
      }

      .cls-2 {
        fill: none;
      }
    </style>
  </defs>
  <!-- Generator: Adobe Illustrator 28.6.0, SVG Export Plug-In . SVG Version: 1.2.0 Build 709)  -->
  <g>
    <g id="Layer_1">
      <g>
        <path class="cls-1" d="M67.8,127.9v19.7h63.5c-5.3,11.1-12,19.5-20.1,25.1-8.1,5.7-17.5,8.5-28.2,8.5s-13-1.4-19.2-4.1c-6.3-2.8-11.8-6.6-16.7-11.6-4.5-4.7-8-10.4-10.5-16.9-2.4-6.5-3.7-13.4-3.7-20.7s1.3-13.5,4-20c2.7-6.5,6.5-12.3,11.3-17.2,4.6-4.8,9.9-8.4,15.9-10.9,6-2.5,12.3-3.8,18.9-3.8s15,1.5,21.5,4.5c6.4,3,11.9,7.5,16.6,13.5h24.9c-5.5-12.2-13.5-21.7-24.2-28.3-10.7-6.6-23.1-10-37.2-10s-19.6,1.7-28,5.1c-8.4,3.4-16,8.4-22.8,15.2-7.2,7-12.6,15-16.3,23.8-3.7,8.8-5.6,18.1-5.6,27.9s1.5,18.7,4.6,27.1,7.6,16,13.5,22.5c7.1,8,15,14,23.9,18,8.9,4,18.6,6.1,29.1,6.1,20.2,0,37-6.8,50.2-20.3s20.3-31.3,21.2-53.1h-86.6Z"/>
        <path class="cls-1" d="M436,114.6c-.7-1.5-1.5-2.9-2.2-4.4-.3-.8-.9-1.3-1.5-1.9-.1,1.6-.3,3-.4,4.6,1.2,1.8,2.5,3.7,4.1,6.1,0-1-.2-1.5,0-1.7.9-1,.4-1.8,0-2.7ZM430.8,115.4c-1.2,2.8-3.5,4.6-5.4,6.6,1.1,2.6,2.2,5,3.2,7.4,2.3-1.6,4.5-4.6,6-8.2-1.2-1.8-2-4.1-3.8-5.9ZM407.9,118.1c-1.3.9-3-.2-4.2.8-1.4-.1-2.8.3-4.2-.3-1.3-.6-2.9.2-4.4-.7-.8,2.9-1.5,5.7-2.3,8.4,1.8,1,3.9.7,5.8,1.1,1.9.4,4,.2,6,0,2-.2,3.9-.6,6-1,0-2.3-1.8-7.5-2.7-8.5ZM412,133.8c-.2-1.4-.4-2.7-.6-4.3-.1-.2-.3-.6-.4-.8-6.2,1.1-12.3,1.1-18.7,0-.4,3.1-.9,6.2-1.3,9.3,1.7,1.2,3.8,1.1,5.7,1.2,2.8.3,5.7.4,8.5.2,2.3-.1,4.5-.5,6.7-1.1.2,0,.3-.3.6-.6-.2-1.3-.3-2.6-.5-4ZM390.8,103.1c-2.8,1.2-5.7,1.8-7.9,3.3.4,2.1,1.5,3.5,2.7,4.6,2.1-2.1,4.1-4.1,6.2-6.2-.2-.4-.6-1-1-1.7ZM384.2,112.5c-1.3-1.3-2.7-2.6-3-4.5h-1.1c-1.9,1.8-4,3.6-5.9,5.4,1.3,2.5,2.4,5,4.9,6.8,2.1-2,3-4.8,5.2-6.7.1-.1,0-.5,0-.9ZM393.7,106.9c-2.5,1.4-4.1,3.8-6.2,5.6,1.8,1.6,3.9,2.3,6.3,3,.9-2.3,1.8-4.6,2.8-7.1-.9-.5-1.8-1-2.9-1.5ZM394.6,102.1c-.4,0-.9,0-1.4,0,0,.6.2,1,.3,1.7.8-.9,2.1-.7,2.2-2.2-.4.2-.8.3-1.2.4ZM404.6,108.7c-2,1-3.8.7-5.9,0-.8,2.6-2.2,4.7-2.6,7.4,4,.7,7.8.7,11.5-.1-.8-2.6-1.8-4.9-3-7.2ZM401.7,102.8c-.7,1.5-1.9,2.5-1.6,4h3.8c-.7-1.3-1.4-2.6-2.2-4ZM410.2,106.8c-1.2.2-2.1,1-3.2,1.8.9,2.3,1.9,4.6,2.8,7,2.1-.9,4.4-1.4,6-3.2-1.9-1.9-3.7-3.7-5.6-5.6ZM409.1,102.1c-.5-.1-.9-.2-1.7-.4.7.9,1.5,1.3,2.2,1.9.3-.3.6-.5,1.1-1-.7-.2-1.2-.4-1.7-.5ZM412.8,103c-.4.8-.8,1.5-1.2,2.3.9.6,1.5,1.6,2.5,2.1,1,.5,1.7,1.6,2.6,2.4.4.4.8.7,1.1.9,1.6-1.1,2.3-2.6,2.9-4.2-2.5-1.7-5.3-2.5-7.9-3.6ZM422.9,107.7c-1.3,1.9-2.4,3.6-3.6,5.2.8,1.2,1.5,2.5,2.5,3.5,1,1.1,1.3,2.7,2.8,3.6.9-.9,1.8-1.7,2.5-2.7.8-1.1,1.4-2.4,2.2-3.8-1.7-2.6-4.2-4.1-6.5-5.8ZM429.7,106.1c-2.2-1.5-4.3-2.7-6.7-3.5v3c2.6,1.1,4.4,3.5,6.9,4.9.7-1.6-.5-2.8-.3-4.3ZM420.9,97.1c.8,3,2.7,3.6,5,3.7-1.5-1.2-3.1-2.3-5-3.7ZM420.5,101.7c-2.5-1-5.2-1.3-8-1.1,2.8,1.1,5.6,2.3,8.5,3.4,0-.3-.3-2-.5-2.3ZM416.8,96.6c-.9-.9-1.9-1.4-3.1-1.2-1.2.2-2.4.4-3.6.7.2,1.1,1.2,1.4,1.7,2.2,1.2,0,2.4,0,3.6,0,1.1,0,2.2.9,3.4.3-.7-.7-1.4-1.3-2-2ZM406.7,92.8c-.6.3-1.1.7-2,1.3.7.3,1,.5,1.9.8,1-.2,2.6-.7,4.3-1.1-1-1-3.1-1.5-4.2-1ZM406.9,97.3v.5h.2v-.5h-.2ZM404.1,102.7c.7,1.4,1.3,2.6,1.9,3.9.7-.4,1.5-.8,2.4-1.3-1.6-.7-2.5-2.2-4.3-2.6ZM399.5,92.1q1.6,2.1,2.7,2.4c.5-.7,1.1-1.5,1.7-2.4h-4.4ZM395.5,105.7c.7.2,1.3.4,1.9.7.5-1.1,1.1-2.3,1.6-3.6-1.3.9-2.8,1.3-3.6,2.9ZM396.2,97.5v.2h1v-.2h-1ZM397.7,93.3c-.3-.3-.5-.6-.7-.8-1.9,0-3.1.4-4.3,1.3,1.9.2,3.4,1.5,5.3,1,.2-.2.4-.4.6-.7-.3-.3-.6-.6-.9-.9ZM393.1,96c-1.7-.2-3.3-.5-4.8-.7-1.4,1.1-2.6,2.1-4,3.4,2.3.3,4-.7,5.8-.4,1.4.2,2.5-.4,3.5-1.5,0,0,0-.2.1-.3-.2-.2-.4-.4-.5-.5ZM390.8,100.2c-2.8.3-5.5.6-8,1.6v2.1c2.8-1,5.4-2,8.2-3,0-.1,0-.3-.1-.7ZM382.5,97.4c-.1.1-.2.3,0,.3,0,0-.2,0-.2,0,0,0,0,0,0,0,.1-.1.3-.2.4-.3,0,0,0-.1-.1-.2ZM377.5,101.2c1.3-.4,2.6-.8,3.9-1.3.3-.7.6-1.4.7-2.2-2,.7-3.1,2.3-4.6,3.4ZM373.6,106v4.1c.2.2.3.3.4.5,1.7-2.3,4.2-3.6,6.1-5.2v-3.1c-2.3,1.3-4.5,2.5-6.6,3.6ZM371,108.2c-1.6,2.5-3.2,4.9-4,7.7.9.6-.2,2.1,1,2.5.6-.9,1.2-1.8,1.8-2.6.6-.9,1.1-1.8,1.9-3.1-.2-1.2-.4-2.7-.7-4.4ZM365.4,120.3c.3,1.7-1.1,3.1-.3,4.8.4-.8.9-1.6,1.2-2.5.3-.8.3-1.7-.9-2.3ZM365.5,134.8c.4,5,3.2,8.8,6.3,12.4.3-.3.5-.5.7-.7v-4.6c-3.1-1.7-4.8-4.6-7-7.2ZM371.4,149.5c-.1.3-.2.5-.3.8.5.4.9.8,1.4,1.2,0,0,.2-.2.3-.3-.4-.5-.9-1-1.4-1.6ZM367.7,124.3c-.7,2.2-1.2,4.1-1.8,6,1.4,3.5,3.7,6.3,6.3,9.1.3-.5.5-.9.8-1.5.3-1.5.7-3.6,1-5.7-2.4-2.2-4.3-4.9-6.4-7.8ZM372.8,115.3c-2,1.9-2.8,4.3-3.9,6.2,1.2,3.2,3.5,5.6,5.8,8.3,1.1-2.8,2.4-5.2,3.3-7.7-2.2-2-4.2-4-5.2-6.8ZM389.2,140.1c-2.4-.7-4.6-1.5-6.7-2.5-2.2-1-4.1-2.5-6.2-3.7-1.2.8-.7,2.3-1.1,3.4-.4,1.2-.2,2.6-.3,4,4,3.2,8.6,5,13.4,6.5.3-2.6-.4-5,.8-7.7ZM388.2,149.9c-4.7-1.2-9.2-3.3-13.6-6v5.6c3.4,3,7.4,4.6,11.4,6.4.9.4,1.9.4,2.9.6.2-2.3,0-4.3-.7-6.6ZM389.3,159.2c-4.7-1.8-9.8-3.3-14.2-6.7v2.3c4,4.4,9,7.3,14.6,9.3-.2-1.7-.3-3.2-.5-5ZM385,126.3c-1.9-.7-3.5-2-5.3-2.7-.7,1.4-1.5,2.5-1.7,3.8-.2,1.5-1.7,2.7-1,4.2,3.6,2.9,7.5,4.8,11.8,6.1.8-3.2.6-6.4,1.6-9.3-1.8-.7-3.6-1.4-5.4-2.1ZM385.8,114.3c-1.6,2.2-3.1,4.2-4.5,6.2-.1.2,0,.5,0,.9,1.2,1.5,3,2,4.6,2.7,1.6.7,3.2,1.5,4.7,1.9.8-2.9,1.5-5.7,2.3-8.5-2.4-1.1-4.7-2.2-7.1-3.3ZM391.3,159.7c.2,1.9.5,3.5.7,5.2,6.5,1.6,13,1.6,19.5,0,.2-2,.5-3.7.7-5.5-7.1,1.3-13.9.9-20.8.2ZM412.3,150.6c-7.2,1.6-14.2,1.3-21.5,0,.3,2.3-.5,4.6.7,6.7,11.8,1.9,14,.9,20.9-.1,0-1.1,0-2.2,0-3.3,0-1.1.1-2.2-.1-3.2ZM412.9,144.1c0-1.2-.4-2.4-.6-3.6-.3,0-.6,0-.8,0-.8.5-1.7.2-2.4.5-.9.4-1.8.4-2.7.4-3.1,0-6.2,0-9.4,0-1.5,0-3.1-.2-4.6-.6-.6-.2-1-.6-1.7-.2v7.8c1.4.2,2.8.7,4.3.6,1.4,0,2.7.6,4.1.5,1.5,0,3,0,4.6,0,1.4,0,2.8-.3,4.1-.5,1.5-.2,2.9-.4,4.4-.5.2-.2.4-.4.7-.7,0-1.3,0-2.6,0-3.8ZM417.7,114.3c-2.5,1.2-4.8,2.3-7.2,3.5.3,1,.7,1.9,1,2.9.4,1.5.6,2.9,1,4.4,0,.4.4.7.6.9,3.5-1,6.6-2.6,9.7-4.4-1.9-2.7-3.6-5.1-5.1-7.2ZM427,131.1c-1.1-2.5-2.1-5-3.2-7.6-3.4,1.8-6.6,3.6-10.4,4.6.2,3.3,1.2,6.3,1,9.6,4.8-1.5,8.9-3.5,12.6-6.6ZM421.9,147.6c-2.3,1-4.7,1.8-7,2.5,0,1.3,0,2.3,0,3.4,0,.9-.3,1.9-.5,2.8,2.6.3,12.6-4.6,14.3-7v-5.4c-2.3,1.5-4.5,2.6-6.8,3.7ZM428.5,152.4c-4.3,3.1-9.1,5.1-14.1,6.5,0,1.8-1.1,3.4-.3,5.2,5.4-1.9,9.9-5,14.2-9-.4-.8,1-1.5.2-2.7ZM428.2,137.4c0-1.2-.2-2.6-1.1-3.6-3.8,2.7-7.8,4.8-12.3,5.9v8.2c5.1-1.6,9.7-3.6,13.8-6.6.3-1.4-.6-2.6-.5-3.9ZM435.8,124.6c-2,2.8-4,5.4-6.5,7.5.5,2.5,1,4.8,1.6,7.3,3-2.3,4.8-5.2,6.6-8.4,0-2.1-.8-4.2-1.7-6.5ZM432.3,149.8c-.7,0-.7,0-1.1.9,0,0,.1.2,0,.2.4-.4.8-.8,1-1.1ZM431.2,142.2v5.3c4.4-4,6.9-10.2,7-13.5-1.9,3.5-4.6,5.8-7,8.2ZM438.4,122.8c0-.9-.2-1.7-.9-2.4-.2.4-.6.8-.6,1,.5,1.3.6,2.7,2,4.1-.3-1.3-.5-2-.5-2.8Z"/>
        <path class="cls-1" d="M312.8,128.4c-.5,9.5-2.1,18.3-4.9,26.2-2.5,7.1-6,13.6-10.3,19.4-1.8,2.5-3.8,4.8-6,7,0,0-.2.2-.3.3-13.2,13.4-29.8,20.1-49.9,20.1s-20.2-2-29.1-6.1c-8.9-4-16.8-10-23.9-18-6-6.6-10.5-14.1-13.6-22.5-2.8-7.8-4.4-16.2-4.6-25,0-.6,0-1.2,0-1.8v-.2c0-9.6,1.9-18.8,5.6-27.4,3.7-8.8,9.2-16.7,16.3-23.8,6.8-6.8,14.4-11.9,22.8-15.2,8.4-3.4,17.7-5.1,28-5.1s26.6,3.3,37.2,10c4.1,2.5,7.7,5.5,11,8.8,0,0,.1.1.2.2,2.2,2.2,4.2,4.7,6.1,7.2,0,0,0,.1.1.2,2.5,3.5,4.7,7.3,6.6,11.4h-24.7c-4.6-6-10.2-10.5-16.6-13.5-6.4-3-13.6-4.5-21.5-4.5s-12.9,1.2-18.9,3.8c-6,2.5-11.3,6.1-15.9,10.9-4.8,4.9-8.6,10.7-11.3,17.2-2.7,6.5-4,13.2-4,20v.3c0,.3,0,.7,0,1,0,7,1.3,13.6,3.6,19.9,2.4,6.5,5.9,12.1,10.5,16.9,4.8,5,10.4,8.9,16.6,11.6,6.3,2.8,12.7,4.1,19.2,4.1,10.6,0,20-2.8,28.2-8.5,5-3.5,9.5-8,13.4-13.5,0,0,0,0,.1-.1,2.3-3.3,4.5-7,6.4-11,0,0,0,0,0-.1,0,0,0-.2.1-.3h-.2s0,0,0,0c0-.1.1-.3.2-.4h-63.5v-19.2h86.6Z"/>
        <path class="cls-2" d="M289.8,147.6c0,.1-.1.3-.2.4,0-.1,0-.3,0-.4h.3Z"/>
        <path class="cls-1" d="M289.8,148.1c0,0,0,.2-.1.3,0,0,0-.2,0-.3h.2Z"/>
        <path class="cls-1" d="M291.8,98.5c-2.3,8.3-3.6,16.9-3.9,25.8h-8.8c.3-8.9,1.5-17.5,3.6-25.8h9.1Z"/>
        <path class="cls-1" d="M519.9,128c0,66.5-54,120.5-120.5,120.5s-85.6-25.6-106-63.2c.3-.3.5-.5.8-.8l.2-.2c1.8-1.8,3.5-3.8,5.2-6,18.4,36.4,56.2,61.4,99.8,61.4,61.7,0,111.7-50,111.7-111.7s-50-111.7-111.7-111.7-81.7,25.2-100,61.9c-1.6-2.1-3.3-4.1-5.2-5.9-.4-.4-.7-.7-1.1-1.1,20.3-37.9,60.3-63.7,106.3-63.7,66.5,0,120.5,53.9,120.5,120.5Z"/>
        <path class="cls-1" d="M410.9,93.8c-1-1-3.1-1.5-4.2-1-.6.3-1.1.7-2,1.3.7.3,1.1.5,1.9.8,1-.3,2.6-.7,4.3-1.1Z"/>
        <path class="cls-1" d="M408.4,105.3c-1.6-.7-2.5-2.2-4.3-2.6.7,1.4,1.3,2.6,1.9,3.9.7-.4,1.5-.8,2.4-1.3Z"/>
        <path class="cls-1" d="M407,97.8v-.5h-.2v.5h.2Z"/>
        <path class="cls-1" d="M426,100.8c-1.6-1.2-3.1-2.3-5-3.7.8,3,2.7,3.6,5,3.7Z"/>
        <path class="cls-1" d="M411.7,98.3c1.2,0,2.4,0,3.6,0,1.1,0,2.1.9,3.4.3-.7-.7-1.4-1.3-2-2-.9-.9-1.9-1.4-3.1-1.2-1.2.2-2.4.4-3.6.7.2,1.1,1.2,1.4,1.7,2.2Z"/>
        <path class="cls-1" d="M412.4,100.6c2.8,1.1,5.6,2.3,8.5,3.4,0-.3-.3-2-.5-2.3-2.6-1-5.2-1.3-8-1.1Z"/>
        <path class="cls-1" d="M390.8,100.2c-2.8.4-5.5.6-8,1.7v2.1c2.8-1,5.4-2,8.2-3,0-.1,0-.4-.1-.7Z"/>
        <path class="cls-1" d="M390.1,98.3c1.4.2,2.5-.4,3.4-1.5,0,0,0-.2.1-.3-.2-.2-.4-.4-.5-.5-1.7-.2-3.3-.5-4.8-.7-1.4,1.2-2.6,2.1-4,3.4,2.3.3,4-.7,5.8-.4Z"/>
        <path class="cls-1" d="M397.9,94.8c.2-.2.4-.4.6-.6-.3-.3-.6-.6-.9-.9-.3-.3-.5-.6-.7-.8-1.9,0-3.1.4-4.3,1.3,1.9.2,3.4,1.5,5.3,1Z"/>
        <path class="cls-1" d="M402.2,94.5c.5-.7,1.1-1.5,1.7-2.4h-4.4q1.6,2.1,2.7,2.4Z"/>
        <path class="cls-1" d="M382.3,97.9c.1-.1.3-.2.4-.3,0,0-.1-.1-.2-.2-.1.1-.2.3,0,.3,0,0-.2,0-.3,0,0,0,0,0,0,0Z"/>
        <path class="cls-1" d="M397.1,97.4h-1v.2h1v-.2Z"/>
        <path class="cls-1" d="M395.5,105.7c.7.2,1.3.4,1.9.7.5-1.1,1.1-2.3,1.6-3.5-1.3.9-2.8,1.3-3.6,2.9Z"/>
        <path class="cls-1" d="M423.1,105.5c2.6,1.1,4.4,3.5,6.9,4.9.7-1.6-.5-2.8-.3-4.3-2.2-1.5-4.3-2.6-6.7-3.6v3Z"/>
        <path class="cls-1" d="M385.6,111c2.1-2.1,4.1-4.1,6.2-6.2-.2-.4-.6-1-1-1.7-2.8,1.2-5.7,1.8-7.9,3.3.4,2.1,1.5,3.5,2.7,4.6Z"/>
        <path class="cls-1" d="M392.3,128.7c-.4,3.1-.9,6.2-1.3,9.3,1.7,1.2,3.8,1.1,5.7,1.2,2.8.3,5.7.4,8.5.2,2.3-.1,4.5-.5,6.7-1.1.2,0,.3-.3.6-.6-.2-1.3-.3-2.6-.5-4-.2-1.4-.4-2.7-.6-4.3-.1-.2-.3-.6-.4-.8-6.2,1.1-12.3,1.1-18.7,0Z"/>
        <path class="cls-1" d="M381.1,107.9h-1.1c-1.9,1.7-4,3.6-5.9,5.3,1.3,2.5,2.4,5.1,4.9,6.8,2.1-2,3-4.8,5.2-6.7.1-.1,0-.5,0-.9-1.3-1.3-2.7-2.6-3-4.5Z"/>
        <path class="cls-1" d="M396.5,108.4c-.8-.5-1.8-1-2.9-1.5-2.5,1.4-4.1,3.8-6.2,5.6,1.8,1.6,3.9,2.3,6.3,3,.9-2.3,1.8-4.6,2.8-7.1Z"/>
        <path class="cls-1" d="M436,117.3c.9-1,.4-1.8,0-2.7-.7-1.5-1.5-2.9-2.2-4.4-.3-.8-.9-1.3-1.5-1.9-.1,1.6-.3,3.1-.4,4.6,1.2,1.8,2.5,3.7,4.1,6.1,0-1-.2-1.5,0-1.7Z"/>
        <path class="cls-1" d="M425.4,122.1c1.1,2.6,2.2,5,3.2,7.4,2.3-1.6,4.5-4.6,6-8.2-1.2-1.8-2-4.1-3.8-5.9-1.2,2.8-3.5,4.6-5.4,6.6Z"/>
        <path class="cls-1" d="M403.7,118.9c-1.4-.1-2.8.3-4.2-.3-1.3-.6-2.9.2-4.4-.7-.8,2.9-1.5,5.7-2.3,8.4,1.8,1,3.9.7,5.8,1.1,1.9.4,4,.2,6,0,1.9-.2,3.9-.6,6-1,0-2.3-1.8-7.5-2.7-8.5-1.3.9-3-.2-4.2.8Z"/>
        <path class="cls-1" d="M401.7,102.8c-.7,1.5-1.9,2.5-1.6,4h3.8c-.7-1.3-1.4-2.6-2.2-4Z"/>
        <path class="cls-1" d="M409.1,102.1c-.5-.1-.9-.2-1.7-.4.7.9,1.5,1.3,2.2,1.9.3-.3.6-.5,1.1-1-.7-.2-1.2-.4-1.7-.5Z"/>
        <path class="cls-1" d="M410.2,106.8c-1.2.2-2.1,1-3.2,1.8.9,2.3,1.8,4.6,2.8,7,2.1-.9,4.4-1.4,6-3.2-1.9-1.9-3.7-3.7-5.6-5.6Z"/>
        <path class="cls-1" d="M417.8,110.9c1.6-1.1,2.3-2.6,2.9-4.2-2.5-1.7-5.3-2.5-7.9-3.6-.4.7-.8,1.5-1.2,2.3.9.6,1.5,1.6,2.5,2.1,1,.5,1.7,1.6,2.6,2.4.4.4.8.7,1.2,1Z"/>
        <path class="cls-1" d="M424.7,120.1c.9-.9,1.8-1.7,2.5-2.7.8-1.1,1.4-2.4,2.2-3.8-1.7-2.6-4.2-4.1-6.5-5.8-1.3,1.9-2.4,3.6-3.6,5.2.8,1.2,1.5,2.5,2.5,3.5,1,1.1,1.3,2.7,2.8,3.6Z"/>
        <path class="cls-1" d="M396.1,116.1c4,.7,7.8.7,11.5-.1-.8-2.6-1.8-4.9-2.9-7.2-2,1-3.8.7-5.9,0-.8,2.6-2.2,4.7-2.6,7.4Z"/>
        <path class="cls-1" d="M395.7,101.7c-.4.2-.8.3-1.2.4-.4,0-.9,0-1.4.1.1.6.2,1,.3,1.7.8-.9,2.1-.7,2.2-2.2Z"/>
        <path class="cls-1" d="M365.4,120.3c.3,1.7-1.1,3.1-.3,4.8.4-.8.9-1.6,1.2-2.5.3-.8.3-1.7-.9-2.3Z"/>
        <path class="cls-1" d="M414.4,156.3c2.6.3,12.6-4.6,14.3-7v-5.4c-2.3,1.5-4.6,2.6-6.8,3.7-2.3,1-4.7,1.8-7,2.5,0,1.3,0,2.3,0,3.4,0,.9-.3,1.9-.5,2.8Z"/>
        <path class="cls-1" d="M428.5,152.4c-4.3,3.2-9.1,5.1-14.1,6.5,0,1.8-1,3.4-.3,5.2,5.4-1.9,9.9-5,14.2-9-.4-.8,1.1-1.5.2-2.7Z"/>
        <path class="cls-1" d="M414.4,137.7c4.8-1.5,8.9-3.5,12.6-6.6-1.1-2.5-2.1-5-3.2-7.6-3.4,1.8-6.6,3.6-10.4,4.6.3,3.3,1.2,6.3,1,9.6Z"/>
        <path class="cls-1" d="M417.7,114.3c-2.5,1.2-4.8,2.3-7.2,3.5.3,1,.7,1.9,1,2.9.4,1.4.6,2.9,1,4.4,0,.4.4.7.6.9,3.5-1,6.6-2.6,9.7-4.4-1.9-2.7-3.6-5.1-5.1-7.2Z"/>
        <path class="cls-1" d="M312.8,128.4c-.5,9.5-2.1,18.3-4.9,26.2,0,0,0,.2,0,.3,2.8-8,4.4-16.8,4.8-26.5h0Z"/>
        <path class="cls-1" d="M399.5,32.8c-41.5,0-76.8,26.5-89.8,63.5-.3.7-.5,1.4-.7,2.2-2.7,8.2-4.3,16.9-4.6,25.8h12.8l-.2,4.2c-.4,10-2.2,19.4-5.1,27.8-.5,1.5-1.1,3-1.7,4.4,13.3,36.5,48.4,62.5,89.5,62.5s95.2-42.6,95.2-95.2-42.7-95.2-95.2-95.2ZM440.3,135.5c0,2.5-1.1,4.8-1.8,7.2-.5,1.6-1.4,3-2,4.5-.6,1.5-1.4,2.8-2.3,4.1-1.8,2.5-3.6,4.9-5.9,6.9-2.4,2-4.8,3.9-7.6,5.3-2.5,1.2-4.9,2.4-7.5,3.3-.8.3-1.8-.3-2.3.7-1.5.2-3.1.3-4.6.5-1.3.1-2.5.7-3.9.5s-2.7.2-4.1-.4c-1.1-.5-2.6.3-3.9-.6-2.7,0-5.1-1.2-7.5-2.1-2.4-.9-4.6-2.3-6.9-3.7-3.3-2.1-5.9-5-8.5-7.8-2.2-2.3-3.8-5-5.1-7.9-.7-1.5-1.2-3-1.8-4.5-.6-1.5-1.2-3-1.3-4.5-.3-2.6-1-5.3-.6-7.4,0-1.2,0-1.8,0-2.5-.2-2.7.8-5.2,1-7.8.8-.7.3-1.9.9-2.8.5-.8.6-1.8,1-2.7.4-.9.8-1.8,1.2-2.6,1.8-3.1,3.6-6.2,6.3-8.7.5-.4.9-.9,1.4-1.4,3.4-3.7,7.6-6.3,12.2-8.3,2.3-1,4.8-1.7,7.2-2.3.7-.1,1.3-.4,2-.5.7,0,1.5.2,2.1,0,1.8-.7,3.6-.3,5.3-.4,1.5,0,2.9.5,4.4.6,1.3,0,2.7.5,3.9.8,1.4.2,2.7,1.1,4.2,1.1,3.8,2.1,7.8,3.8,11.2,6.7,1.5,1.4,3.1,2.6,4.5,4.2,2.5,2.9,4.6,6.1,6.2,9.6,1,2.2,2.4,6.7,3,9.6.2,1.3.3,2.6.4,3.9,0,.7.3,1.3.5,2,.3,1.3-.4,2.6-.5,3.9,0,1.2.5,2.5-.5,3.6ZM438.3,94.3c-4.5-6.2-10-10.9-16.5-14-6.5-3.1-13.9-4.7-22.1-4.7s-12.8,1.2-18.8,3.8c-5.9,2.5-11.2,6.1-15.8,10.9-4.8,4.9-8.5,10.7-11.2,17.2-2.7,6.5-4,13.2-4,20s1.2,14.2,3.7,20.7c2.4,6.5,5.9,12.1,10.4,16.9,4.8,5,10.3,8.9,16.6,11.6s12.7,4.1,19.2,4.1,15.2-1.5,21.6-4.6c6.4-3,11.7-7.5,15.9-13.2h24.9c-6.1,12.2-14.5,21.6-25.2,28.1-10.7,6.5-23.1,9.8-37.2,9.8s-20.1-2-29-6c-8.8-4-16.8-10-23.8-18-5.9-6.6-10.5-14.1-13.5-22.5-3.1-8.4-4.6-17.5-4.6-27.1s1.9-19,5.6-27.7c3.7-8.8,9.1-16.7,16.3-23.9,6.8-6.7,14.3-11.7,22.6-15.1,8.3-3.4,17.2-5.2,26.7-5.2,14.3,0,26.9,3.4,37.7,10.2,10.8,6.8,19,16.4,24.5,28.8h-23.8Z"/>
        <path class="cls-1" d="M412.4,140.5c-.3,0-.6,0-.8,0-.8.5-1.7.2-2.4.5-.9.4-1.8.4-2.7.4-3.1,0-6.2,0-9.4,0-1.5,0-3.1-.2-4.6-.6-.6-.2-1-.6-1.7-.1v7.8c1.4.2,2.8.7,4.3.6,1.4,0,2.7.6,4.1.6,1.5,0,3,0,4.6,0,1.4,0,2.7-.3,4.1-.5,1.4-.2,2.9-.4,4.4-.5.2-.2.4-.4.7-.7,0-1.3,0-2.6,0-3.8,0-1.2-.4-2.4-.6-3.6Z"/>
        <path class="cls-1" d="M431.2,142.2v5.3c4.4-4,6.9-10.2,7-13.5-1.9,3.5-4.6,5.8-7,8.2Z"/>
        <path class="cls-1" d="M437.5,120.4c-.2.4-.6.8-.6,1.1.5,1.3.6,2.7,2,4.1-.3-1.3-.5-2-.5-2.8,0-.9-.2-1.7-.9-2.4Z"/>
        <path class="cls-1" d="M382.2,97.8c-2,.7-3.1,2.3-4.6,3.4,1.3-.4,2.6-.8,3.9-1.3.3-.7.6-1.4.7-2.2Z"/>
        <path class="cls-1" d="M437.5,131c0-2.1-.8-4.2-1.7-6.5-2,2.7-4,5.4-6.5,7.5.5,2.5,1,4.8,1.6,7.3,3-2.3,4.8-5.2,6.6-8.4Z"/>
        <path class="cls-1" d="M412.3,150.6c-7.2,1.6-14.3,1.3-21.5,0,.3,2.3-.5,4.6.7,6.7,11.8,1.9,14,.9,20.9-.1,0-1.1,0-2.2,0-3.3,0-1.1.1-2.2-.1-3.2Z"/>
        <path class="cls-1" d="M431.2,150.7c0,0,.1.2,0,.1.4-.4.8-.8,1-1.1-.7,0-.7,0-1.1.9Z"/>
        <path class="cls-1" d="M427.2,133.8c-3.8,2.7-7.8,4.8-12.3,5.9v8.2c5.1-1.6,9.7-3.6,13.8-6.6.3-1.4-.6-2.6-.5-3.9,0-1.2-.2-2.6-1.1-3.6Z"/>
        <path class="cls-1" d="M371.1,150.3c.5.4.9.8,1.4,1.2l.3-.3c-.4-.5-.9-1-1.4-1.6-.1.3-.2.5-.3.8Z"/>
        <path class="cls-1" d="M365.9,130.3c1.4,3.5,3.7,6.3,6.3,9.1.3-.5.5-.9.8-1.5.3-1.5.7-3.6,1.1-5.7-2.4-2.2-4.3-4.9-6.4-7.8-.7,2.2-1.2,4.1-1.8,6Z"/>
        <path class="cls-1" d="M372.6,146.6v-4.6c-3.1-1.7-4.9-4.6-7-7.2.4,5,3.3,8.8,6.3,12.4.3-.3.5-.5.7-.7Z"/>
        <path class="cls-1" d="M378,122.1c-2.2-2-4.2-4-5.2-6.8-2,1.9-2.8,4.3-3.9,6.2,1.2,3.2,3.5,5.6,5.8,8.3,1.1-2.8,2.4-5.2,3.3-7.7Z"/>
        <path class="cls-1" d="M368,118.4c.6-.9,1.2-1.8,1.7-2.6.6-.9,1.1-1.8,1.9-3.1-.2-1.2-.4-2.7-.7-4.4-1.6,2.5-3.2,4.9-4,7.7.9.6-.2,2.1,1,2.5Z"/>
        <path class="cls-1" d="M380.2,105.4v-3.1c-2.3,1.3-4.5,2.5-6.6,3.7v4.1l.4.5c1.7-2.3,4.2-3.6,6.1-5.2Z"/>
        <path class="cls-1" d="M382.5,137.6c-2.2-1-4.1-2.5-6.2-3.7-1.2.8-.7,2.3-1.1,3.4-.4,1.2-.2,2.6-.3,4,4,3.2,8.6,5,13.4,6.5.3-2.6-.4-5.1.8-7.7-2.3-.7-4.6-1.5-6.7-2.5Z"/>
        <path class="cls-1" d="M385.8,114.4c-1.6,2.2-3.1,4.2-4.5,6.2-.1.2,0,.5,0,.9,1.2,1.5,3,2,4.6,2.7,1.6.7,3.2,1.5,4.7,1.9.8-2.9,1.5-5.7,2.3-8.5-2.4-1.1-4.6-2.2-7.1-3.3Z"/>
        <path class="cls-1" d="M379.7,123.6c-.7,1.4-1.5,2.5-1.7,3.8-.2,1.5-1.7,2.7-1,4.2,3.6,2.9,7.6,4.8,11.8,6.1.8-3.2.6-6.4,1.6-9.3-1.8-.7-3.6-1.4-5.4-2.1-1.9-.7-3.5-2-5.3-2.7Z"/>
        <path class="cls-1" d="M391.3,159.7c.2,1.9.5,3.5.7,5.2,6.5,1.6,13,1.6,19.5,0,.2-2,.5-3.7.7-5.5-7.1,1.3-13.9.9-20.8.3Z"/>
        <path class="cls-1" d="M375.1,152.5v2.3c4,4.4,9,7.3,14.6,9.4-.2-1.7-.3-3.2-.5-5-4.7-1.8-9.8-3.3-14.2-6.7Z"/>
        <path class="cls-1" d="M388.9,156.5c.2-2.3,0-4.3-.7-6.6-4.7-1.2-9.2-3.3-13.6-6v5.6c3.4,3,7.4,4.6,11.4,6.4.9.4,1.9.4,2.9.6Z"/>
      </g>
    </g>
  </g>
</svg>