<?xml version="1.0" encoding="UTF-8"?>
<svg id="Layer_1" data-name="Layer 1" xmlns="http://www.w3.org/2000/svg" version="1.1" viewBox="0 0 550.5 158.7">
  <defs>
    <style>
      .cls-1 {
        fill: #fff;
        stroke-width: 0px;
      }
    </style>
  </defs>
  <path class="cls-1" d="M79.4,146.2c-2.3.4-4.4,1.1-6.6,1.2-13.9.9-27.8,1.2-40.6-5.9-15-8.3-23-20.8-23.5-38.3-.6-20.8,8.2-37.7,20.9-53,15.9-19.1,36-32.2,59.8-39.1,16.3-4.7,32.9-5.6,49.2.4,20.4,7.5,31.8,27.3,29.1,48.6-2.7,21.1-13.3,37.9-27.8,52.7-11.7,11.9-25.4,20.9-40.9,27.4-.6.2-1.1.4-2.4.8v-73.8h-.8c-11.9,12.2-23.8,24.5-34.8,35.9h-26.9c26.9-26.9,53.5-53.5,80.1-80l-.6-1.2c-2.8,0-5.6-.3-8.3,0-35.1,4.1-61,21.5-75.8,53.9-5.6,12.2-6.2,25.1,0,37.6,3.3,6.6,9.4,12.2,16.6,15.1,10.7-10.8,21.6-22,33.1-33.8v51.4h0ZM115.9,116.8c.6-.2.9-.2,1.1-.4,13.4-9.7,24.2-21.6,30.3-37.1,4.9-12.2,6.3-24.8.1-37-6.4-12.7-17.7-18.1-31.6-20v94.4h0Z"/>
  <path class="cls-1" d="M480.5,114.3c-1.7-2.7-3.2-5.1-4.7-7.5-.2,0-.4,0-.6,0-.2,2.4-.4,4.8-.6,7.3h-15.6V41.6c.9-.2,2.1-.6,3.2-.6,12.5,0,24.9-.2,37.4,0,14,.2,26,5.1,34.6,16.5,12.4,16.3,7.7,39.6-11.1,50.8-7.1,4.2-14.8,6.4-23.1,6.2-6.5-.2-12.9,0-19.5,0ZM475.1,103h25.8c12.5,0,23-10.2,23.4-22.8.5-13.4-9-24.4-22-25-8.4-.4-16.8-.1-25.2-.1-.7,0-1.3.3-2.1.4v47.4Z"/>
  <path class="cls-1" d="M274.3,75.6c1,10.1-2.9,18-9.2,24.9-17.6,18.9-52.9,18.6-70.3-.4-13.9-15.2-11.7-36.1,4.8-48.9,8.8-6.8,18.9-9.9,29.9-10.2,9.1-.2,18.2,0,27.4,0,.9,0,1.8.2,2.8.4v12.6c-1.2,0-2.4.3-3.5.3-8,0-16-.1-24,0-6.4.1-12.8.8-18.4,4-7.9,4.5-13.1,10.9-12.8,20.5.2,9.4,5.6,15.6,13.6,19.7,13.3,6.8,30.8,3.6,39.3-7.2.9-1.1,1.6-2.4,2.9-4.4h-27.5v-11.1h45.2,0Z"/>
  <path class="cls-1" d="M396.1,42.1h20c12.4,23.8,24.9,47.7,37.6,72h-18.9c-9.4-18.1-18.9-36.2-28.8-55-4.3,8.2-8.3,16-12.6,24.1h20c2.2,4.3,4.4,8.5,7,13.4h-33.9c-3.2,6-6.2,11.7-9.3,17.5h-18.8c12.7-24.3,25.1-48.2,37.6-72.1h0Z"/>
  <path class="cls-1" d="M318.4,87.2c12.6,9,24.7,17.6,36.8,26.2,0,.2,0,.5-.1.7-.9,0-1.8.2-2.8.2-6.8,0-13.6,0-20.4,0-1.2,0-2.7-.3-3.6-1-17.1-12-34.1-24.1-51.1-36.1-.4-.3-.7-.7-1.6-1.5,1.9-.2,3.2-.4,4.6-.4,14.7,0,29.4,0,44.1,0,8,0,12.7-5.7,11-13-.9-4-4.1-7-8.2-7.5-2.4-.3-4.8-.5-7.2-.5-13.3,0-26.5,0-39.8,0h-3.8v-12c1.4,0,2.5-.2,3.5-.2,16.6,0,33.2,0,49.8,0,13.1,0,24.4,11.2,23.9,23.7-.4,9.5-9,18.8-19.8,20.6-4.8.8-9.6.7-15.3,1.1h0Z"/>
</svg>