<?xml version="1.0" encoding="UTF-8"?>
<svg id="Layer_1" data-name="Layer 1" xmlns="http://www.w3.org/2000/svg" version="1.1" viewBox="0 0 550.45 158.71">
  <defs>
    <style>
      .cls-1 {
        fill: #005bab;
        stroke-width: 0px;
      }
    </style>
  </defs>
  <path class="cls-1" d="M79.4,146.22c-2.3.45-4.45,1.12-6.63,1.25-13.92.86-27.81,1.17-40.56-5.92-14.99-8.33-23.03-20.78-23.55-38.28-.62-20.77,8.16-37.68,20.85-52.96,15.87-19.12,35.95-32.25,59.85-39.09,16.34-4.67,32.92-5.59,49.22.4,20.35,7.48,31.84,27.26,29.09,48.61-2.72,21.1-13.26,37.94-27.76,52.71-11.71,11.93-25.44,20.94-40.86,27.38-.55.23-1.13.37-2.37.76v-73.8c-.25-.04-.5-.08-.75-.12-11.93,12.33-23.85,24.65-34.84,36.01h-26.87c26.94-26.9,53.53-53.45,80.12-80l-.57-1.21c-2.77,0-5.58-.28-8.32.04-35.11,4.1-61,21.55-75.81,53.92-5.57,12.17-6.24,25.1.02,37.6,3.29,6.57,9.42,12.2,16.59,15.06,10.65-10.85,21.6-22,33.14-33.76v51.39ZM115.87,116.83c.58-.19.89-.22,1.11-.38,13.4-9.67,24.15-21.57,30.34-37.07,4.88-12.24,6.29-24.77.11-37.02-6.43-12.73-17.74-18.1-31.55-19.95v94.41Z"/>
  <path class="cls-1" d="M480.48,114.35c-1.69-2.74-3.17-5.14-4.66-7.53-.2.01-.41.02-.61.04-.19,2.38-.37,4.75-.57,7.3h-15.58V41.58c.94-.19,2.06-.61,3.18-.62,12.46-.05,24.92-.19,37.38.02,13.96.24,25.96,5.08,34.6,16.46,12.4,16.33,7.74,39.55-11.08,50.79-7.11,4.24-14.75,6.42-23.12,6.16-6.47-.2-12.94-.04-19.54-.04ZM475.12,102.97c1.58,0,2.77,0,3.97,0,7.29,0,14.58,0,21.87,0,12.48.02,22.98-10.17,23.41-22.75.47-13.41-9.01-24.4-21.97-24.96-8.39-.36-16.8-.13-25.2-.12-.66,0-1.32.27-2.08.44v47.39Z"/>
  <path class="cls-1" d="M274.33,75.6c.96,10.12-2.86,18.03-9.24,24.88-17.62,18.89-52.86,18.6-70.3-.37-13.93-15.16-11.67-36.1,4.79-48.91,8.78-6.84,18.93-9.91,29.91-10.2,9.11-.24,18.23-.06,27.35-.04.88,0,1.76.21,2.84.36v12.56c-1.22.1-2.38.26-3.55.27-8,.02-16.01-.11-24.01.05-6.38.13-12.76.77-18.45,4.03-7.88,4.51-13.06,10.88-12.83,20.45.23,9.43,5.59,15.58,13.55,19.67,13.31,6.83,30.75,3.57,39.34-7.2.91-1.14,1.61-2.45,2.88-4.41h-27.5v-11.14h45.22Z"/>
  <path class="cls-1" d="M396.06,42.1h20.02c12.44,23.81,24.9,47.67,37.64,72.04h-18.88c-9.43-18.05-18.92-36.21-28.75-55.02-4.31,8.25-8.33,15.96-12.61,24.15h20.02c2.23,4.29,4.42,8.51,6.96,13.41h-33.92c-3.18,5.97-6.21,11.66-9.31,17.47h-18.76c12.7-24.35,25.15-48.21,37.59-72.05Z"/>
  <path class="cls-1" d="M318.44,87.25c12.63,8.98,24.71,17.57,36.79,26.16-.04.24-.09.48-.13.71-.92.08-1.83.24-2.75.24-6.79.02-13.57.05-20.36-.05-1.23-.02-2.67-.34-3.65-1.03-17.06-11.98-34.07-24.05-51.08-36.1-.39-.28-.71-.66-1.64-1.53,1.93-.18,3.25-.4,4.57-.41,14.69-.03,29.37.04,44.06-.05,8.04-.04,12.71-5.66,11.02-13.01-.92-4.02-4.07-7-8.17-7.5-2.4-.3-4.83-.49-7.25-.5-13.27-.05-26.54-.02-39.81-.03-1.19,0-2.37,0-3.83,0v-12c1.38-.07,2.46-.17,3.55-.17,16.61-.02,33.22-.05,49.83-.04,13.06.01,24.35,11.25,23.85,23.68-.38,9.53-9.04,18.8-19.75,20.58-4.75.79-9.65.69-15.28,1.05Z"/>
</svg>