<?xml version="1.0" encoding="UTF-8"?>
<svg xmlns="http://www.w3.org/2000/svg" version="1.1" viewBox="0 0 68 38">
  <defs>
    <style>
      .cls-1 {
        fill: #a65634;
      }
    </style>
  </defs>
  <!-- Generator: Adobe Illustrator 28.6.0, SVG Export Plug-In . SVG Version: 1.2.0 Build 709)  -->
  <g>
    <g id="Layer_1">
      <g>
        <path class="cls-1" d="M34.2,9h4.9c0,.4,0,.9,0,1.3,0,2.8,0,5.6-.2,8.5,0,1.3-.2,2.6-.5,3.9-.6,2.2-2.1,3.7-4.2,4.4-3.3,1.2-6.7,1.2-10,.1-3.2-1-4.9-3.5-4.9-7.1,0-2.6,0-5.2,0-7.8,0-1,0-2,0-3.2,1.6-.2,3.3-.1,5,0,0,.9,0,1.8,0,2.6,0,2.5-.1,5.1-.1,7.6,0,.7.1,1.4.2,2.1.4,2.2,1.7,3.3,4,3.6.5,0,1,0,1.5,0,2.5-.2,3.8-1.4,4.1-3.9.1-1,.2-2.1.2-3.2,0-2.5,0-5-.1-7.5,0-.4,0-.8,0-1.3Z"/>
        <path class="cls-1" d="M53.4,27.4h-4.7c0-.6-.1-1.1-.2-1.6-.4-2.5-1.3-4.8-2.6-7-1.3-2.4-2.7-4.7-4.1-7.1-.5-.8-.8-1.7-1.3-2.7h6.2c1.7,4.8,3.4,9.5,5.2,14.3,1.4-4.9,3.9-9.3,5-14.3h5.1c-.3.7-.4,1.4-.7,2-1.1,2.3-2.2,4.5-3.2,6.8-1.5,3.1-3,6.2-4.6,9.5Z"/>
        <path class="cls-1" d="M4,27.4c.2-1,.3-2,.4-2.9,1,0,1.9.2,2.8.2,3.2,0,4.6-1.3,4.8-4.5.2-3.3.2-6.6.3-9.9,0-.4,0-.8,0-1.3h4.9c0,1.3-.2,2.4-.2,3.6-.1,2-.2,4.1-.4,6.1,0,1-.2,2-.4,3-.7,3.2-2.6,5.1-5.9,5.7-1.9.4-3.8.4-5.7.1-.2,0-.4-.1-.7-.2Z"/>
      </g>
    </g>
  </g>
</svg>