<?xml version="1.0" encoding="UTF-8"?>
<svg xmlns="http://www.w3.org/2000/svg" version="1.1" viewBox="0 0 295.5 297">
  <defs>
    <style>
      .cls-1 {
        fill: #fff;
      }

      .cls-2 {
        display: none;
        fill: #231f20;
      }
    </style>
  </defs>
  <!-- Generator: Adobe Illustrator 28.6.0, SVG Export Plug-In . SVG Version: 1.2.0 Build 709)  -->
  <g>
    <g id="Layer_1">
      <rect class="cls-2" x="-23.4" y="-9.3" width="386" height="336.7"/>
      <g>
        <g>
          <path class="cls-1" d="M200.9,260.9c-.8-2.1-2-3.6-3.8-4.5-1.8-.9-3.6-1-5.5-.3-1.9.7-3.2,2-4,3.8-.8,1.9-.8,3.8,0,5.9.7,2,2,3.5,3.8,4.3,1.8.9,3.6,1,5.4.3,1.8-.7,3.1-1.8,4-3.5,1-1.9,1.1-4,.3-6.1ZM199.1,267.3c-.4,1.2-1.2,2-2.4,2.4-1.3.5-2.5.4-3.6-.2-1.3-.8-2.5-2.4-3.3-4.7-.8-2.2-1-3.9-.5-5.2.5-1.3,1.3-2.2,2.6-2.7,1.2-.4,2.3-.3,3.4.3,1.4.9,2.5,2.4,3.3,4.6.8,2.2,1,4,.4,5.5Z"/>
          <path class="cls-1" d="M187.4,273h-.5c-.5.2-1,.2-1.3,0-.2-.2-.5-.7-.7-1.6l-2-9.2c-.2-.8-.2-1.4-.1-1.6.2-.4.6-.7,1.2-.9h.5c0-.1,0-.5,0-.5l-6.1,1.4v.4c0,0,.7-.1.7-.1.5-.1,1,0,1.3.2.2.2.5.7.7,1.6l.9,4.1c-.1,0-.2,0-.3,0,0,0-.2,0-.3,0-.2,0-.5.1-.9.2l-6.3-5.6-3.8.9v.4c.9,0,1.6,0,2.1.2.6.2,1.3.7,2.1,1.5l3.9,3.4c-1.1.5-1.9,1.2-2.3,1.9-.4.8-.5,1.6-.3,2.5.2.8.6,1.5,1.2,1.9.6.5,1.3.8,2.1.8.8,0,1.9,0,3.4-.4l5.2-1.2v-.4ZM181.6,273.9c-.9.2-1.7,0-2.4-.3-.7-.4-1.1-1.1-1.3-2-.2-.9,0-1.7.5-2.5s1.5-1.3,2.9-1.6c0,0,.1,0,.2,0,0,0,.2,0,.3,0l1.3,5.9c-.7.3-1.2.5-1.6.6Z"/>
          <path class="cls-1" d="M170.6,269.3c-.2-1.8-.8-3.3-2-4.5-1.6-1.7-3.8-2.4-6.6-2.1-1,0-1.8.3-2.6.5-.8.3-1.6.7-2.3,1.2l.4,4.4c0,.8,0,1.3,0,1.6-.2.4-.5.6-1.1.7h-.3s0,.4,0,.4l5.6-.5v-.4c-.6,0-1,0-1.3,0-.2,0-.4-.2-.6-.5-.1-.2-.2-.7-.3-1.4l-.4-4.2c.4-.3.9-.5,1.4-.7.5-.2,1-.3,1.5-.3.9,0,1.8.1,2.7.6.9.5,1.7,1.2,2.3,2.3.6,1.1,1,2.3,1.1,3.7.1,1.7-.1,3.2-.8,4.5-.8,1.5-2.2,2.4-4,2.6-1.4.1-2.5-.2-3.4-1-.6-.5-1.2-1.3-1.7-2.5h-.4s.8,4.6.8,4.6h.4c0-.4,0-.7.1-.8,0-.1.2-.2.3-.2.1,0,.4,0,.8.2.8.2,1.5.4,1.9.4.4,0,.9,0,1.5,0,1.4-.1,2.7-.5,3.7-1.3,1.2-.9,2.1-2,2.7-3.5.5-1.2.7-2.5.6-3.8Z"/>
          <path class="cls-1" d="M150.7,263.4v.4c.7,0,1.1.2,1.3.4.2.2.3.4.3.6,0,.3-.2.7-.4,1.2l-1.1,2.2-5.6-.3-.8-2.1c-.2-.7-.4-1.2-.4-1.5,0-.2.1-.4.3-.6.2-.2.6-.2,1.2-.2v-.4s-5.7-.3-5.7-.3v.4c.6,0,1,.2,1.3.6.3.3.7,1,1,1.9l4.5,12.4h.4s5.7-11.7,5.7-11.7c.5-1,.9-1.7,1.3-2,.2-.2.6-.3,1.2-.4v-.4s-4.6-.2-4.6-.2ZM147.6,274.8l-2.2-6,5,.2-2.8,5.8Z"/>
          <path class="cls-1" d="M134.5,261.9v.4c0,0,.4,0,.4,0,.6.1,1,.3,1.2.7.1.2.1.8,0,1.7l-1.6,8.8-7.3-13.3h-.4c0,0-2.2,12-2.2,12-.2.8-.3,1.3-.5,1.5-.3.3-.8.4-1.4.3h-.5c0,0,0,.3,0,.3l5,.9v-.4c0,0-.4,0-.4,0-.6,0-1-.3-1.2-.7-.2-.3-.2-.8,0-1.7l1.5-8.3,6.8,12.4,3.9.7v-.4c-.3,0-.6-.2-.8-.3-.4-.2-.7-.4-.9-.6-.2-.2-.5-.6-.8-1.1l1.8-10c.2-.8.3-1.3.5-1.5.3-.3.8-.4,1.4-.3h.5c0,0,0-.3,0-.3l-5-.9Z"/>
          <path class="cls-1" d="M118.3,258v.4c-.1,0,.4.1.4.1.3.1.6.3.9.5.2.2.3.4.3.6,0,.2,0,.7-.3,1.4l-2.6,9c-.2.8-.5,1.3-.7,1.5-.4.3-.8.3-1.4.1h-.5c0-.1-.1.2-.1.2l6,1.8v-.4c.1,0-.4-.1-.4-.1-.3,0-.6-.3-.9-.5-.2-.2-.3-.4-.3-.6,0-.2,0-.7.3-1.4l2.6-9c.2-.8.5-1.3.7-1.5.4-.3.8-.3,1.4-.1h.5c0,.1.1-.2.1-.2l-6-1.8Z"/>
          <path class="cls-1" d="M115,259.5c-.6-2.1-2-3.7-4.2-4.6-1.2-.5-2.4-.6-3.6-.4-1.1.2-2.3.8-3.4,1.7l.2.3c1.2-.8,2.3-1.2,3.1-1.4.8-.1,1.7,0,2.5.4,1,.4,1.8,1,2.4,1.8.6.8.9,1.7.9,2.8,0,1-.2,2.2-.7,3.4-.6,1.5-1.3,2.7-2.1,3.5-.8.8-1.7,1.3-2.6,1.5-.9.2-1.8,0-2.7-.3-1.1-.4-1.9-1.1-2.4-2-.5-.9-.7-2.1-.6-3.7h-.3c0-.1-1.5,4.6-1.5,4.6h.4c.2-.2.4-.4.7-.5.2,0,.4,0,.5,0,.1,0,.3.2.5.5.8.9,1.6,1.5,2.6,1.9,1.3.5,2.5.7,3.9.5,1.3-.2,2.5-.7,3.5-1.6s1.8-2,2.4-3.4c.7-1.7.8-3.3.4-4.9Z"/>
          <path class="cls-1" d="M96.8,251.3c-.2-2.2-1.3-4-3.3-5.2-1.1-.7-2.3-1.1-3.4-1.1s-2.4.4-3.7,1.1l.2.4c1.4-.6,2.5-.8,3.3-.8.8,0,1.7.3,2.5.8.9.6,1.6,1.3,2.1,2.2.5.9.6,1.8.5,2.9-.2,1-.6,2.1-1.3,3.2-.8,1.4-1.7,2.4-2.7,3-.9.7-1.9,1-2.8,1-.9,0-1.8-.2-2.6-.8-1-.6-1.6-1.4-2-2.4-.4-1-.3-2.2,0-3.7l-.3-.2-2.3,4.4.3.2c.2-.2.5-.4.8-.5.2,0,.4,0,.5,0,.1,0,.2.2.4.5.6,1,1.4,1.8,2.2,2.3,1.1.7,2.4,1.1,3.7,1.1,1.3,0,2.6-.3,3.8-1,1.2-.7,2.2-1.7,2.9-2.9.9-1.5,1.3-3.1,1.2-4.8Z"/>
          <path class="cls-1" d="M84.5,242.7c-.2-2-1-3.6-2.6-4.8-1.5-1.3-3.3-1.8-5.3-1.5-2,.2-3.7,1.2-5.1,2.9-1.4,1.7-2,3.5-1.8,5.5.2,2,1,3.6,2.4,4.8,1.5,1.2,3.2,1.8,5,1.6,2.1-.1,3.9-1.1,5.4-2.9,1.4-1.8,2.1-3.6,1.9-5.6ZM80.7,246.8c-1.5,1.8-3,2.8-4.5,3.2-1.2.2-2.3,0-3.3-.9-1.1-.9-1.6-1.9-1.6-3.2,0-1.6.8-3.3,2.4-5.2,1.5-1.8,2.9-2.8,4.2-3.1,1.4-.3,2.6,0,3.6.9,1,.8,1.5,1.8,1.5,3.1,0,1.6-.8,3.4-2.3,5.2Z"/>
          <path class="cls-1" d="M70.7,227.3c-.9-1-1.9-1.6-3-1.9-1.1-.3-2.4-.3-3.8,0v.4c1.5-.2,2.7-.2,3.5,0,.8.2,1.5.7,2.2,1.4.7.8,1.2,1.7,1.4,2.6.2,1,0,1.9-.3,2.9-.4,1-1.1,1.9-2.1,2.8-1.2,1.1-2.3,1.8-3.4,2.3-1.1.4-2.1.5-3,.3-.9-.2-1.7-.7-2.3-1.4-.8-.8-1.2-1.8-1.3-2.8,0-1,.2-2.2,1-3.6l-.2-.2-3.4,3.6.3.3c.3-.2.6-.3.9-.3.2,0,.4,0,.5.2,0,0,.2.3.3.6.3,1.1.8,2,1.6,2.8.9,1,2,1.7,3.3,2,1.3.4,2.6.4,3.9,0,1.3-.4,2.5-1,3.6-2,1.3-1.2,2.1-2.7,2.4-4.3.4-2.2-.2-4.2-1.9-5.9Z"/>
          <path class="cls-1" d="M61.8,216.4c-1.2-1.6-2.7-2.5-4.7-2.8-2-.3-3.9.2-5.7,1.5-1.7,1.3-2.8,2.9-3.2,4.8-.3,2,0,3.7,1.1,5.2,1.1,1.5,2.6,2.5,4.4,2.9,2.1.4,4.1,0,6-1.4,1.8-1.3,2.9-3,3.3-4.9.4-1.9,0-3.7-1.2-5.4ZM61.8,220.3c-.5,1.6-1.6,3.1-3.6,4.5-1.9,1.3-3.6,2-5.1,1.9-1.2,0-2.2-.6-3-1.7-.8-1.1-1.1-2.3-.7-3.5.4-1.5,1.6-3,3.7-4.5,1.9-1.3,3.5-2,4.9-1.9,1.4,0,2.5.7,3.3,1.8.8,1,1,2.2.6,3.4Z"/>
          <path class="cls-1" d="M54.5,205.6l-.3.2.2.5c.3.5.3.9.2,1.3-.1.3-.5.6-1.3,1l-7.9,4.2,5.9-14-.2-.3-10.8,5.8c-.7.4-1.2.6-1.5.5-.5,0-.8-.3-1.1-.9l-.2-.5-.3.2,2.4,4.5.4-.2-.2-.4c-.3-.5-.3-1-.2-1.3.1-.3.5-.6,1.3-1l7.4-3.9-5.5,13,1.8,3.5.4-.2c-.2-.4-.3-.7-.4-.9,0-.4,0-.8,0-1.1,0-.3.2-.7.4-1.3l8.9-4.7c.7-.4,1.2-.6,1.5-.5.5,0,.8.4,1.1.9l.2.4.3-.2-2.4-4.5Z"/>
          <path class="cls-1" d="M47.4,189.3c-.5-1.4-1.2-2.4-2-3-.8-.6-1.7-.9-2.5-.9-.9,0-2,.3-3.3.8l-5.5,2c-.8.3-1.3.4-1.5.3-.5-.1-.9-.5-1.1-1l-.2-.5h-.4c0,.1,1.8,5,1.8,5h.4c0-.1-.2-.6-.2-.6-.2-.5-.2-1,0-1.3.1-.3.6-.5,1.5-.9l5.5-2c1.5-.5,2.5-.8,3.2-.7.7,0,1.4.3,2,.9s1.1,1.3,1.5,2.2c.2.7.3,1.3.3,1.9,0,.6-.2,1.1-.5,1.5-.3.4-.8.8-1.4,1.1-.6.4-1.2.6-1.8.8l-6,2.2c-.8.3-1.3.4-1.6.3-.5-.1-.8-.5-1-1l-.2-.5h-.4c0,.1,2.2,6.1,2.2,6.1h.4c0-.1-.2-.7-.2-.7-.2-.5-.2-.9,0-1.3.2-.3.7-.6,1.5-1l5.3-1.9c1.7-.6,2.7-1.1,3.2-1.6.8-.6,1.2-1.4,1.5-2.4.2-1,0-2.2-.5-3.7Z"/>
          <path class="cls-1" d="M42.4,172.8h-.4c0,0,.1.6.1.6.1.5,0,1-.2,1.3-.2.2-.7.5-1.6.6l-10.9,2.5-.5-2c-.1-.6-.1-1.1,0-1.5.1-.4.3-.8.7-1.1.2-.2.6-.4,1.2-.6v-.4c0,0-3.4.9-3.4.9l2.6,11.6,3.4-.6v-.4c-.7.1-1.3,0-1.7-.1-.4-.2-.8-.4-1-.8-.2-.3-.3-.7-.5-1.4l-.4-1.7,10.8-2.5c.8-.2,1.3-.2,1.6-.1.4.2.7.5.8,1.1v.5c.1,0,.5,0,.5,0l-1.4-6Z"/>
          <path class="cls-1" d="M40.7,161.2h-.4c0,.7,0,1.2-.2,1.4-.1.2-.3.3-.6.3-.3,0-.7,0-1.3-.3l-2.4-.8-.4-5.6,2-1c.7-.3,1.1-.5,1.5-.5.2,0,.5,0,.6.3.2.2.3.6.4,1.2h.4s-.4-5.8-.4-5.8h-.4c0,.6-.1,1.1-.4,1.4-.3.4-.9.8-1.8,1.2l-11.8,5.8v.4s12.3,4.4,12.3,4.4c1.1.4,1.8.7,2.2,1.1.2.2.3.5.5,1.2h.4s-.3-4.6-.3-4.6ZM29,159.4l5.7-2.8.3,5-6-2.2Z"/>
          <path class="cls-1" d="M40.7,145.3c0-.4.1-.8.2-1.2,0-1.3-.3-2.5-1-3.4-.8-.9-1.7-1.4-2.8-1.5-.6,0-1.1,0-1.7.3-.5.2-1,.6-1.5,1.1-.4.5-1,1.4-1.8,2.7-1,1.6-1.8,2.6-2.3,3-.4.3-.8.4-1.2.4-.6,0-1.1-.3-1.5-.8-.4-.5-.6-1.1-.6-1.9,0-.6.2-1.3.6-1.9.4-.6.8-1,1.4-1.3.6-.3,1.4-.5,2.3-.6v-.4s-5-.3-5-.3v.4c.3,0,.5.2.6.3.1.1.1.3.1.5,0,.2-.1.4-.3.8-.4.8-.7,1.7-.7,2.4,0,1.2.2,2.3,1,3.1.7.8,1.6,1.3,2.6,1.3.6,0,1.2,0,1.7-.3.5-.2,1-.6,1.4-1.1.4-.5,1-1.3,1.8-2.6.8-1.2,1.3-1.9,1.5-2.2.3-.4.7-.7,1.1-.9.4-.2.7-.2,1.1-.2.6,0,1.2.3,1.6.9.4.5.6,1.3.6,2.2,0,.8-.3,1.5-.6,2.1-.4.6-.8,1.1-1.4,1.4-.5.3-1.3.5-2.4.6v.4s5,.3,5,.3v-.4c-.3,0-.5-.2-.6-.3s-.2-.2-.1-.4c0-.2.1-.6.4-1.3.3-.7.4-1.1.5-1.4Z"/>
          <path class="cls-1" d="M41.5,128.9c-.7-1-1.5-1.5-2.6-1.7-.6,0-1.1,0-1.7.1-.6.2-1.1.5-1.5.9-.5.4-1.2,1.2-2.1,2.5-1.1,1.5-2,2.4-2.6,2.8-.4.2-.8.3-1.3.3-.6,0-1-.4-1.4-1-.4-.6-.5-1.2-.4-1.9.1-.7.4-1.2.8-1.8.4-.6,1-1,1.6-1.2.6-.2,1.4-.3,2.4-.3v-.4c0,0-4.9-.8-4.9-.8v.4c.2.1.5.2.5.4,0,.1.1.3,0,.5,0,.2-.2.4-.4.8-.5.8-.8,1.6-1,2.3-.2,1.2,0,2.3.6,3.2.6.9,1.4,1.5,2.5,1.6.6,0,1.2,0,1.7-.1.5-.2,1.1-.5,1.6-1,.5-.5,1.2-1.2,2.1-2.4.9-1.1,1.5-1.8,1.7-2,.4-.4.8-.6,1.1-.7.4-.1.8-.2,1.1-.1.6,0,1.2.5,1.5,1,.4.6.5,1.3.4,2.2-.1.8-.4,1.4-.8,2-.4.6-1,1-1.5,1.2-.6.2-1.4.4-2.4.4v.4c0,0,4.9.8,4.9.8v-.4c-.3-.1-.5-.2-.6-.3,0-.1-.1-.3,0-.5,0-.2.2-.6.5-1.2.3-.7.5-1.1.6-1.3.1-.4.2-.8.3-1.2.2-1.3,0-2.5-.6-3.5Z"/>
          <path class="cls-1" d="M44.3,114c-1-1.8-2.6-2.9-4.7-3.5-2.1-.6-4-.4-5.7.5-1.8.9-2.9,2.3-3.4,4.1-.5,1.8-.4,3.6.5,5.2,1,1.9,2.5,3.2,4.8,3.8,2.2.6,4.1.5,5.9-.4,1.8-.9,2.9-2.3,3.5-4.3.5-1.9.3-3.7-.7-5.5ZM44.3,119.3c-.4,1.2-1.1,2.1-2.3,2.6-1.5.6-3.4.6-5.7,0-2.2-.7-3.8-1.6-4.7-2.9-.7-1-.9-2.2-.5-3.4.4-1.3,1.2-2.2,2.3-2.7,1.5-.6,3.4-.6,5.8.1,2.2.6,3.7,1.5,4.5,2.7.8,1.2,1,2.4.6,3.7Z"/>
          <path class="cls-1" d="M50.9,101.6c-.2-1.1-.7-2.3-1.6-3.5l-.3.2c.8,1.3,1.2,2.3,1.2,3.1,0,.8,0,1.7-.5,2.5-.4,1-1.1,1.8-1.9,2.4-.8.6-1.7.8-2.8.8-1.1,0-2.2-.3-3.4-.8-1.5-.6-2.6-1.4-3.4-2.2-.8-.8-1.3-1.7-1.4-2.6-.1-.9,0-1.8.4-2.7.5-1,1.2-1.8,2.1-2.3.9-.5,2.2-.6,3.7-.5v-.3c.1,0-4.5-1.7-4.5-1.7l-.2.3c.3.2.5.4.6.7,0,.2,0,.4,0,.5,0,.1-.2.3-.5.5-.9.7-1.5,1.6-2,2.5-.5,1.2-.7,2.5-.6,3.8.2,1.3.7,2.5,1.5,3.6.8,1.1,1.9,1.9,3.3,2.5,1.7.7,3.3.9,4.9.5,2.2-.5,3.7-1.8,4.7-4,.5-1.2.7-2.4.6-3.5Z"/>
          <path class="cls-1" d="M55.7,93l-.2.5c-.2.3-.4.5-.7.7-.2.1-.4.2-.6.2-.2,0-.7-.2-1.3-.6l-8.2-4.6c-.8-.4-1.2-.8-1.3-1-.2-.4-.1-.9.2-1.4l.3-.5-.3-.2-3.1,5.4.4.2.2-.4c.2-.3.4-.6.7-.7.2-.1.4-.2.6-.2.2,0,.7.2,1.3.6l8.2,4.6c.8.4,1.2.8,1.3,1,.2.4.1.9-.2,1.4l-.2.5.3.2,3-5.5-.3-.2Z"/>
          <path class="cls-1" d="M64.6,79.9c-.4.5-.8.8-1.2.9-.4.1-1.2,0-2.2-.2l-12.8-2.8-.2.3,6.9,11.1c.6,1,.9,1.7,1,2.2,0,.2,0,.6-.3,1.2l.3.2,2.6-3.8-.3-.2c-.4.5-.8.9-1.1.9-.3,0-.5,0-.7,0-.2-.2-.5-.5-.8-1l-1.3-2.1,3.2-4.6,2.2.5c.7.2,1.2.3,1.5.5.2.1.3.3.3.6,0,.3-.1.6-.4,1.1l.3.2,3.3-4.7-.3-.2ZM54,85.8l-3.4-5.5,6.2,1.3-2.9,4.1Z"/>
          <path class="cls-1" d="M69.5,74.5l-.3.4c-.4.4-.8.7-1.2.7s-.8-.3-1.5-.9l-8.4-7.3,1.3-1.5c.4-.5.8-.8,1.2-.9.4-.2.8-.2,1.3,0,.3,0,.7.3,1.2.6l.3-.3-2.7-2.1-7.8,9,2.5,2.4.3-.3c-.5-.5-.8-.9-.9-1.4-.1-.5-.1-.9,0-1.2.1-.3.4-.7.8-1.2l1.1-1.3,8.4,7.3c.6.5,1,.9,1,1.2.1.4,0,.9-.4,1.4l-.3.4.3.2,4-4.7-.3-.3Z"/>
          <path class="cls-1" d="M76.7,67.3l-.4.4c-.2.2-.5.4-.9.5-.2,0-.5,0-.6,0-.2-.1-.6-.4-1.1-1l-6.5-6.8c-.6-.6-.9-1.1-1-1.4,0-.4.2-.9.6-1.3l.4-.4-.3-.3-4.5,4.3.3.3.4-.4c.2-.2.5-.4.9-.5.2,0,.5,0,.6,0,.2,0,.6.4,1.1,1l6.5,6.8c.6.6.9,1.1,1,1.4,0,.5-.2.9-.6,1.3l-.4.4.3.3,4.5-4.3-.3-.3Z"/>
          <path class="cls-1" d="M84.2,52.2c-1.3-1.7-3-2.7-5-2.9-2-.3-3.7.2-5.2,1.3-1.5,1.2-2.4,2.7-2.7,4.5-.3,2.1.2,4.1,1.6,5.9,1.4,1.8,3.1,2.8,5,3.1,2,.3,3.7-.2,5.3-1.5,1.5-1.2,2.4-2.8,2.6-4.9.2-2-.4-3.9-1.8-5.6ZM82.9,62.1c-1,.8-2.1,1-3.3.8-1.6-.4-3.1-1.5-4.6-3.4-1.4-1.8-2.2-3.5-2.1-5.1,0-1.2.5-2.3,1.6-3.1,1.1-.9,2.2-1.1,3.5-.9,1.5.4,3.1,1.5,4.6,3.5,1.4,1.8,2.1,3.4,2.1,4.8s-.6,2.5-1.7,3.4Z"/>
          <path class="cls-1" d="M100.8,51.1l-6.2-10.6c-.4-.7-.6-1.2-.6-1.5,0-.5.3-.8.9-1.1l.4-.3-.2-.3-4.4,2.6.2.3.4-.3c.5-.3.9-.4,1.3-.2.3,0,.6.5,1.1,1.3l4.2,7.2-13.2-4.9-3.4,2,.2.4c.4-.2.7-.4.9-.4.4,0,.8-.1,1-.1.3,0,.7.2,1.3.4l5.1,8.7c.4.7.6,1.2.6,1.5,0,.5-.3.8-.9,1.2l-.4.3.2.3,4.4-2.6-.2-.3-.5.3c-.5.3-.9.4-1.3.2-.3,0-.6-.5-1.1-1.3l-4.5-7.7,14.2,5.2.3-.2Z"/>
          <path class="cls-1" d="M118.8,35.6c-.7-2-2-3.5-3.8-4.4-1.8-.9-3.6-1-5.3-.3-1.8.6-3.1,1.8-4,3.4-1,1.9-1.1,4-.3,6.1.8,2.1,2,3.6,3.8,4.5,1.8.9,3.6,1,5.5.3,1.9-.7,3.2-1.9,4-3.8.8-1.8.8-3.8,0-5.9ZM117.1,41.9c-.5,1.3-1.4,2.2-2.7,2.7-1.2.4-2.3.3-3.4-.3-1.4-.9-2.5-2.4-3.3-4.7-.8-2.2-.9-4-.4-5.5.4-1.2,1.2-2,2.5-2.4,1.3-.5,2.5-.4,3.6.3,1.3.8,2.4,2.4,3.3,4.7.8,2.2.9,3.9.5,5.2Z"/>
          <path class="cls-1" d="M127.9,27.1c.4,0,.7.2,1,.5.3.3.6.7,1,1.3h.4c0,0-.9-3.2-.9-3.2l-10.6,2.4v.4c0,0,.6-.1.6-.1.3,0,.7,0,1,0,.2,0,.4.2.5.3.1.2.3.7.5,1.4l2.1,9.2c.2.9.2,1.4.1,1.7-.2.4-.6.7-1.2.8h-.5c0,.1,0,.5,0,.5l6.1-1.4v-.4c0,0-.6.1-.6.1-.3,0-.7,0-1,0-.2,0-.4-.2-.5-.4-.1-.2-.3-.7-.5-1.4l-1-4.5,2.6-.6c.5-.1.8-.1,1.1,0,.3,0,.5.2.7.5.2.2.4.6.5,1.2h.4c0,0-1.1-4.9-1.1-4.9h-.4c0,.9,0,1.4-.2,1.8-.2.3-.6.6-1.2.7l-2.6.6-1.3-5.6,3.1-.7c.7-.2,1.3-.2,1.7-.2Z"/>
          <path class="cls-1" d="M149.8,23.6l-11.9.8v3.4c0,0,.5,0,.5,0,0-.7.1-1.2.4-1.6.2-.4.5-.7.9-.8.3-.1.8-.2,1.4-.3h1.8c0-.1.8,11,.8,11,0,.8,0,1.3-.1,1.6-.2.4-.7.6-1.3.6h-.5s0,.4,0,.4l6.2-.4v-.4s-.5,0-.5,0c-.6,0-1,0-1.3-.4-.2-.2-.3-.8-.4-1.7l-.8-11.1,2-.2c.6,0,1.1,0,1.5.2s.7.5,1,.8c.1.2.3.7.4,1.3h.4s-.4-3.4-.4-3.4Z"/>
          <path class="cls-1" d="M161.1,23.9v.4s.5,0,.5,0c.3,0,.7.1,1,.3.2.1.4.3.4.5,0,.2.1.7,0,1.5l-.2,4.2-6.8-.4.2-4.2c0-.7.1-1.2.2-1.4,0-.2.3-.4.5-.5.3-.1.6-.2,1-.2h.5s0-.4,0-.4l-6.2-.3v.4s.5,0,.5,0c.3,0,.7.1,1,.3.2.1.3.3.4.5,0,.2.1.7,0,1.5l-.5,9.4c0,.9-.2,1.4-.4,1.6-.3.3-.7.5-1.3.5h-.5s0,.4,0,.4l6.2.3v-.4s-.5,0-.5,0c-.3,0-.7-.1-1-.3-.2-.1-.4-.3-.4-.5,0-.2-.1-.7,0-1.5l.2-4.4,6.8.4-.2,4.4c0,.9-.2,1.4-.4,1.6-.3.3-.7.5-1.3.5h-.5s0,.4,0,.4l6.2.3v-.4s-.5,0-.5,0c-.3,0-.7-.1-1-.3-.2-.1-.3-.3-.4-.5s-.1-.7,0-1.5l.5-9.4c0-.7.1-1.2.2-1.4,0-.2.3-.4.5-.5.3-.2.7-.2,1-.2h.5s0-.4,0-.4l-6.2-.3Z"/>
          <path class="cls-1" d="M177.5,26.9c.7.1,1.2.3,1.5.4.3.2.5.5.7.8.1.3.2.9.2,1.6h.4c0,0,.4-3.1.4-3.1l-11-2v.4c0,0,.4,0,.4,0,.6.1,1,.3,1.2.6.1.2.1.8,0,1.7l-1.7,9.3c-.1.7-.3,1.2-.4,1.4-.1.2-.3.3-.5.4-.3.1-.7.1-1,0h-.5c0-.1,0,.3,0,.3l11,2,1.9-3.4h-.4c-.6.7-1.2,1.3-1.7,1.7-.4.3-.8.4-1.2.5-.4,0-1,0-1.8-.2l-2.4-.5c-.4,0-.7-.2-.8-.3-.1-.1-.2-.2-.2-.4,0-.1,0-.5.1-1.2l.9-4.7,3.2.6c.6.1,1,.3,1.3.5.3.2.4.4.5.7,0,.2,0,.7,0,1.4h.4c0,0,.9-4.9.9-4.9h-.4c-.2.7-.5,1.3-.9,1.5-.3.2-.9.2-1.7,0l-3.2-.6,1-5.7,3.9.7Z"/>
          <path class="cls-1" d="M198.9,34.1c-.3-.8-.7-1.4-1.3-1.9-.6-.5-1.5-1-2.8-1.4l-5-1.8v.4c-.1,0,.4.2.4.2.5.2.9.5,1,.9.1.3,0,.8-.3,1.7l-3.1,8.9c-.3.8-.5,1.2-.7,1.4-.4.3-.9.3-1.4.1l-.5-.2v.4c-.1,0,5.8,2.1,5.8,2.1v-.4c.1,0-.4-.2-.4-.2-.5-.2-.8-.5-1-.9-.1-.3,0-.8.3-1.7l1.4-4c.4.2.8.5,1.2.6.4.2.7.3,1,.5,1.3.5,2.5.5,3.5,0,1-.4,1.7-1.2,2.1-2.3.3-.8.3-1.6,0-2.4ZM196.5,35.9c-.3.9-.8,1.5-1.5,1.8s-1.4.4-2.1.2c-.2,0-.4-.2-.7-.3-.3-.1-.6-.3-.9-.5l2-5.7c.6,0,1,.2,1.4.3.6.2,1,.5,1.4.9.4.4.6.9.6,1.5,0,.6,0,1.2-.2,1.8Z"/>
          <path class="cls-1" d="M210.5,37.4l-.2.3.5.2c.3.2.6.4.8.7.1.2.2.4.2.6,0,.3-.2.7-.5,1.4l-1.8,3.7-6.1-3,1.8-3.7c.3-.6.6-1,.8-1.2.2-.2.4-.3.7-.3.3,0,.7,0,1,.2l.5.2.2-.4-5.6-2.8-.2.4.5.2c.3.2.6.4.8.7.1.2.2.4.2.6,0,.2-.2.7-.5,1.4l-4.2,8.4c-.4.8-.7,1.2-1,1.4-.4.2-.9.2-1.4-.1l-.5-.2-.2.4,5.6,2.8.2-.4-.5-.2c-.3-.1-.6-.4-.8-.7-.1-.2-.2-.4-.2-.6,0-.2.2-.7.5-1.4l2-4,6.1,3-2,4c-.4.8-.7,1.2-1,1.4-.4.2-.9.2-1.4-.1l-.5-.2-.2.3,5.6,2.8.2-.4-.5-.2c-.3-.1-.6-.4-.8-.7-.1-.2-.2-.4-.2-.6,0-.2.2-.7.5-1.4l4.2-8.4c.3-.6.6-1,.8-1.2.2-.2.4-.3.6-.3.4,0,.7,0,1,.2l.5.2.2-.4-5.6-2.8Z"/>
          <path class="cls-1" d="M217.8,41.4l-.2.3.4.3c.3.2.5.4.7.8.1.2.2.4.1.6,0,.2-.3.7-.7,1.3l-5,8c-.5.7-.8,1.2-1.1,1.3-.4.2-.9,0-1.4-.2l-.4-.3-.2.3,5.3,3.3.2-.3-.4-.3c-.3-.2-.5-.4-.7-.7-.1-.2-.2-.4-.1-.6,0-.2.3-.7.7-1.3l5-8c.5-.7.8-1.2,1.1-1.3.4-.2.9,0,1.4.2l.5.3.2-.3-5.3-3.3Z"/>
          <path class="cls-1" d="M224.8,45.8l-.2.3.4.3c.4.3.7.7.7,1.1,0,.3-.2.8-.8,1.5l-5.7,7.5c-.5.7-.9,1-1.1,1.1-.5.2-.9,0-1.4-.3l-.4-.3-.2.3,9,6.8,3.4-2.4-.2-.3c-.8.5-1.5.8-2.1.9-.5.1-1.1,0-1.5,0-.5-.1-1.1-.5-2-1.2l-.8-.7c-.7-.6-1.2-.9-1.3-1.1,0-.2-.1-.3-.1-.5,0-.2.2-.6.6-1.1l5.5-7.3c.5-.7.9-1.1,1.1-1.2.2-.1.5-.1.8,0s.8.3,1.4.8l.2-.3-5.2-4Z"/>
          <path class="cls-1" d="M236.2,54.7l-.3.3.4.3c.2.2.4.5.5.8,0,.2,0,.5,0,.6,0,.2-.4.6-.9,1.2l-6.3,7c-.6.7-1,1-1.3,1-.4,0-.9,0-1.3-.5l-.4-.3-.3.3,4.6,4.2.3-.3-.4-.4c-.2-.2-.4-.5-.6-.8,0-.2,0-.5,0-.7,0-.2.4-.6.9-1.2l6.3-7c.6-.6,1-1,1.3-1,.4,0,.9,0,1.3.5l.4.4.3-.3-4.6-4.2Z"/>
          <path class="cls-1" d="M247.6,66.6c-.3-.7-.9-1.6-1.8-2.5l-3.6-3.9-.3.3.4.4c.4.4.5.8.5,1.2,0,.3-.4.8-1,1.4l-6.9,6.4c-.6.6-1,.9-1.3.9-.5,0-.9-.1-1.3-.6l-.4-.4-.3.3,4.2,4.6.3-.3-.4-.4c-.4-.4-.5-.8-.5-1.2,0-.3.4-.8,1-1.4l3.1-2.9c.2.4.5.8.7,1.1.2.3.5.6.7.9,1,1,2,1.6,3.1,1.7,1.1,0,2-.3,2.9-1.1.6-.6,1-1.3,1.1-2.1.1-.8,0-1.6-.3-2.3ZM246,67.9c-.2.6-.6,1-1,1.5-.7.6-1.4.9-2.2.9-.8,0-1.4-.3-2-.8-.1-.2-.3-.4-.5-.6-.2-.2-.4-.5-.6-.8l4.4-4.1c.5.3.9.6,1.1.9.4.4.7.9.8,1.5.1.5,0,1.1-.1,1.6Z"/>
          <path class="cls-1" d="M255.9,77c-.2-.8-.8-1.7-1.5-2.7l-3.2-4.3-.3.2.3.4c.3.4.5.9.4,1.3,0,.3-.5.7-1.2,1.2l-7.5,5.7c-.7.5-1.1.8-1.4.8-.5,0-.9-.2-1.3-.7l-.3-.4-.3.2,3.7,5,.3-.2-.3-.4c-.3-.5-.5-.9-.4-1.3,0-.3.5-.7,1.2-1.3l3.4-2.6c.2.4.4.8.6,1.2.2.4.4.7.6,1,.9,1.2,1.8,1.8,2.9,2,1.1.2,2.1,0,3-.8.7-.5,1.2-1.2,1.4-2,.2-.8.2-1.6,0-2.3ZM254.2,78.1c-.3.5-.7,1-1.2,1.4-.7.6-1.5.8-2.3.7-.8,0-1.4-.4-1.8-1-.1-.2-.3-.4-.4-.6-.1-.2-.3-.6-.5-.9l4.8-3.6c.5.4.8.7,1,1,.4.5.6,1,.7,1.5,0,.5,0,1.1-.3,1.6Z"/>
          <path class="cls-1" d="M259.1,80.8l-.3.2.3.4c.2.3.3.6.3,1,0,.3,0,.5-.2.6-.1.2-.5.5-1.2.9l-8,5c-.7.5-1.2.7-1.5.7-.4,0-.8-.3-1.1-.8l-.3-.4-.3.2,3.3,5.3.3-.2-.3-.5c-.2-.3-.3-.6-.3-1,0-.3,0-.5.2-.6.1-.2.5-.5,1.2-.9l8-5c.7-.5,1.3-.7,1.6-.6.4,0,.8.3,1.1.8l.3.5.3-.2-3.3-5.3Z"/>
          <path class="cls-1" d="M268,96.8l-.4.2.2.5c.2.5.3,1,.2,1.3-.1.3-.6.6-1.4,1l-7.5,3.7,5.8-12.8-1.8-3.5-.4.2c.2.4.3.7.3.9,0,.4,0,.8,0,1.1,0,.3-.2.7-.5,1.3l-9.1,4.5c-.7.4-1.2.5-1.5.5-.5,0-.8-.4-1.1-.9l-.2-.5-.4.2,2.2,4.5.4-.2-.2-.5c-.2-.5-.3-1-.2-1.3.1-.3.6-.6,1.4-1l8-4-6.3,13.8.2.3,11-5.4c.7-.4,1.2-.5,1.5-.5.5,0,.8.4,1.1.9l.2.5.4-.2-2.2-4.5Z"/>
          <path class="cls-1" d="M271,103.4h-.4c0,.1.2.6.2.6.2.6.2,1,0,1.4-.1.2-.7.5-1.5.8l-9,3.1c-.7.2-1.1.3-1.4.3-.2,0-.5-.1-.6-.3-.3-.2-.4-.5-.6-.8l-.2-.5h-.4c0,.1,3.7,10.7,3.7,10.7h3.9v-.4c-1.1-.2-1.9-.4-2.5-.6-.4-.2-.8-.5-1-.8-.2-.3-.5-.9-.7-1.6l-.8-2.3c-.1-.4-.2-.7-.1-.8,0-.2,0-.3.2-.4.1-.1.5-.3,1.1-.5l4.5-1.6,1,3c.2.6.3,1,.2,1.3,0,.3-.2.6-.4.8-.2.2-.5.4-1.2.7v.4c.1,0,4.9-1.7,4.9-1.7v-.4c-.9.2-1.5.2-2,0-.3-.2-.6-.7-.9-1.5l-1-3,5.4-1.9,1.3,3.8c.2.7.4,1.2.3,1.5,0,.4-.1.7-.4,1-.2.3-.7.6-1.3,1v.4c.1,0,3.1-1.2,3.1-1.2l-3.7-10.6Z"/>
          <path class="cls-1" d="M278,126.3c-.3,0-.6,0-.7-.1-.1-.1-.2-.2-.3-.4,0-.2,0-.5,0-.9.2-.9.2-1.8,0-2.5-.3-1.2-.9-2.1-1.8-2.7-.9-.6-1.9-.8-2.9-.6-.6.1-1.1.4-1.5.8-.4.4-.8.9-1.1,1.5-.3.6-.6,1.6-1,3-.4,1.4-.7,2.2-.8,2.5-.2.5-.5.8-.8,1.1-.3.3-.7.4-1,.5-.6.1-1.2,0-1.8-.4-.6-.4-1-1-1.2-1.9-.2-.8-.2-1.5,0-2.2.2-.7.5-1.3.9-1.7.4-.4,1.2-.8,2.1-1.2v-.4c0,0-5,1.1-5,1.1v.4c.4,0,.7,0,.8,0,.1,0,.2.2.2.4,0,.2,0,.6,0,1.4,0,.7,0,1.2,0,1.4,0,.4,0,.8.2,1.2.3,1.3.9,2.3,1.9,3,1,.7,2,.9,3.1.6.6-.1,1.1-.4,1.5-.8.5-.4.8-.8,1.1-1.4.3-.6.6-1.6,1-3.1.5-1.8,1-3,1.4-3.6.3-.4.6-.6,1.1-.7.6-.1,1.1,0,1.7.4s.9.9,1.1,1.7c.1.6.1,1.3,0,2-.2.7-.5,1.2-1,1.7-.5.5-1.2.8-2.1,1.2v.4c0,0,5-1.1,5-1.1v-.4Z"/>
        </g>
        <g>
          <path class="cls-1" d="M152.9,54.9c-53,0-95.9,43-95.9,95.9s42.9,95.9,95.9,95.9,32-4.2,45.5-11.5c-1.5-.3-3-.5-4.5-.7-12.4,6.1-26.3,9.5-41.1,9.5-51.5,0-93.2-41.8-93.2-93.2s41.7-93.2,93.2-93.2,93.2,41.7,93.2,93.2-2.9,26.3-8,37.9c.5-.3.9-.7,1.4-1,.9-.7,1.8-1.3,2.7-1.9,4.2-10.8,6.6-22.6,6.6-34.9,0-53-43-95.9-95.9-95.9ZM211.7,223.2c.6.7,1.1,1.4,1.7,2.1,1.2-1,2.4-2,3.6-3,.2-1.3.5-2.6.8-3.8,0-.3.1-.5.2-.8-2,1.9-4.1,3.8-6.2,5.6ZM152.9,54.9c-53,0-95.9,43-95.9,95.9s42.9,95.9,95.9,95.9,32-4.2,45.5-11.5c-1.5-.3-3-.5-4.5-.7-12.4,6.1-26.3,9.5-41.1,9.5-51.5,0-93.2-41.8-93.2-93.2s41.7-93.2,93.2-93.2,93.2,41.7,93.2,93.2-2.9,26.3-8,37.9c.5-.3.9-.7,1.4-1,.9-.7,1.8-1.3,2.7-1.9,4.2-10.8,6.6-22.6,6.6-34.9,0-53-43-95.9-95.9-95.9ZM211.7,223.2c.6.7,1.1,1.4,1.7,2.1,1.2-1,2.4-2,3.6-3,.2-1.3.5-2.6.8-3.8,0-.3.1-.5.2-.8-2,1.9-4.1,3.8-6.2,5.6ZM152.9,54.9c-53,0-95.9,43-95.9,95.9s42.9,95.9,95.9,95.9,32-4.2,45.5-11.5c-1.5-.3-3-.5-4.5-.7-12.4,6.1-26.3,9.5-41.1,9.5-51.5,0-93.2-41.8-93.2-93.2s41.7-93.2,93.2-93.2,93.2,41.7,93.2,93.2-2.9,26.3-8,37.9c.5-.3.9-.7,1.4-1,.9-.7,1.8-1.3,2.7-1.9,4.2-10.8,6.6-22.6,6.6-34.9,0-53-43-95.9-95.9-95.9ZM211.7,223.2c.6.7,1.1,1.4,1.7,2.1,1.2-1,2.4-2,3.6-3,.2-1.3.5-2.6.8-3.8,0-.3.1-.5.2-.8-2,1.9-4.1,3.8-6.2,5.6ZM152.9,54.9c-53,0-95.9,43-95.9,95.9s42.9,95.9,95.9,95.9,32-4.2,45.5-11.5c-1.5-.3-3-.5-4.5-.7-12.4,6.1-26.3,9.5-41.1,9.5-51.5,0-93.2-41.8-93.2-93.2s41.7-93.2,93.2-93.2,93.2,41.7,93.2,93.2-2.9,26.3-8,37.9c.5-.3.9-.7,1.4-1,.9-.7,1.8-1.3,2.7-1.9,4.2-10.8,6.6-22.6,6.6-34.9,0-53-43-95.9-95.9-95.9ZM211.7,223.2c.6.7,1.1,1.4,1.7,2.1,1.2-1,2.4-2,3.6-3,.2-1.3.5-2.6.8-3.8,0-.3.1-.5.2-.8-2,1.9-4.1,3.8-6.2,5.6ZM152.9,54.9c-53,0-95.9,43-95.9,95.9s42.9,95.9,95.9,95.9,32-4.2,45.5-11.5c-1.5-.3-3-.5-4.5-.7-12.4,6.1-26.3,9.5-41.1,9.5-51.5,0-93.2-41.8-93.2-93.2s41.7-93.2,93.2-93.2,93.2,41.7,93.2,93.2-2.9,26.3-8,37.9c.5-.3.9-.7,1.4-1,.9-.7,1.8-1.3,2.7-1.9,4.2-10.8,6.6-22.6,6.6-34.9,0-53-43-95.9-95.9-95.9ZM211.7,223.2c.6.7,1.1,1.4,1.7,2.1,1.2-1,2.4-2,3.6-3,.2-1.3.5-2.6.8-3.8,0-.3.1-.5.2-.8-2,1.9-4.1,3.8-6.2,5.6ZM152.9,54.9c-53,0-95.9,43-95.9,95.9s42.9,95.9,95.9,95.9,32-4.2,45.5-11.5c-1.5-.3-3-.5-4.5-.7-12.4,6.1-26.3,9.5-41.1,9.5-51.5,0-93.2-41.8-93.2-93.2s41.7-93.2,93.2-93.2,93.2,41.7,93.2,93.2-2.9,26.3-8,37.9c.5-.3.9-.7,1.4-1,.9-.7,1.8-1.3,2.7-1.9,4.2-10.8,6.6-22.6,6.6-34.9,0-53-43-95.9-95.9-95.9ZM211.7,223.2c.6.7,1.1,1.4,1.7,2.1,1.2-1,2.4-2,3.6-3,.2-1.3.5-2.6.8-3.8,0-.3.1-.5.2-.8-2,1.9-4.1,3.8-6.2,5.6ZM152.9,54.9c-53,0-95.9,43-95.9,95.9s42.9,95.9,95.9,95.9,32-4.2,45.5-11.5c-1.5-.3-3-.5-4.5-.7-12.4,6.1-26.3,9.5-41.1,9.5-51.5,0-93.2-41.8-93.2-93.2s41.7-93.2,93.2-93.2,93.2,41.7,93.2,93.2-2.9,26.3-8,37.9c.5-.3.9-.7,1.4-1,.9-.7,1.8-1.3,2.7-1.9,4.2-10.8,6.6-22.6,6.6-34.9,0-53-43-95.9-95.9-95.9ZM152.9,54.9c-53,0-95.9,43-95.9,95.9s42.9,95.9,95.9,95.9,32-4.2,45.5-11.5c-1.5-.3-3-.5-4.5-.7-12.4,6.1-26.3,9.5-41.1,9.5-51.5,0-93.2-41.8-93.2-93.2s41.7-93.2,93.2-93.2,93.2,41.7,93.2,93.2-2.9,26.3-8,37.9c.5-.3.9-.7,1.4-1,.9-.7,1.8-1.3,2.7-1.9,4.2-10.8,6.6-22.6,6.6-34.9,0-53-43-95.9-95.9-95.9ZM211.7,223.2c.6.7,1.1,1.4,1.7,2.1,1.2-1,2.4-2,3.6-3,.2-1.3.5-2.6.8-3.8,0-.3.1-.5.2-.8-2,1.9-4.1,3.8-6.2,5.6ZM152.9,54.9c-53,0-95.9,43-95.9,95.9s42.9,95.9,95.9,95.9,32-4.2,45.5-11.5c-1.5-.3-3-.5-4.5-.7-12.4,6.1-26.3,9.5-41.1,9.5-51.5,0-93.2-41.8-93.2-93.2s41.7-93.2,93.2-93.2,93.2,41.7,93.2,93.2-2.9,26.3-8,37.9c.5-.3.9-.7,1.4-1,.9-.7,1.8-1.3,2.7-1.9,4.2-10.8,6.6-22.6,6.6-34.9,0-53-43-95.9-95.9-95.9ZM211.7,223.2c.6.7,1.1,1.4,1.7,2.1,1.2-1,2.4-2,3.6-3,.2-1.3.5-2.6.8-3.8,0-.3.1-.5.2-.8-2,1.9-4.1,3.8-6.2,5.6ZM152.9,54.9c-53,0-95.9,43-95.9,95.9s42.9,95.9,95.9,95.9,32-4.2,45.5-11.5c-1.5-.3-3-.5-4.5-.7-12.4,6.1-26.3,9.5-41.1,9.5-51.5,0-93.2-41.8-93.2-93.2s41.7-93.2,93.2-93.2,93.2,41.7,93.2,93.2-2.9,26.3-8,37.9c.5-.3.9-.7,1.4-1,.9-.7,1.8-1.3,2.7-1.9,4.2-10.8,6.6-22.6,6.6-34.9,0-53-43-95.9-95.9-95.9ZM211.7,223.2c.6.7,1.1,1.4,1.7,2.1,1.2-1,2.4-2,3.6-3,.2-1.3.5-2.6.8-3.8,0-.3.1-.5.2-.8-2,1.9-4.1,3.8-6.2,5.6ZM152.9,54.9c-53,0-95.9,43-95.9,95.9s42.9,95.9,95.9,95.9,32-4.2,45.5-11.5c-1.5-.3-3-.5-4.5-.7-12.4,6.1-26.3,9.5-41.1,9.5-51.5,0-93.2-41.8-93.2-93.2s41.7-93.2,93.2-93.2,93.2,41.7,93.2,93.2-2.9,26.3-8,37.9c.5-.3.9-.7,1.4-1,.9-.7,1.8-1.3,2.7-1.9,4.2-10.8,6.6-22.6,6.6-34.9,0-53-43-95.9-95.9-95.9ZM211.7,223.2c.6.7,1.1,1.4,1.7,2.1,1.2-1,2.4-2,3.6-3,.2-1.3.5-2.6.8-3.8,0-.3.1-.5.2-.8-2,1.9-4.1,3.8-6.2,5.6ZM152.9,54.9c-53,0-95.9,43-95.9,95.9s42.9,95.9,95.9,95.9,32-4.2,45.5-11.5c-1.5-.3-3-.5-4.5-.7-12.4,6.1-26.3,9.5-41.1,9.5-51.5,0-93.2-41.8-93.2-93.2s41.7-93.2,93.2-93.2,93.2,41.7,93.2,93.2-2.9,26.3-8,37.9c.5-.3.9-.7,1.4-1,.9-.7,1.8-1.3,2.7-1.9,4.2-10.8,6.6-22.6,6.6-34.9,0-53-43-95.9-95.9-95.9ZM211.7,223.2c.6.7,1.1,1.4,1.7,2.1,1.2-1,2.4-2,3.6-3,.2-1.3.5-2.6.8-3.8,0-.3.1-.5.2-.8-2,1.9-4.1,3.8-6.2,5.6ZM152.9,54.9c-53,0-95.9,43-95.9,95.9s42.9,95.9,95.9,95.9,32-4.2,45.5-11.5c-1.5-.3-3-.5-4.5-.7-12.4,6.1-26.3,9.5-41.1,9.5-51.5,0-93.2-41.8-93.2-93.2s41.7-93.2,93.2-93.2,93.2,41.7,93.2,93.2-2.9,26.3-8,37.9c.5-.3.9-.7,1.4-1,.9-.7,1.8-1.3,2.7-1.9,4.2-10.8,6.6-22.6,6.6-34.9,0-53-43-95.9-95.9-95.9ZM211.7,223.2c.6.7,1.1,1.4,1.7,2.1,1.2-1,2.4-2,3.6-3,.2-1.3.5-2.6.8-3.8,0-.3.1-.5.2-.8-2,1.9-4.1,3.8-6.2,5.6ZM152.9,54.9c-53,0-95.9,43-95.9,95.9s42.9,95.9,95.9,95.9,32-4.2,45.5-11.5c-1.5-.3-3-.5-4.5-.7-12.4,6.1-26.3,9.5-41.1,9.5-51.5,0-93.2-41.8-93.2-93.2s41.7-93.2,93.2-93.2,93.2,41.7,93.2,93.2-2.9,26.3-8,37.9c.5-.3.9-.7,1.4-1,.9-.7,1.8-1.3,2.7-1.9,4.2-10.8,6.6-22.6,6.6-34.9,0-53-43-95.9-95.9-95.9ZM211.7,223.2c.6.7,1.1,1.4,1.7,2.1,1.2-1,2.4-2,3.6-3,.2-1.3.5-2.6.8-3.8,0-.3.1-.5.2-.8-2,1.9-4.1,3.8-6.2,5.6Z"/>
          <path class="cls-1" d="M257.1,150.8c0,9.2-1.2,18.1-3.5,26.6-.4.3-.9.7-1.3,1-.5.4-.9.7-1.3,1,2.7-9.1,4.1-18.7,4.1-28.7,0-56.4-45.9-102.2-102.2-102.2s-102.2,45.9-102.2,102.2,45.9,102.2,102.2,102.2,39.1-5.9,55-16.1c.5,0,1,.2,1.5.3.3,0,.5.1.8.2.2,0,.4,0,.5,0-16.6,11.1-36.5,17.6-57.8,17.6-57.5,0-104.2-46.8-104.2-104.2s46.8-104.2,104.2-104.2,104.2,46.8,104.2,104.2Z"/>
          <path class="cls-1" d="M243.9,150.8c0,14.8-3.5,28.7-9.8,41.1-.7.6-1.4,1.2-2.1,1.8-.5.5-1,1-1.5,1.5-.4.4-.9.9-1.3,1.3,8.1-13.4,12.7-29,12.7-45.8,0-49.1-39.9-89-89-89s-89,39.9-89,89,39.9,89,89,89,22.8-2.2,33-6.3c.7,0,1.4.1,2.1.2.6,0,1.2.2,1.9.2-11.3,5.1-23.8,7.9-37,7.9-50.2,0-91-40.8-91-91s40.8-91,91-91,91,40.8,91,91Z"/>
          <path class="cls-1" d="M222,206.8c-.2.4-.4.8-.6,1.3-.4.8-.7,1.5-1,2.3-.4.8-.7,1.7-1,2.5-2.9,3-5.9,5.9-9.2,8.5-.2-.2-.4-.5-.7-.7-.2-.2-.5-.5-.7-.7,4.8-3.9,9.3-8.3,13.2-13.2Z"/>
        </g>
        <path class="cls-1" d="M211.7,223.2c.6.7,1.1,1.4,1.7,2.1,1.2-1,2.4-2,3.6-3,.2-1.3.5-2.6.8-3.8,0-.3.1-.5.2-.8-2,1.9-4.1,3.8-6.2,5.6ZM152.9,54.9c-53,0-95.9,43-95.9,95.9s42.9,95.9,95.9,95.9,32-4.2,45.5-11.5c-1.5-.3-3-.5-4.5-.7-12.4,6.1-26.3,9.5-41.1,9.5-51.5,0-93.2-41.8-93.2-93.2s41.7-93.2,93.2-93.2,93.2,41.7,93.2,93.2-2.9,26.3-8,37.9c.5-.3.9-.7,1.4-1,.9-.7,1.8-1.3,2.7-1.9,4.2-10.8,6.6-22.6,6.6-34.9,0-53-43-95.9-95.9-95.9Z"/>
        <g>
          <path class="cls-1" d="M222.4,131.5c-2.7-1.6-5.6-2.6-8.7-2.8-6.7-.4-13.5-.3-20.3,0-1,0-1.2.5-1.2,1.4,0,1.1.9,1,1.6,1.2,3.6.9,4.9,1.7,5,5.4,0,1.8,0,3.5,0,5.3,0,4.2.1,8.5-.1,12.7-.2,3-2.8,5.3-5.7,5-2.3-.3-4-1.5-4.9-3.7-1-2.5-2-5.1-2.9-7.7-1.2-3.3-2.4-6.6-3.6-9.9-1.3-3.4-2.5-6.9-3.8-10.3-.4-1.1-2.7-1.5-3.3-.5-1.3,2-3.2,3.2-5.2,4.3-.6.3-.6.6-.3,1.1.3.8.4,1.5,0,2.3-1.1,2.3-2.2,4.7-3.2,7-1.6,3.6-3.1,7.3-4.8,10.8-1.3,2.8-2.8,5.5-6.1,6.6-.7.2-.4.9-.5,1.3,0,.6.4.6.8.6,5,0,10,0,15,0,.4,0,.8-.1.9-.6,0-.5,0-1.1-.6-1.3-.3-.1-.6,0-1-.2-2.7-.7-4.2-1.5-3.8-4.8.1-1,.5-2,.7-3,.2-.9.6-1.1,1.4-1.1,2.5,0,5,0,7.5,0,.7,0,1,.2,1.2.9.4,1.7.9,3.4,1.3,5.1.3,1.4,0,2-1.3,2.6-.6.2-1.2.5-1.8.5-.9.1-1,.8-1,1.4,0,.5.6.6,1.1.6.8,0,1.6,0,2.4,0,13,0,25.9,0,38.9,0s1,0,1-.7c0-.5,0-1.1-.6-1.2-1.1-.2-2.1-.6-3.2-.7-2.6-.2-4.6-2.3-4.6-4.9,0-2,0-3.9,0-5.9,0-5.2,0-10.3,0-15.5,0-.9.3-1.3,1.3-1,1.5.6,2.8,1.4,3.7,2.8.8.7,1,1.2,1,2.2,0,0,0,.1,0,.2h0c0,.3,0,.6,0,.9.7,1.3.8,2.7,0,4,0,.2,0,.4-.1.5.1,1.5-.9,2.3-1.7,3.3-.5.6-1,1.2-1.8,1.6-.6.3-.5.8-.4,1.3,0,.5.5.5.9.6.7.1,1.4-.2,2.1.1.3,0,.5-.1.8-.2,2-.9,4.2-1.4,6-2.7,0,0,.3-.2.5,0,2.3-1.4,4.1-3.2,4.6-6,.6-3.3-.9-7.4-3.4-8.9ZM172.2,146.2c-1,0-1.9,0-2.9,0-.7,0-1.1-.3-.9-.9,1-2.6,1.5-5.3,2.9-7.7,0,0,0,0,.2,0,.8,2,1.5,4,2.3,6.1,0,.1,0,.2,0,.3.8,2.3.8,2.3-1.7,2.2Z"/>
          <path class="cls-1" d="M111.1,134.4c-2.1-2.3-4.2-4.4-7.3-5.4-2.6-.8-5.2-1.1-7.9-1.1-3,0-7,.6-9.8,2-4.9,2.4-8.6,5.8-9.8,11.4-1.1,5.1-.5,9.8,2.6,14.2,2.8,3.8,6.7,6,11.3,6.7,5,.8,10,.6,14.7-1.8,5.6-2.8,9.3-7,9.9-13.5.4-4.7-.5-9-3.7-12.6ZM102.4,154.4c-1.8,5-5.5,5.8-9.4,4.2-2.4-1-3.7-3.2-4.7-5.5-1.1-2.8-1.5-5.6-1.4-8.6-.2-3.4.3-6.6,1.9-9.6,2.2-4.4,8.6-4.9,11.5-.9,2.4,3.3,3.4,7.1,3.4,11.1,0,3.2-.3,6.3-1.4,9.3Z"/>
          <path class="cls-1" d="M153.8,149c-.3,2.2-1,4.4-1.5,6.5-.3,1.3-.8,2.5-1,3.8-.1.7-.5,1.2-1.1,1.5-2.1,1.1-4.3,1.8-6.7,1.8-2.5,0-4.9.2-7.4,0-4.8-.4-8.8-2.3-12.6-5.1-2.3-1.7-3.9-4-4.6-6.7-.5-2.1-.6-4.5-.4-6.8.4-5,3-8.9,6.7-11.8,2.3-1.8,5.1-3,8.1-3.6,3.6-.7,7.2-.7,10.8-.3,2.3.3,4.5.9,6.6,1.9.7.3,1,.8.9,1.5,0,1.5,0,3,0,4.6h0v4.3c0,.6.1,1.4-.9,1.3-.8,0-1.9.5-2.2-1-.4-2-1.2-3.9-2.4-5.6-3.4-5-10.7-5.1-14.1-.1-2.7,4-2.8,8.5-2.4,13.2.2,2.4.9,4.7,2.1,6.8,1.9,3.3,4.8,4.2,8.4,3.8,3.1-.3,5.5-2,7.2-4.6,1.2-1.8,2.3-3.6,3.2-5.6.5-1.3,1.9-1.6,3-.7.3.3.2.6.2.9Z"/>
        </g>
        <path class="cls-1" d="M276.8,179.2c0,4.6-.6,9.1-2.5,13.3-1.6,3.6-3.8,6.7-6.6,9.5-4.5,4.5-9.8,7.6-15.2,10.7-5.4,3-10.8,5.9-16.2,8.8-6,3.3-11.5,7.1-16.7,11.6-.3.2-.5.4-.7.4s-.4-.2-.7-.6c-.1-.2-.2-.5-.3-.7,0-.2,0-.5,0-.8s0-.3,0-.4c0-.5,0-.9,0-1.4.2-3.3.8-6.5,1.5-9.7,0-.3.1-.7.2-1,.3-1.4.7-2.9,1.2-4.2.6-1.9,1.4-3.8,2.3-5.6.2-.4.3-.7.5-1,1.9-3.7,4.3-7.1,7.1-10.1.3-.4.7-.8,1.1-1.1,1.4-1.4,2.8-2.7,4.3-3.9,1.4-1.2,3-2.3,4.5-3.4,0,0,0,0,.1-.1,2.8-2,5.6-3.9,8.4-5.9.3-.2.5-.4.8-.6.5-.3.9-.7,1.4-1,.4-.3.9-.7,1.3-1,5-3.8,9.6-8,13.3-13.2,2.2-3.2,4-6.5,5.5-10,.1-.3,0-.8.5-.8s0,0,0,0c.4,0,.6.4.7.8.6,2.1,1.4,4.2,1.9,6.4,1.1,4.3,1.9,8.7,2.1,13.2,0,.7,0,1.4,0,2Z"/>
        <g>
          <path class="cls-1" d="M216.7,236.4h0c-.2,0-.3,0-.1,0-.3,0-1.5-.2-3.4-.6-.4,0-.9-.2-1.3-.2-.5,0-.9-.2-1.4-.3-2.6-.5-5.8-1.1-9.1-1.7-1.4-.2-2.8-.5-4.2-.7-1.3-.2-2.5-.4-3.8-.6-.6,0-1.2-.2-1.7-.2-.6,0-1.3-.2-1.9-.2-1.8-.2-3.6-.4-5.1-.6-10.3-.8-20.6-5.1-25.3-14.8-2.5-5.3-3.4-10.8-4.2-16.6-.2-1.4,0-1.9.4-1.9.7,0,2.2,1.7,3.1,2.5,2,1.7,4.2,2.7,6.4,4,8.6,5.1,19.3,5.2,28.6,8.4,5,1.7,9.8,4.5,13.7,8.2.3.2.5.5.8.7.2.2.5.5.7.7.2.2.3.3.4.5.4.4.7.8,1.1,1.3.6.7,1.1,1.4,1.7,2.1,1,1.3,2,2.7,2.9,4.1.2.4.5.7.7,1.1.2.3.3.6.5.9.1.3.3.6.4.9.2.4.4.9.6,1.3.5,1.1.9,1.4-.2,1.6Z"/>
          <path class="cls-1" d="M216.7,236.4c0,0-.1,0-.2,0-.1,0,0,0,.1,0h0Z"/>
          <path class="cls-1" d="M216.6,236.4c-.2,0-.3,0-.1,0,0,0,.2,0,.2,0h0ZM216.6,236.4c-.2,0-.3,0-.1,0,0,0,.2,0,.2,0h0ZM216.6,236.4c-.2,0-.3,0-.1,0,0,0,.2,0,.2,0h0ZM216.6,236.4c-.2,0-.3,0-.1,0,0,0,.2,0,.2,0h0ZM216.6,236.4c-.2,0-.3,0-.1,0,0,0,.2,0,.2,0h0ZM216.6,236.4c-.2,0-.3,0-.1,0,0,0,.2,0,.2,0h0Z"/>
        </g>
      </g>
    </g>
  </g>
</svg>