<?xml version="1.0" encoding="UTF-8"?>
<svg xmlns="http://www.w3.org/2000/svg" version="1.1" viewBox="0 0 330 331">
  <defs>
    <style>
      .cls-1 {
        fill: #231f20;
      }

      .cls-2 {
        opacity: .3;
      }

      .cls-3, .cls-4 {
        fill: #fff;
      }

      .cls-4, .cls-5, .cls-6 {
        fill-rule: evenodd;
      }

      .cls-5 {
        fill: #e0c996;
      }

      .cls-6 {
        fill: #8fad3e;
      }
    </style>
  </defs>
  <!-- Generator: Adobe Illustrator 28.6.0, SVG Export Plug-In . SVG Version: 1.2.0 Build 709)  -->
  <g>
    <g id="Layer_1">
      <g>
        <path class="cls-3" d="M33,214.4c.6-.3,1.2-.6,1.8-.9-.7.3-1.2.6-1.8.9ZM33,214.4c.6-.3,1.2-.6,1.8-.9-.7.3-1.2.6-1.8.9ZM33,214.4c.6-.3,1.2-.6,1.8-.9-.7.3-1.2.6-1.8.9ZM33,214.4c.6-.3,1.2-.6,1.8-.9-.7.3-1.2.6-1.8.9ZM33,214.4c.6-.3,1.2-.6,1.8-.9-.7.3-1.2.6-1.8.9ZM33,214.4c.6-.3,1.2-.6,1.8-.9-.7.3-1.2.6-1.8.9ZM33,214.4c.6-.3,1.2-.6,1.8-.9-.7.3-1.2.6-1.8.9ZM33,214.4c.6-.3,1.2-.6,1.8-.9-.7.3-1.2.6-1.8.9ZM33,214.4c.6-.3,1.2-.6,1.8-.9-.7.3-1.2.6-1.8.9ZM33,214.4c.6-.3,1.2-.6,1.8-.9-.7.3-1.2.6-1.8.9ZM33,214.4c.6-.3,1.2-.6,1.8-.9-.7.3-1.2.6-1.8.9ZM33,214.4c.6-.3,1.2-.6,1.8-.9-.7.3-1.2.6-1.8.9ZM33,214.4c.6-.3,1.2-.6,1.8-.9-.7.3-1.2.6-1.8.9ZM33,214.4c.6-.3,1.2-.6,1.8-.9-.7.3-1.2.6-1.8.9ZM33,214.4c.6-.3,1.2-.6,1.8-.9-.7.3-1.2.6-1.8.9ZM33,214.4c.6-.3,1.2-.6,1.8-.9-.7.3-1.2.6-1.8.9ZM33,214.4c.6-.3,1.2-.6,1.8-.9-.7.3-1.2.6-1.8.9ZM33,214.4c.6-.3,1.2-.6,1.8-.9-.7.3-1.2.6-1.8.9ZM33,214.4c.6-.3,1.2-.6,1.8-.9-.7.3-1.2.6-1.8.9ZM33,214.4c.6-.3,1.2-.6,1.8-.9-.7.3-1.2.6-1.8.9ZM33,214.4c.6-.3,1.2-.6,1.8-.9-.7.3-1.2.6-1.8.9ZM33,214.4c.6-.3,1.2-.6,1.8-.9-.7.3-1.2.6-1.8.9ZM33,214.4c.6-.3,1.2-.6,1.8-.9-.7.3-1.2.6-1.8.9ZM33,214.4c.6-.3,1.2-.6,1.8-.9-.7.3-1.2.6-1.8.9ZM33,214.4c.6-.3,1.2-.6,1.8-.9-.7.3-1.2.6-1.8.9ZM33,214.4c.6-.3,1.2-.6,1.8-.9-.7.3-1.2.6-1.8.9ZM33,214.4c.6-.3,1.2-.6,1.8-.9-.7.3-1.2.6-1.8.9ZM33,214.4c.6-.3,1.2-.6,1.8-.9-.7.3-1.2.6-1.8.9ZM33,214.4c.6-.3,1.2-.6,1.8-.9-.7.3-1.2.6-1.8.9ZM33,214.4c.6-.3,1.2-.6,1.8-.9-.7.3-1.2.6-1.8.9ZM33,214.4c.6-.3,1.2-.6,1.8-.9-.7.3-1.2.6-1.8.9ZM33,214.4c.6-.3,1.2-.6,1.8-.9-.7.3-1.2.6-1.8.9ZM33,214.4c.6-.3,1.2-.6,1.8-.9-.7.3-1.2.6-1.8.9ZM33,214.4c.6-.3,1.2-.6,1.8-.9-.7.3-1.2.6-1.8.9ZM33,214.4c.6-.3,1.2-.6,1.8-.9-.7.3-1.2.6-1.8.9ZM33,214.4c.6-.3,1.2-.6,1.8-.9-.7.3-1.2.6-1.8.9ZM33,214.4c.6-.3,1.2-.6,1.8-.9-.7.3-1.2.6-1.8.9Z"/>
        <g>
          <g>
            <path class="cls-3" d="M68.7,220.8c-1.7,1.1-8.2,4.9-20.9,5.4-.9,0-1.9,0-2.9,0-5.2,0-13.7-1.6-15.5-5.1v-.7h.2c0-1.4.7-2.6,2-3.7,2-1.8,5.3-3.3,10-4.5,2.3-.6,4.8-1.1,7.7-1.6v10.3h.6c8.4-1,17.6-1.3,18.9-.2Z"/>
            <path class="cls-3" d="M68.8,208.7v11.1c-3.4-1.5-14.2-.5-18.6,0v-9.4c5.2-.8,11.5-1.4,18.6-1.8Z"/>
          </g>
          <path class="cls-3" d="M68.8,208.7v11.1c-3.4-1.5-14.2-.5-18.6,0v-9.4c5.2-.8,11.5-1.4,18.6-1.8Z"/>
          <g>
            <path class="cls-3" d="M92.5,191.7c-.2-.3-.6-.5-1-.5-.2,0-.9,0-2,0h-2.1s0,3.4,0,3.4h2c1.3,0,2.1,0,2.4-.1.3-.1.6-.3.8-.6.2-.3.3-.6.3-1,0-.5-.1-.8-.3-1.1ZM92.5,191.7c-.2-.3-.6-.5-1-.5-.2,0-.9,0-2,0h-2.1s0,3.4,0,3.4h2c1.3,0,2.1,0,2.4-.1.3-.1.6-.3.8-.6.2-.3.3-.6.3-1,0-.5-.1-.8-.3-1.1ZM92.5,191.7c-.2-.3-.6-.5-1-.5-.2,0-.9,0-2,0h-2.1s0,3.4,0,3.4h2c1.3,0,2.1,0,2.4-.1.3-.1.6-.3.8-.6.2-.3.3-.6.3-1,0-.5-.1-.8-.3-1.1ZM92.5,191.7c-.2-.3-.6-.5-1-.5-.2,0-.9,0-2,0h-2.1s0,3.4,0,3.4h2c1.3,0,2.1,0,2.4-.1.3-.1.6-.3.8-.6.2-.3.3-.6.3-1,0-.5-.1-.8-.3-1.1ZM92.5,191.7c-.2-.3-.6-.5-1-.5-.2,0-.9,0-2,0h-2.1s0,3.4,0,3.4h2c1.3,0,2.1,0,2.4-.1.3-.1.6-.3.8-.6.2-.3.3-.6.3-1,0-.5-.1-.8-.3-1.1ZM158.9,195.1c-.6-.8-1.4-1.3-2.6-1.4-1.1-.1-2,.2-2.8.9-.7.7-1.2,1.8-1.3,3.3-.2,1.5,0,2.7.7,3.5.6.8,1.4,1.3,2.5,1.4,1.1,0,2-.2,2.7-.9.8-.7,1.2-1.8,1.4-3.4.1-1.5,0-2.7-.7-3.5ZM158.9,195.1c-.6-.8-1.4-1.3-2.6-1.4-1.1-.1-2,.2-2.8.9-.7.7-1.2,1.8-1.3,3.3-.2,1.5,0,2.7.7,3.5.6.8,1.4,1.3,2.5,1.4,1.1,0,2-.2,2.7-.9.8-.7,1.2-1.8,1.4-3.4.1-1.5,0-2.7-.7-3.5ZM92.5,191.7c-.2-.3-.6-.5-1-.5-.2,0-.9,0-2,0h-2.1s0,3.4,0,3.4h2c1.3,0,2.1,0,2.4-.1.3-.1.6-.3.8-.6.2-.3.3-.6.3-1,0-.5-.1-.8-.3-1.1ZM92.5,191.7c-.2-.3-.6-.5-1-.5-.2,0-.9,0-2,0h-2.1s0,3.4,0,3.4h2c1.3,0,2.1,0,2.4-.1.3-.1.6-.3.8-.6.2-.3.3-.6.3-1,0-.5-.1-.8-.3-1.1ZM158.9,195.1c-.6-.8-1.4-1.3-2.6-1.4-1.1-.1-2,.2-2.8.9-.7.7-1.2,1.8-1.3,3.3-.2,1.5,0,2.7.7,3.5.6.8,1.4,1.3,2.5,1.4,1.1,0,2-.2,2.7-.9.8-.7,1.2-1.8,1.4-3.4.1-1.5,0-2.7-.7-3.5ZM187,198.1c-.6-.8-1.5-1.2-2.6-1.3-1.1,0-2,.2-2.8.9-.7.7-1.2,1.8-1.3,3.4-.1,1.5.1,2.7.8,3.5.6.8,1.5,1.3,2.6,1.4,1.1,0,2-.2,2.7-1,.7-.7,1.2-1.8,1.3-3.4.1-1.5-.1-2.7-.7-3.5ZM158.9,195.1c-.6-.8-1.4-1.3-2.6-1.4-1.1-.1-2,.2-2.8.9-.7.7-1.2,1.8-1.3,3.3-.2,1.5,0,2.7.7,3.5.6.8,1.4,1.3,2.5,1.4,1.1,0,2-.2,2.7-.9.8-.7,1.2-1.8,1.4-3.4.1-1.5,0-2.7-.7-3.5ZM92.5,191.7c-.2-.3-.6-.5-1-.5-.2,0-.9,0-2,0h-2.1s0,3.4,0,3.4h2c1.3,0,2.1,0,2.4-.1.3-.1.6-.3.8-.6.2-.3.3-.6.3-1,0-.5-.1-.8-.3-1.1ZM187,198.1c-.6-.8-1.5-1.2-2.6-1.3-1.1,0-2,.2-2.8.9-.7.7-1.2,1.8-1.3,3.4-.1,1.5.1,2.7.8,3.5.6.8,1.5,1.3,2.6,1.4,1.1,0,2-.2,2.7-1,.7-.7,1.2-1.8,1.3-3.4.1-1.5-.1-2.7-.7-3.5ZM92.5,191.7c-.2-.3-.6-.5-1-.5-.2,0-.9,0-2,0h-2.1s0,3.4,0,3.4h2c1.3,0,2.1,0,2.4-.1.3-.1.6-.3.8-.6.2-.3.3-.6.3-1,0-.5-.1-.8-.3-1.1ZM158.9,195.1c-.6-.8-1.4-1.3-2.6-1.4-1.1-.1-2,.2-2.8.9-.7.7-1.2,1.8-1.3,3.3-.2,1.5,0,2.7.7,3.5.6.8,1.4,1.3,2.5,1.4,1.1,0,2-.2,2.7-.9.8-.7,1.2-1.8,1.4-3.4.1-1.5,0-2.7-.7-3.5ZM187,198.1c-.6-.8-1.5-1.2-2.6-1.3-1.1,0-2,.2-2.8.9-.7.7-1.2,1.8-1.3,3.4-.1,1.5.1,2.7.8,3.5.6.8,1.5,1.3,2.6,1.4,1.1,0,2-.2,2.7-1,.7-.7,1.2-1.8,1.3-3.4.1-1.5-.1-2.7-.7-3.5ZM158.9,195.1c-.6-.8-1.4-1.3-2.6-1.4-1.1-.1-2,.2-2.8.9-.7.7-1.2,1.8-1.3,3.3-.2,1.5,0,2.7.7,3.5.6.8,1.4,1.3,2.5,1.4,1.1,0,2-.2,2.7-.9.8-.7,1.2-1.8,1.4-3.4.1-1.5,0-2.7-.7-3.5ZM92.5,191.7c-.2-.3-.6-.5-1-.5-.2,0-.9,0-2,0h-2.1s0,3.4,0,3.4h2c1.3,0,2.1,0,2.4-.1.3-.1.6-.3.8-.6.2-.3.3-.6.3-1,0-.5-.1-.8-.3-1.1ZM187,198.1c-.6-.8-1.5-1.2-2.6-1.3-1.1,0-2,.2-2.8.9-.7.7-1.2,1.8-1.3,3.4-.1,1.5.1,2.7.8,3.5.6.8,1.5,1.3,2.6,1.4,1.1,0,2-.2,2.7-1,.7-.7,1.2-1.8,1.3-3.4.1-1.5-.1-2.7-.7-3.5ZM92.5,191.7c-.2-.3-.6-.5-1-.5-.2,0-.9,0-2,0h-2.1s0,3.4,0,3.4h2c1.3,0,2.1,0,2.4-.1.3-.1.6-.3.8-.6.2-.3.3-.6.3-1,0-.5-.1-.8-.3-1.1ZM158.9,195.1c-.6-.8-1.4-1.3-2.6-1.4-1.1-.1-2,.2-2.8.9-.7.7-1.2,1.8-1.3,3.3-.2,1.5,0,2.7.7,3.5.6.8,1.4,1.3,2.5,1.4,1.1,0,2-.2,2.7-.9.8-.7,1.2-1.8,1.4-3.4.1-1.5,0-2.7-.7-3.5ZM187,198.1c-.6-.8-1.5-1.2-2.6-1.3-1.1,0-2,.2-2.8.9-.7.7-1.2,1.8-1.3,3.4-.1,1.5.1,2.7.8,3.5.6.8,1.5,1.3,2.6,1.4,1.1,0,2-.2,2.7-1,.7-.7,1.2-1.8,1.3-3.4.1-1.5-.1-2.7-.7-3.5ZM244.3,200.8c-.7-.8-1.5-1.2-2.6-1.2-1.1,0-2,.3-2.7,1.1-.7.7-1.1,1.9-1.1,3.4,0,1.5.3,2.7.9,3.5.7.8,1.6,1.2,2.6,1.2,1.1,0,2-.3,2.7-1.1.7-.8,1.1-1.9,1.1-3.4,0-1.5-.2-2.7-.9-3.5ZM158.9,195.1c-.6-.8-1.4-1.3-2.6-1.4-1.1-.1-2,.2-2.8.9-.7.7-1.2,1.8-1.3,3.3-.2,1.5,0,2.7.7,3.5.6.8,1.4,1.3,2.5,1.4,1.1,0,2-.2,2.7-.9.8-.7,1.2-1.8,1.4-3.4.1-1.5,0-2.7-.7-3.5ZM92.5,191.7c-.2-.3-.6-.5-1-.5-.2,0-.9,0-2,0h-2.1s0,3.4,0,3.4h2c1.3,0,2.1,0,2.4-.1.3-.1.6-.3.8-.6.2-.3.3-.6.3-1,0-.5-.1-.8-.3-1.1ZM187,198.1c-.6-.8-1.5-1.2-2.6-1.3-1.1,0-2,.2-2.8.9-.7.7-1.2,1.8-1.3,3.4-.1,1.5.1,2.7.8,3.5.6.8,1.5,1.3,2.6,1.4,1.1,0,2-.2,2.7-1,.7-.7,1.2-1.8,1.3-3.4.1-1.5-.1-2.7-.7-3.5ZM244.3,200.8c-.7-.8-1.5-1.2-2.6-1.2-1.1,0-2,.3-2.7,1.1-.7.7-1.1,1.9-1.1,3.4,0,1.5.3,2.7.9,3.5.7.8,1.6,1.2,2.6,1.2,1.1,0,2-.3,2.7-1.1.7-.8,1.1-1.9,1.1-3.4,0-1.5-.2-2.7-.9-3.5ZM92.5,191.7c-.2-.3-.6-.5-1-.5-.2,0-.9,0-2,0h-2.1s0,3.4,0,3.4h2c1.3,0,2.1,0,2.4-.1.3-.1.6-.3.8-.6.2-.3.3-.6.3-1,0-.5-.1-.8-.3-1.1ZM158.9,195.1c-.6-.8-1.4-1.3-2.6-1.4-1.1-.1-2,.2-2.8.9-.7.7-1.2,1.8-1.3,3.3-.2,1.5,0,2.7.7,3.5.6.8,1.4,1.3,2.5,1.4,1.1,0,2-.2,2.7-.9.8-.7,1.2-1.8,1.4-3.4.1-1.5,0-2.7-.7-3.5ZM187,198.1c-.6-.8-1.5-1.2-2.6-1.3-1.1,0-2,.2-2.8.9-.7.7-1.2,1.8-1.3,3.4-.1,1.5.1,2.7.8,3.5.6.8,1.5,1.3,2.6,1.4,1.1,0,2-.2,2.7-1,.7-.7,1.2-1.8,1.3-3.4.1-1.5-.1-2.7-.7-3.5ZM244.3,200.8c-.7-.8-1.5-1.2-2.6-1.2-1.1,0-2,.3-2.7,1.1-.7.7-1.1,1.9-1.1,3.4,0,1.5.3,2.7.9,3.5.7.8,1.6,1.2,2.6,1.2,1.1,0,2-.3,2.7-1.1.7-.8,1.1-1.9,1.1-3.4,0-1.5-.2-2.7-.9-3.5ZM158.9,195.1c-.6-.8-1.4-1.3-2.6-1.4-1.1-.1-2,.2-2.8.9-.7.7-1.2,1.8-1.3,3.3-.2,1.5,0,2.7.7,3.5.6.8,1.4,1.3,2.5,1.4,1.1,0,2-.2,2.7-.9.8-.7,1.2-1.8,1.4-3.4.1-1.5,0-2.7-.7-3.5ZM92.5,191.7c-.2-.3-.6-.5-1-.5-.2,0-.9,0-2,0h-2.1s0,3.4,0,3.4h2c1.3,0,2.1,0,2.4-.1.3-.1.6-.3.8-.6.2-.3.3-.6.3-1,0-.5-.1-.8-.3-1.1ZM187,198.1c-.6-.8-1.5-1.2-2.6-1.3-1.1,0-2,.2-2.8.9-.7.7-1.2,1.8-1.3,3.4-.1,1.5.1,2.7.8,3.5.6.8,1.5,1.3,2.6,1.4,1.1,0,2-.2,2.7-1,.7-.7,1.2-1.8,1.3-3.4.1-1.5-.1-2.7-.7-3.5ZM244.3,200.8c-.7-.8-1.5-1.2-2.6-1.2-1.1,0-2,.3-2.7,1.1-.7.7-1.1,1.9-1.1,3.4,0,1.5.3,2.7.9,3.5.7.8,1.6,1.2,2.6,1.2,1.1,0,2-.3,2.7-1.1.7-.8,1.1-1.9,1.1-3.4,0-1.5-.2-2.7-.9-3.5ZM92.5,191.7c-.2-.3-.6-.5-1-.5-.2,0-.9,0-2,0h-2.1s0,3.4,0,3.4h2c1.3,0,2.1,0,2.4-.1.3-.1.6-.3.8-.6.2-.3.3-.6.3-1,0-.5-.1-.8-.3-1.1ZM158.9,195.1c-.6-.8-1.4-1.3-2.6-1.4-1.1-.1-2,.2-2.8.9-.7.7-1.2,1.8-1.3,3.3-.2,1.5,0,2.7.7,3.5.6.8,1.4,1.3,2.5,1.4,1.1,0,2-.2,2.7-.9.8-.7,1.2-1.8,1.4-3.4.1-1.5,0-2.7-.7-3.5ZM187,198.1c-.6-.8-1.5-1.2-2.6-1.3-1.1,0-2,.2-2.8.9-.7.7-1.2,1.8-1.3,3.4-.1,1.5.1,2.7.8,3.5.6.8,1.5,1.3,2.6,1.4,1.1,0,2-.2,2.7-1,.7-.7,1.2-1.8,1.3-3.4.1-1.5-.1-2.7-.7-3.5ZM244.3,200.8c-.7-.8-1.5-1.2-2.6-1.2-1.1,0-2,.3-2.7,1.1-.7.7-1.1,1.9-1.1,3.4,0,1.5.3,2.7.9,3.5.7.8,1.6,1.2,2.6,1.2,1.1,0,2-.3,2.7-1.1.7-.8,1.1-1.9,1.1-3.4,0-1.5-.2-2.7-.9-3.5ZM158.9,195.1c-.6-.8-1.4-1.3-2.6-1.4-1.1-.1-2,.2-2.8.9-.7.7-1.2,1.8-1.3,3.3-.2,1.5,0,2.7.7,3.5.6.8,1.4,1.3,2.5,1.4,1.1,0,2-.2,2.7-.9.8-.7,1.2-1.8,1.4-3.4.1-1.5,0-2.7-.7-3.5ZM92.5,191.7c-.2-.3-.6-.5-1-.5-.2,0-.9,0-2,0h-2.1s0,3.4,0,3.4h2c1.3,0,2.1,0,2.4-.1.3-.1.6-.3.8-.6.2-.3.3-.6.3-1,0-.5-.1-.8-.3-1.1ZM187,198.1c-.6-.8-1.5-1.2-2.6-1.3-1.1,0-2,.2-2.8.9-.7.7-1.2,1.8-1.3,3.4-.1,1.5.1,2.7.8,3.5.6.8,1.5,1.3,2.6,1.4,1.1,0,2-.2,2.7-1,.7-.7,1.2-1.8,1.3-3.4.1-1.5-.1-2.7-.7-3.5ZM244.3,200.8c-.7-.8-1.5-1.2-2.6-1.2-1.1,0-2,.3-2.7,1.1-.7.7-1.1,1.9-1.1,3.4,0,1.5.3,2.7.9,3.5.7.8,1.6,1.2,2.6,1.2,1.1,0,2-.3,2.7-1.1.7-.8,1.1-1.9,1.1-3.4,0-1.5-.2-2.7-.9-3.5ZM92.5,191.7c-.2-.3-.6-.5-1-.5-.2,0-.9,0-2,0h-2.1s0,3.4,0,3.4h2c1.3,0,2.1,0,2.4-.1.3-.1.6-.3.8-.6.2-.3.3-.6.3-1,0-.5-.1-.8-.3-1.1ZM158.9,195.1c-.6-.8-1.4-1.3-2.6-1.4-1.1-.1-2,.2-2.8.9-.7.7-1.2,1.8-1.3,3.3-.2,1.5,0,2.7.7,3.5.6.8,1.4,1.3,2.5,1.4,1.1,0,2-.2,2.7-.9.8-.7,1.2-1.8,1.4-3.4.1-1.5,0-2.7-.7-3.5ZM187,198.1c-.6-.8-1.5-1.2-2.6-1.3-1.1,0-2,.2-2.8.9-.7.7-1.2,1.8-1.3,3.4-.1,1.5.1,2.7.8,3.5.6.8,1.5,1.3,2.6,1.4,1.1,0,2-.2,2.7-1,.7-.7,1.2-1.8,1.3-3.4.1-1.5-.1-2.7-.7-3.5ZM244.3,200.8c-.7-.8-1.5-1.2-2.6-1.2-1.1,0-2,.3-2.7,1.1-.7.7-1.1,1.9-1.1,3.4,0,1.5.3,2.7.9,3.5.7.8,1.6,1.2,2.6,1.2,1.1,0,2-.3,2.7-1.1.7-.8,1.1-1.9,1.1-3.4,0-1.5-.2-2.7-.9-3.5ZM244.3,200.8c-.7-.8-1.5-1.2-2.6-1.2-1.1,0-2,.3-2.7,1.1-.7.7-1.1,1.9-1.1,3.4,0,1.5.3,2.7.9,3.5.7.8,1.6,1.2,2.6,1.2,1.1,0,2-.3,2.7-1.1.7-.8,1.1-1.9,1.1-3.4,0-1.5-.2-2.7-.9-3.5ZM187,198.1c-.6-.8-1.5-1.2-2.6-1.3-1.1,0-2,.2-2.8.9-.7.7-1.2,1.8-1.3,3.4-.1,1.5.1,2.7.8,3.5.6.8,1.5,1.3,2.6,1.4,1.1,0,2-.2,2.7-1,.7-.7,1.2-1.8,1.3-3.4.1-1.5-.1-2.7-.7-3.5ZM158.9,195.1c-.6-.8-1.4-1.3-2.6-1.4-1.1-.1-2,.2-2.8.9-.7.7-1.2,1.8-1.3,3.3-.2,1.5,0,2.7.7,3.5.6.8,1.4,1.3,2.5,1.4,1.1,0,2-.2,2.7-.9.8-.7,1.2-1.8,1.4-3.4.1-1.5,0-2.7-.7-3.5ZM92.5,191.7c-.2-.3-.6-.5-1-.5-.2,0-.9,0-2,0h-2.1s0,3.4,0,3.4h2c1.3,0,2.1,0,2.4-.1.3-.1.6-.3.8-.6.2-.3.3-.6.3-1,0-.5-.1-.8-.3-1.1ZM92.5,191.7c-.2-.3-.6-.5-1-.5-.2,0-.9,0-2,0h-2.1s0,3.4,0,3.4h2c1.3,0,2.1,0,2.4-.1.3-.1.6-.3.8-.6.2-.3.3-.6.3-1,0-.5-.1-.8-.3-1.1ZM158.9,195.1c-.6-.8-1.4-1.3-2.6-1.4-1.1-.1-2,.2-2.8.9-.7.7-1.2,1.8-1.3,3.3-.2,1.5,0,2.7.7,3.5.6.8,1.4,1.3,2.5,1.4,1.1,0,2-.2,2.7-.9.8-.7,1.2-1.8,1.4-3.4.1-1.5,0-2.7-.7-3.5ZM187,198.1c-.6-.8-1.5-1.2-2.6-1.3-1.1,0-2,.2-2.8.9-.7.7-1.2,1.8-1.3,3.4-.1,1.5.1,2.7.8,3.5.6.8,1.5,1.3,2.6,1.4,1.1,0,2-.2,2.7-1,.7-.7,1.2-1.8,1.3-3.4.1-1.5-.1-2.7-.7-3.5ZM244.3,200.8c-.7-.8-1.5-1.2-2.6-1.2-1.1,0-2,.3-2.7,1.1-.7.7-1.1,1.9-1.1,3.4,0,1.5.3,2.7.9,3.5.7.8,1.6,1.2,2.6,1.2,1.1,0,2-.3,2.7-1.1.7-.8,1.1-1.9,1.1-3.4,0-1.5-.2-2.7-.9-3.5ZM244.3,200.8c-.7-.8-1.5-1.2-2.6-1.2-1.1,0-2,.3-2.7,1.1-.7.7-1.1,1.9-1.1,3.4,0,1.5.3,2.7.9,3.5.7.8,1.6,1.2,2.6,1.2,1.1,0,2-.3,2.7-1.1.7-.8,1.1-1.9,1.1-3.4,0-1.5-.2-2.7-.9-3.5ZM187,198.1c-.6-.8-1.5-1.2-2.6-1.3-1.1,0-2,.2-2.8.9-.7.7-1.2,1.8-1.3,3.4-.1,1.5.1,2.7.8,3.5.6.8,1.5,1.3,2.6,1.4,1.1,0,2-.2,2.7-1,.7-.7,1.2-1.8,1.3-3.4.1-1.5-.1-2.7-.7-3.5ZM158.9,195.1c-.6-.8-1.4-1.3-2.6-1.4-1.1-.1-2,.2-2.8.9-.7.7-1.2,1.8-1.3,3.3-.2,1.5,0,2.7.7,3.5.6.8,1.4,1.3,2.5,1.4,1.1,0,2-.2,2.7-.9.8-.7,1.2-1.8,1.4-3.4.1-1.5,0-2.7-.7-3.5ZM92.5,191.7c-.2-.3-.6-.5-1-.5-.2,0-.9,0-2,0h-2.1s0,3.4,0,3.4h2c1.3,0,2.1,0,2.4-.1.3-.1.6-.3.8-.6.2-.3.3-.6.3-1,0-.5-.1-.8-.3-1.1ZM92.5,191.7c-.2-.3-.6-.5-1-.5-.2,0-.9,0-2,0h-2.1s0,3.4,0,3.4h2c1.3,0,2.1,0,2.4-.1.3-.1.6-.3.8-.6.2-.3.3-.6.3-1,0-.5-.1-.8-.3-1.1ZM158.9,195.1c-.6-.8-1.4-1.3-2.6-1.4-1.1-.1-2,.2-2.8.9-.7.7-1.2,1.8-1.3,3.3-.2,1.5,0,2.7.7,3.5.6.8,1.4,1.3,2.5,1.4,1.1,0,2-.2,2.7-.9.8-.7,1.2-1.8,1.4-3.4.1-1.5,0-2.7-.7-3.5ZM187,198.1c-.6-.8-1.5-1.2-2.6-1.3-1.1,0-2,.2-2.8.9-.7.7-1.2,1.8-1.3,3.4-.1,1.5.1,2.7.8,3.5.6.8,1.5,1.3,2.6,1.4,1.1,0,2-.2,2.7-1,.7-.7,1.2-1.8,1.3-3.4.1-1.5-.1-2.7-.7-3.5ZM244.3,200.8c-.7-.8-1.5-1.2-2.6-1.2-1.1,0-2,.3-2.7,1.1-.7.7-1.1,1.9-1.1,3.4,0,1.5.3,2.7.9,3.5.7.8,1.6,1.2,2.6,1.2,1.1,0,2-.3,2.7-1.1.7-.8,1.1-1.9,1.1-3.4,0-1.5-.2-2.7-.9-3.5ZM244.3,200.8c-.7-.8-1.5-1.2-2.6-1.2-1.1,0-2,.3-2.7,1.1-.7.7-1.1,1.9-1.1,3.4,0,1.5.3,2.7.9,3.5.7.8,1.6,1.2,2.6,1.2,1.1,0,2-.3,2.7-1.1.7-.8,1.1-1.9,1.1-3.4,0-1.5-.2-2.7-.9-3.5ZM187,198.1c-.6-.8-1.5-1.2-2.6-1.3-1.1,0-2,.2-2.8.9-.7.7-1.2,1.8-1.3,3.4-.1,1.5.1,2.7.8,3.5.6.8,1.5,1.3,2.6,1.4,1.1,0,2-.2,2.7-1,.7-.7,1.2-1.8,1.3-3.4.1-1.5-.1-2.7-.7-3.5ZM158.9,195.1c-.6-.8-1.4-1.3-2.6-1.4-1.1-.1-2,.2-2.8.9-.7.7-1.2,1.8-1.3,3.3-.2,1.5,0,2.7.7,3.5.6.8,1.4,1.3,2.5,1.4,1.1,0,2-.2,2.7-.9.8-.7,1.2-1.8,1.4-3.4.1-1.5,0-2.7-.7-3.5ZM92.5,191.7c-.2-.3-.6-.5-1-.5-.2,0-.9,0-2,0h-2.1s0,3.4,0,3.4h2c1.3,0,2.1,0,2.4-.1.3-.1.6-.3.8-.6.2-.3.3-.6.3-1,0-.5-.1-.8-.3-1.1ZM33,214.4c.6-.3,1.2-.6,1.8-.9-.7.3-1.2.6-1.8.9ZM244.3,200.8c-.7-.8-1.5-1.2-2.6-1.2-1.1,0-2,.3-2.7,1.1-.7.7-1.1,1.9-1.1,3.4,0,1.5.3,2.7.9,3.5.7.8,1.6,1.2,2.6,1.2,1.1,0,2-.3,2.7-1.1.7-.8,1.1-1.9,1.1-3.4,0-1.5-.2-2.7-.9-3.5ZM187,198.1c-.6-.8-1.5-1.2-2.6-1.3-1.1,0-2,.2-2.8.9-.7.7-1.2,1.8-1.3,3.4-.1,1.5.1,2.7.8,3.5.6.8,1.5,1.3,2.6,1.4,1.1,0,2-.2,2.7-1,.7-.7,1.2-1.8,1.3-3.4.1-1.5-.1-2.7-.7-3.5ZM158.9,195.1c-.6-.8-1.4-1.3-2.6-1.4-1.1-.1-2,.2-2.8.9-.7.7-1.2,1.8-1.3,3.3-.2,1.5,0,2.7.7,3.5.6.8,1.4,1.3,2.5,1.4,1.1,0,2-.2,2.7-.9.8-.7,1.2-1.8,1.4-3.4.1-1.5,0-2.7-.7-3.5ZM92.5,191.7c-.2-.3-.6-.5-1-.5-.2,0-.9,0-2,0h-2.1s0,3.4,0,3.4h2c1.3,0,2.1,0,2.4-.1.3-.1.6-.3.8-.6.2-.3.3-.6.3-1,0-.5-.1-.8-.3-1.1ZM92.5,191.7c-.2-.3-.6-.5-1-.5-.2,0-.9,0-2,0h-2.1s0,3.4,0,3.4h2c1.3,0,2.1,0,2.4-.1.3-.1.6-.3.8-.6.2-.3.3-.6.3-1,0-.5-.1-.8-.3-1.1ZM158.9,195.1c-.6-.8-1.4-1.3-2.6-1.4-1.1-.1-2,.2-2.8.9-.7.7-1.2,1.8-1.3,3.3-.2,1.5,0,2.7.7,3.5.6.8,1.4,1.3,2.5,1.4,1.1,0,2-.2,2.7-.9.8-.7,1.2-1.8,1.4-3.4.1-1.5,0-2.7-.7-3.5ZM187,198.1c-.6-.8-1.5-1.2-2.6-1.3-1.1,0-2,.2-2.8.9-.7.7-1.2,1.8-1.3,3.4-.1,1.5.1,2.7.8,3.5.6.8,1.5,1.3,2.6,1.4,1.1,0,2-.2,2.7-1,.7-.7,1.2-1.8,1.3-3.4.1-1.5-.1-2.7-.7-3.5ZM244.3,200.8c-.7-.8-1.5-1.2-2.6-1.2-1.1,0-2,.3-2.7,1.1-.7.7-1.1,1.9-1.1,3.4,0,1.5.3,2.7.9,3.5.7.8,1.6,1.2,2.6,1.2,1.1,0,2-.3,2.7-1.1.7-.8,1.1-1.9,1.1-3.4,0-1.5-.2-2.7-.9-3.5ZM244.3,200.8c-.7-.8-1.5-1.2-2.6-1.2-1.1,0-2,.3-2.7,1.1-.7.7-1.1,1.9-1.1,3.4,0,1.5.3,2.7.9,3.5.7.8,1.6,1.2,2.6,1.2,1.1,0,2-.3,2.7-1.1.7-.8,1.1-1.9,1.1-3.4,0-1.5-.2-2.7-.9-3.5ZM187,198.1c-.6-.8-1.5-1.2-2.6-1.3-1.1,0-2,.2-2.8.9-.7.7-1.2,1.8-1.3,3.4-.1,1.5.1,2.7.8,3.5.6.8,1.5,1.3,2.6,1.4,1.1,0,2-.2,2.7-1,.7-.7,1.2-1.8,1.3-3.4.1-1.5-.1-2.7-.7-3.5ZM158.9,195.1c-.6-.8-1.4-1.3-2.6-1.4-1.1-.1-2,.2-2.8.9-.7.7-1.2,1.8-1.3,3.3-.2,1.5,0,2.7.7,3.5.6.8,1.4,1.3,2.5,1.4,1.1,0,2-.2,2.7-.9.8-.7,1.2-1.8,1.4-3.4.1-1.5,0-2.7-.7-3.5ZM92.5,191.7c-.2-.3-.6-.5-1-.5-.2,0-.9,0-2,0h-2.1s0,3.4,0,3.4h2c1.3,0,2.1,0,2.4-.1.3-.1.6-.3.8-.6.2-.3.3-.6.3-1,0-.5-.1-.8-.3-1.1ZM92.5,191.7c-.2-.3-.6-.5-1-.5-.2,0-.9,0-2,0h-2.1s0,3.4,0,3.4h2c1.3,0,2.1,0,2.4-.1.3-.1.6-.3.8-.6.2-.3.3-.6.3-1,0-.5-.1-.8-.3-1.1ZM158.9,195.1c-.6-.8-1.4-1.3-2.6-1.4-1.1-.1-2,.2-2.8.9-.7.7-1.2,1.8-1.3,3.3-.2,1.5,0,2.7.7,3.5.6.8,1.4,1.3,2.5,1.4,1.1,0,2-.2,2.7-.9.8-.7,1.2-1.8,1.4-3.4.1-1.5,0-2.7-.7-3.5ZM187,198.1c-.6-.8-1.5-1.2-2.6-1.3-1.1,0-2,.2-2.8.9-.7.7-1.2,1.8-1.3,3.4-.1,1.5.1,2.7.8,3.5.6.8,1.5,1.3,2.6,1.4,1.1,0,2-.2,2.7-1,.7-.7,1.2-1.8,1.3-3.4.1-1.5-.1-2.7-.7-3.5ZM244.3,200.8c-.7-.8-1.5-1.2-2.6-1.2-1.1,0-2,.3-2.7,1.1-.7.7-1.1,1.9-1.1,3.4,0,1.5.3,2.7.9,3.5.7.8,1.6,1.2,2.6,1.2,1.1,0,2-.3,2.7-1.1.7-.8,1.1-1.9,1.1-3.4,0-1.5-.2-2.7-.9-3.5ZM244.3,200.8c-.7-.8-1.5-1.2-2.6-1.2-1.1,0-2,.3-2.7,1.1-.7.7-1.1,1.9-1.1,3.4,0,1.5.3,2.7.9,3.5.7.8,1.6,1.2,2.6,1.2,1.1,0,2-.3,2.7-1.1.7-.8,1.1-1.9,1.1-3.4,0-1.5-.2-2.7-.9-3.5ZM187,198.1c-.6-.8-1.5-1.2-2.6-1.3-1.1,0-2,.2-2.8.9-.7.7-1.2,1.8-1.3,3.4-.1,1.5.1,2.7.8,3.5.6.8,1.5,1.3,2.6,1.4,1.1,0,2-.2,2.7-1,.7-.7,1.2-1.8,1.3-3.4.1-1.5-.1-2.7-.7-3.5ZM158.9,195.1c-.6-.8-1.4-1.3-2.6-1.4-1.1-.1-2,.2-2.8.9-.7.7-1.2,1.8-1.3,3.3-.2,1.5,0,2.7.7,3.5.6.8,1.4,1.3,2.5,1.4,1.1,0,2-.2,2.7-.9.8-.7,1.2-1.8,1.4-3.4.1-1.5,0-2.7-.7-3.5ZM92.5,191.7c-.2-.3-.6-.5-1-.5-.2,0-.9,0-2,0h-2.1s0,3.4,0,3.4h2c1.3,0,2.1,0,2.4-.1.3-.1.6-.3.8-.6.2-.3.3-.6.3-1,0-.5-.1-.8-.3-1.1ZM92.5,191.7c-.2-.3-.6-.5-1-.5-.2,0-.9,0-2,0h-2.1s0,3.4,0,3.4h2c1.3,0,2.1,0,2.4-.1.3-.1.6-.3.8-.6.2-.3.3-.6.3-1,0-.5-.1-.8-.3-1.1ZM158.9,195.1c-.6-.8-1.4-1.3-2.6-1.4-1.1-.1-2,.2-2.8.9-.7.7-1.2,1.8-1.3,3.3-.2,1.5,0,2.7.7,3.5.6.8,1.4,1.3,2.5,1.4,1.1,0,2-.2,2.7-.9.8-.7,1.2-1.8,1.4-3.4.1-1.5,0-2.7-.7-3.5ZM187,198.1c-.6-.8-1.5-1.2-2.6-1.3-1.1,0-2,.2-2.8.9-.7.7-1.2,1.8-1.3,3.4-.1,1.5.1,2.7.8,3.5.6.8,1.5,1.3,2.6,1.4,1.1,0,2-.2,2.7-1,.7-.7,1.2-1.8,1.3-3.4.1-1.5-.1-2.7-.7-3.5ZM244.3,200.8c-.7-.8-1.5-1.2-2.6-1.2-1.1,0-2,.3-2.7,1.1-.7.7-1.1,1.9-1.1,3.4,0,1.5.3,2.7.9,3.5.7.8,1.6,1.2,2.6,1.2,1.1,0,2-.3,2.7-1.1.7-.8,1.1-1.9,1.1-3.4,0-1.5-.2-2.7-.9-3.5ZM244.3,200.8c-.7-.8-1.5-1.2-2.6-1.2-1.1,0-2,.3-2.7,1.1-.7.7-1.1,1.9-1.1,3.4,0,1.5.3,2.7.9,3.5.7.8,1.6,1.2,2.6,1.2,1.1,0,2-.3,2.7-1.1.7-.8,1.1-1.9,1.1-3.4,0-1.5-.2-2.7-.9-3.5ZM187,198.1c-.6-.8-1.5-1.2-2.6-1.3-1.1,0-2,.2-2.8.9-.7.7-1.2,1.8-1.3,3.4-.1,1.5.1,2.7.8,3.5.6.8,1.5,1.3,2.6,1.4,1.1,0,2-.2,2.7-1,.7-.7,1.2-1.8,1.3-3.4.1-1.5-.1-2.7-.7-3.5ZM158.9,195.1c-.6-.8-1.4-1.3-2.6-1.4-1.1-.1-2,.2-2.8.9-.7.7-1.2,1.8-1.3,3.3-.2,1.5,0,2.7.7,3.5.6.8,1.4,1.3,2.5,1.4,1.1,0,2-.2,2.7-.9.8-.7,1.2-1.8,1.4-3.4.1-1.5,0-2.7-.7-3.5ZM92.5,191.7c-.2-.3-.6-.5-1-.5-.2,0-.9,0-2,0h-2.1s0,3.4,0,3.4h2c1.3,0,2.1,0,2.4-.1.3-.1.6-.3.8-.6.2-.3.3-.6.3-1,0-.5-.1-.8-.3-1.1ZM244.3,200.8c-.7-.8-1.5-1.2-2.6-1.2-1.1,0-2,.3-2.7,1.1-.7.7-1.1,1.9-1.1,3.4,0,1.5.3,2.7.9,3.5.7.8,1.6,1.2,2.6,1.2,1.1,0,2-.3,2.7-1.1.7-.8,1.1-1.9,1.1-3.4,0-1.5-.2-2.7-.9-3.5ZM187,198.1c-.6-.8-1.5-1.2-2.6-1.3-1.1,0-2,.2-2.8.9-.7.7-1.2,1.8-1.3,3.4-.1,1.5.1,2.7.8,3.5.6.8,1.5,1.3,2.6,1.4,1.1,0,2-.2,2.7-1,.7-.7,1.2-1.8,1.3-3.4.1-1.5-.1-2.7-.7-3.5ZM92.5,191.7c-.2-.3-.6-.5-1-.5-.2,0-.9,0-2,0h-2.1s0,3.4,0,3.4h2c1.3,0,2.1,0,2.4-.1.3-.1.6-.3.8-.6.2-.3.3-.6.3-1,0-.5-.1-.8-.3-1.1ZM158.9,195.1c-.6-.8-1.4-1.3-2.6-1.4-1.1-.1-2,.2-2.8.9-.7.7-1.2,1.8-1.3,3.3-.2,1.5,0,2.7.7,3.5.6.8,1.4,1.3,2.5,1.4,1.1,0,2-.2,2.7-.9.8-.7,1.2-1.8,1.4-3.4.1-1.5,0-2.7-.7-3.5ZM244.3,200.8c-.7-.8-1.5-1.2-2.6-1.2-1.1,0-2,.3-2.7,1.1-.7.7-1.1,1.9-1.1,3.4,0,1.5.3,2.7.9,3.5.7.8,1.6,1.2,2.6,1.2,1.1,0,2-.3,2.7-1.1.7-.8,1.1-1.9,1.1-3.4,0-1.5-.2-2.7-.9-3.5ZM187,198.1c-.6-.8-1.5-1.2-2.6-1.3-1.1,0-2,.2-2.8.9-.7.7-1.2,1.8-1.3,3.4-.1,1.5.1,2.7.8,3.5.6.8,1.5,1.3,2.6,1.4,1.1,0,2-.2,2.7-1,.7-.7,1.2-1.8,1.3-3.4.1-1.5-.1-2.7-.7-3.5ZM158.9,195.1c-.6-.8-1.4-1.3-2.6-1.4-1.1-.1-2,.2-2.8.9-.7.7-1.2,1.8-1.3,3.3-.2,1.5,0,2.7.7,3.5.6.8,1.4,1.3,2.5,1.4,1.1,0,2-.2,2.7-.9.8-.7,1.2-1.8,1.4-3.4.1-1.5,0-2.7-.7-3.5ZM92.5,191.7c-.2-.3-.6-.5-1-.5-.2,0-.9,0-2,0h-2.1s0,3.4,0,3.4h2c1.3,0,2.1,0,2.4-.1.3-.1.6-.3.8-.6.2-.3.3-.6.3-1,0-.5-.1-.8-.3-1.1ZM244.3,200.8c-.7-.8-1.5-1.2-2.6-1.2-1.1,0-2,.3-2.7,1.1-.7.7-1.1,1.9-1.1,3.4,0,1.5.3,2.7.9,3.5.7.8,1.6,1.2,2.6,1.2,1.1,0,2-.3,2.7-1.1.7-.8,1.1-1.9,1.1-3.4,0-1.5-.2-2.7-.9-3.5ZM187,198.1c-.6-.8-1.5-1.2-2.6-1.3-1.1,0-2,.2-2.8.9-.7.7-1.2,1.8-1.3,3.4-.1,1.5.1,2.7.8,3.5.6.8,1.5,1.3,2.6,1.4,1.1,0,2-.2,2.7-1,.7-.7,1.2-1.8,1.3-3.4.1-1.5-.1-2.7-.7-3.5ZM92.5,191.7c-.2-.3-.6-.5-1-.5-.2,0-.9,0-2,0h-2.1s0,3.4,0,3.4h2c1.3,0,2.1,0,2.4-.1.3-.1.6-.3.8-.6.2-.3.3-.6.3-1,0-.5-.1-.8-.3-1.1ZM158.9,195.1c-.6-.8-1.4-1.3-2.6-1.4-1.1-.1-2,.2-2.8.9-.7.7-1.2,1.8-1.3,3.3-.2,1.5,0,2.7.7,3.5.6.8,1.4,1.3,2.5,1.4,1.1,0,2-.2,2.7-.9.8-.7,1.2-1.8,1.4-3.4.1-1.5,0-2.7-.7-3.5ZM244.3,200.8c-.7-.8-1.5-1.2-2.6-1.2-1.1,0-2,.3-2.7,1.1-.7.7-1.1,1.9-1.1,3.4,0,1.5.3,2.7.9,3.5.7.8,1.6,1.2,2.6,1.2,1.1,0,2-.3,2.7-1.1.7-.8,1.1-1.9,1.1-3.4,0-1.5-.2-2.7-.9-3.5ZM187,198.1c-.6-.8-1.5-1.2-2.6-1.3-1.1,0-2,.2-2.8.9-.7.7-1.2,1.8-1.3,3.4-.1,1.5.1,2.7.8,3.5.6.8,1.5,1.3,2.6,1.4,1.1,0,2-.2,2.7-1,.7-.7,1.2-1.8,1.3-3.4.1-1.5-.1-2.7-.7-3.5ZM158.9,195.1c-.6-.8-1.4-1.3-2.6-1.4-1.1-.1-2,.2-2.8.9-.7.7-1.2,1.8-1.3,3.3-.2,1.5,0,2.7.7,3.5.6.8,1.4,1.3,2.5,1.4,1.1,0,2-.2,2.7-.9.8-.7,1.2-1.8,1.4-3.4.1-1.5,0-2.7-.7-3.5ZM92.5,191.7c-.2-.3-.6-.5-1-.5-.2,0-.9,0-2,0h-2.1s0,3.4,0,3.4h2c1.3,0,2.1,0,2.4-.1.3-.1.6-.3.8-.6.2-.3.3-.6.3-1,0-.5-.1-.8-.3-1.1ZM187,198.1c-.6-.8-1.5-1.2-2.6-1.3-1.1,0-2,.2-2.8.9-.7.7-1.2,1.8-1.3,3.4-.1,1.5.1,2.7.8,3.5.6.8,1.5,1.3,2.6,1.4,1.1,0,2-.2,2.7-1,.7-.7,1.2-1.8,1.3-3.4.1-1.5-.1-2.7-.7-3.5ZM92.5,191.7c-.2-.3-.6-.5-1-.5-.2,0-.9,0-2,0h-2.1s0,3.4,0,3.4h2c1.3,0,2.1,0,2.4-.1.3-.1.6-.3.8-.6.2-.3.3-.6.3-1,0-.5-.1-.8-.3-1.1ZM158.9,195.1c-.6-.8-1.4-1.3-2.6-1.4-1.1-.1-2,.2-2.8.9-.7.7-1.2,1.8-1.3,3.3-.2,1.5,0,2.7.7,3.5.6.8,1.4,1.3,2.5,1.4,1.1,0,2-.2,2.7-.9.8-.7,1.2-1.8,1.4-3.4.1-1.5,0-2.7-.7-3.5ZM187,198.1c-.6-.8-1.5-1.2-2.6-1.3-1.1,0-2,.2-2.8.9-.7.7-1.2,1.8-1.3,3.4-.1,1.5.1,2.7.8,3.5.6.8,1.5,1.3,2.6,1.4,1.1,0,2-.2,2.7-1,.7-.7,1.2-1.8,1.3-3.4.1-1.5-.1-2.7-.7-3.5ZM158.9,195.1c-.6-.8-1.4-1.3-2.6-1.4-1.1-.1-2,.2-2.8.9-.7.7-1.2,1.8-1.3,3.3-.2,1.5,0,2.7.7,3.5.6.8,1.4,1.3,2.5,1.4,1.1,0,2-.2,2.7-.9.8-.7,1.2-1.8,1.4-3.4.1-1.5,0-2.7-.7-3.5ZM92.5,191.7c-.2-.3-.6-.5-1-.5-.2,0-.9,0-2,0h-2.1s0,3.4,0,3.4h2c1.3,0,2.1,0,2.4-.1.3-.1.6-.3.8-.6.2-.3.3-.6.3-1,0-.5-.1-.8-.3-1.1ZM187,198.1c-.6-.8-1.5-1.2-2.6-1.3-1.1,0-2,.2-2.8.9-.7.7-1.2,1.8-1.3,3.4-.1,1.5.1,2.7.8,3.5.6.8,1.5,1.3,2.6,1.4,1.1,0,2-.2,2.7-1,.7-.7,1.2-1.8,1.3-3.4.1-1.5-.1-2.7-.7-3.5ZM92.5,191.7c-.2-.3-.6-.5-1-.5-.2,0-.9,0-2,0h-2.1s0,3.4,0,3.4h2c1.3,0,2.1,0,2.4-.1.3-.1.6-.3.8-.6.2-.3.3-.6.3-1,0-.5-.1-.8-.3-1.1ZM158.9,195.1c-.6-.8-1.4-1.3-2.6-1.4-1.1-.1-2,.2-2.8.9-.7.7-1.2,1.8-1.3,3.3-.2,1.5,0,2.7.7,3.5.6.8,1.4,1.3,2.5,1.4,1.1,0,2-.2,2.7-.9.8-.7,1.2-1.8,1.4-3.4.1-1.5,0-2.7-.7-3.5ZM187,198.1c-.6-.8-1.5-1.2-2.6-1.3-1.1,0-2,.2-2.8.9-.7.7-1.2,1.8-1.3,3.4-.1,1.5.1,2.7.8,3.5.6.8,1.5,1.3,2.6,1.4,1.1,0,2-.2,2.7-1,.7-.7,1.2-1.8,1.3-3.4.1-1.5-.1-2.7-.7-3.5ZM158.9,195.1c-.6-.8-1.4-1.3-2.6-1.4-1.1-.1-2,.2-2.8.9-.7.7-1.2,1.8-1.3,3.3-.2,1.5,0,2.7.7,3.5.6.8,1.4,1.3,2.5,1.4,1.1,0,2-.2,2.7-.9.8-.7,1.2-1.8,1.4-3.4.1-1.5,0-2.7-.7-3.5ZM92.5,191.7c-.2-.3-.6-.5-1-.5-.2,0-.9,0-2,0h-2.1s0,3.4,0,3.4h2c1.3,0,2.1,0,2.4-.1.3-.1.6-.3.8-.6.2-.3.3-.6.3-1,0-.5-.1-.8-.3-1.1ZM92.5,191.7c-.2-.3-.6-.5-1-.5-.2,0-.9,0-2,0h-2.1s0,3.4,0,3.4h2c1.3,0,2.1,0,2.4-.1.3-.1.6-.3.8-.6.2-.3.3-.6.3-1,0-.5-.1-.8-.3-1.1ZM158.9,195.1c-.6-.8-1.4-1.3-2.6-1.4-1.1-.1-2,.2-2.8.9-.7.7-1.2,1.8-1.3,3.3-.2,1.5,0,2.7.7,3.5.6.8,1.4,1.3,2.5,1.4,1.1,0,2-.2,2.7-.9.8-.7,1.2-1.8,1.4-3.4.1-1.5,0-2.7-.7-3.5ZM158.9,195.1c-.6-.8-1.4-1.3-2.6-1.4-1.1-.1-2,.2-2.8.9-.7.7-1.2,1.8-1.3,3.3-.2,1.5,0,2.7.7,3.5.6.8,1.4,1.3,2.5,1.4,1.1,0,2-.2,2.7-.9.8-.7,1.2-1.8,1.4-3.4.1-1.5,0-2.7-.7-3.5ZM92.5,191.7c-.2-.3-.6-.5-1-.5-.2,0-.9,0-2,0h-2.1s0,3.4,0,3.4h2c1.3,0,2.1,0,2.4-.1.3-.1.6-.3.8-.6.2-.3.3-.6.3-1,0-.5-.1-.8-.3-1.1ZM92.5,191.7c-.2-.3-.6-.5-1-.5-.2,0-.9,0-2,0h-2.1s0,3.4,0,3.4h2c1.3,0,2.1,0,2.4-.1.3-.1.6-.3.8-.6.2-.3.3-.6.3-1,0-.5-.1-.8-.3-1.1ZM92.5,191.7c-.2-.3-.6-.5-1-.5-.2,0-.9,0-2,0h-2.1s0,3.4,0,3.4h2c1.3,0,2.1,0,2.4-.1.3-.1.6-.3.8-.6.2-.3.3-.6.3-1,0-.5-.1-.8-.3-1.1ZM92.5,191.7c-.2-.3-.6-.5-1-.5-.2,0-.9,0-2,0h-2.1s0,3.4,0,3.4h2c1.3,0,2.1,0,2.4-.1.3-.1.6-.3.8-.6.2-.3.3-.6.3-1,0-.5-.1-.8-.3-1.1ZM92.5,191.7c-.2-.3-.6-.5-1-.5-.2,0-.9,0-2,0h-2.1s0,3.4,0,3.4h2c1.3,0,2.1,0,2.4-.1.3-.1.6-.3.8-.6.2-.3.3-.6.3-1,0-.5-.1-.8-.3-1.1ZM92.5,191.7c-.2-.3-.6-.5-1-.5-.2,0-.9,0-2,0h-2.1s0,3.4,0,3.4h2c1.3,0,2.1,0,2.4-.1.3-.1.6-.3.8-.6.2-.3.3-.6.3-1,0-.5-.1-.8-.3-1.1ZM92.5,191.7c-.2-.3-.6-.5-1-.5-.2,0-.9,0-2,0h-2.1s0,3.4,0,3.4h2c1.3,0,2.1,0,2.4-.1.3-.1.6-.3.8-.6.2-.3.3-.6.3-1,0-.5-.1-.8-.3-1.1Z"/>
            <path class="cls-1" d="M33,214.4c.6-.3,1.2-.6,1.8-.9-.7.3-1.2.6-1.8.9Z"/>
            <path class="cls-3" d="M299.4,217.8s-1.7-2.9-12.5-5.5c-2.8-.7-6.2-1.4-10.3-2h-.4c0,0,.2-14,.2-14-9.1-.1-51.8-4.7-61.9-6.3-11-1.7-65.7-7.3-88.6-7.5-56.7-.5-80.4,5.8-90.1,10.3-4.5,2.1-5.9,3.7-6.3,4.1v20.5c.3-.5.8-1,1.3-1.5.2-.2.4-.4.6-.5.2-.2.5-.3.7-.5,0,0,0,0,0,0,.2-.2.5-.3.8-.5.6-.3,1.2-.6,1.8-.9.3-.1.6-.3.9-.4,0,0,0,0,0,0,.3-.1.7-.3,1.1-.4,1.3-.5,2.7-.9,4.3-1.3,2.4-.6,5.1-1.2,8-1.6.2,0,.3,0,.5,0,.2,0,.3,0,.5,0,5.5-.8,11.8-1.4,18.6-1.8,0,0,0,0,.1,0,.1,0,.2,0,.4,0h.1c.1,0,.2,0,.4,0s0,0,.1,0c6.7-.3,13.9-.5,21.3-.5,12.6,0,25.7.4,37.8,1-.2-.9-.4-2,.5-2.4,1.4-.7,2.4.6,3.1,1.4l.2.2c.3.3.6.7.8,1,5.3.3,10.4.6,15.2.9,1.1,0,2.3,0,3.4,0,1.7,0,3.3,0,5,0,1.8,0,3.6,0,5.4,0h0c1.3,0,2.1-.5,3.3-1.3,1.2-.8,2.6-1.5,4.1-.5.8.5,1.3,1.3,1.2,2.1,0,.5-.2.9-.4,1.2,0,.1-.2.2-.3.3,30.9,2.6,90.1,7.9,106.6,10.1,2.1.3,4,.5,5.7.6,13,.8,16.1-3,16.6-3.8h0ZM73.3,202h-2.9s-.6-1.8-.6-1.8l-.5-1.4-.4-1.2-.2-.5-3-8.5h2.9s3.3,9.9,3.3,9.9l3.3-9.9h2.8s-4.8,13.3-4.8,13.3ZM82,202.1h-2.7s.1-13.4.1-13.4h2.7s-.1,13.4-.1,13.4ZM93.4,202.2l-1.9-2.9c-.7-1-1.1-1.7-1.4-2-.2-.3-.5-.5-.8-.6-.3-.1-.7-.2-1.4-.2h-.5s0,5.6,0,5.6h-2.7s.2-13.4.2-13.4h5.7c1.4.1,2.5.2,3.1.5.6.2,1.2.7,1.5,1.3.4.6.6,1.3.5,2.1,0,1-.3,1.8-.9,2.5-.6.6-1.5,1-2.7,1.2.6.4,1,.7,1.4,1.1.4.4.9,1.1,1.5,2.2l1.6,2.6h-3.2ZM109.9,200.7c-.6.5-1.4,1-2.5,1.4-1.1.4-2.2.6-3.3.5-1.4,0-2.6-.3-3.6-1-1-.6-1.8-1.5-2.3-2.6-.5-1.1-.7-2.3-.7-3.6,0-1.4.4-2.6,1-3.7.6-1.1,1.5-1.9,2.6-2.4.9-.4,1.9-.6,3.2-.6,1.7,0,2.9.4,3.8,1.1.9.7,1.5,1.7,1.7,2.9l-2.7.4c-.2-.7-.5-1.2-1-1.6-.5-.4-1.2-.6-1.9-.6-1.2,0-2.1.3-2.8,1.1-.7.7-1.1,1.8-1.1,3.3,0,1.6.3,2.8,1,3.6.7.8,1.6,1.2,2.7,1.2.6,0,1.1,0,1.7-.3.6-.2,1.1-.5,1.5-.8v-1.7s-3,0-3,0v-2.2c0,0,5.9.1,5.9.1v5.3ZM115.1,202.7h-2.7c0,0,.4-13.4.4-13.4h2.7c0,0-.4,13.4-.4,13.4ZM128.2,203.2h-2.7c0-.1-5.1-9-5.1-9l-.3,8.7h-2.5c0-.1.5-13.4.5-13.4h2.6c0,0,5.1,9.2,5.1,9.2l.3-8.9h2.5c0,0-.5,13.4-.5,13.4ZM139.5,200.6c.6.8,1.3,1.2,2.3,1.2.7,0,1.3-.2,1.9-.6.6-.4,1-1.1,1.2-2.1l2.6,1c-.5,1.4-1.2,2.5-2.2,3.1-1,.6-2.2.9-3.6.8-1.8-.1-3.2-.8-4.2-2.1-1.1-1.3-1.5-3-1.4-5.1.1-2.2.8-3.9,2-5,1.2-1.2,2.8-1.7,4.6-1.6,1.6.1,2.9.7,3.9,1.7.6.6,1,1.5,1.2,2.5l-2.7.5c-.1-.7-.4-1.3-.9-1.7-.5-.4-1.1-.7-1.8-.7-1,0-1.8.2-2.5.9-.7.7-1,1.8-1.1,3.4,0,1.7.1,2.9.7,3.6ZM162.3,198.9c-.2,2.1-1,3.8-2.2,4.9-1.3,1.1-2.9,1.6-4.9,1.4-2-.2-3.5-1-4.5-2.3-1-1.3-1.5-3-1.3-5.1.1-1.4.5-2.5.9-3.4.4-.6.8-1.2,1.4-1.7.6-.5,1.2-.8,1.8-1,.9-.3,1.8-.3,2.9-.2,2,.2,3.5,1,4.5,2.3,1,1.3,1.5,3.1,1.3,5.2ZM167.4,203.3c.5.8,1.3,1.2,2.2,1.4.7,0,1.3,0,1.9-.5s1-1.1,1.4-2l2.5,1.1c-.6,1.4-1.4,2.4-2.4,3-1,.6-2.2.8-3.7.6-1.8-.2-3.1-1-4.1-2.3-1-1.3-1.4-3-1.1-5.1.3-2.2,1-3.8,2.3-4.9,1.3-1.1,2.9-1.5,4.7-1.3,1.6.2,2.9.8,3.8,1.9.5.6.9,1.5,1.1,2.6l-2.7.3c0-.7-.3-1.3-.8-1.7-.5-.5-1-.7-1.7-.8-1-.1-1.8.1-2.5.8-.7.6-1.1,1.7-1.3,3.3-.2,1.7,0,2.9.5,3.7ZM190.5,201.9c-.2,2.2-.9,3.8-2.1,4.9-1.3,1.1-2.9,1.6-4.8,1.5-2-.2-3.5-.9-4.6-2.2-1.1-1.3-1.5-3-1.4-5.1.1-1.3.4-2.5.9-3.4.4-.7.8-1.2,1.4-1.7.6-.5,1.2-.9,1.8-1.1.9-.3,1.8-.4,2.9-.3,2,.2,3.5.9,4.5,2.2,1.1,1.3,1.5,3,1.4,5.2ZM202.7,209.3l-2.7-.2-4.9-9-.5,8.7-2.5-.2.8-13.3,2.6.2,4.9,9.2.5-8.9h2.5c0,.1-.8,13.5-.8,13.5ZM216.3,203.6c0,1.6-.2,2.7-.4,3.4-.2.7-.5,1.2-.9,1.6-.4.4-.9.8-1.6,1-.7.2-1.5.3-2.6.3-1.3,0-2.2-.2-2.9-.6-.6-.3-1.1-.7-1.5-1.2-.3-.5-.6-1-.7-1.5-.1-.8-.2-1.9,0-3.4l.3-7.1h2.7c0,.1-.3,7.3-.3,7.3,0,1.1,0,1.9,0,2.2,0,.5.3,1,.8,1.3.4.4,1,.5,1.8.6.8,0,1.3,0,1.7-.4.4-.3.7-.7.8-1.1.1-.5.2-1.2.2-2.3l.4-7.4h2.7c0,.1-.3,7.1-.3,7.1ZM228.9,199.4l-3.9-.2-.5,11.1h-2.7c0,0,.4-11.2.4-11.2l-4-.2v-2.2c0,0,10.7.4,10.7.4v2.3ZM246,209.4c-1.2,1.2-2.8,1.7-4.8,1.7-2,0-3.5-.7-4.7-2-1.1-1.2-1.7-2.9-1.6-5.1,0-1.4.3-2.5.7-3.4.3-.7.8-1.3,1.3-1.8.5-.5,1.1-.9,1.8-1.2.8-.3,1.8-.5,2.9-.4,2,0,3.5.7,4.7,2,1.1,1.3,1.7,3,1.6,5.2,0,2.2-.7,3.8-1.9,5ZM252.5,211.2h-2.7c0,0,.3-13.4.3-13.4h2.7c0,0-.3,13.4-.3,13.4ZM264.5,211.5l-9.4-.2.3-13.2h2.7c0,0-.2,11-.2,11l6.7.2v2.2ZM132.1,208l-.2-.3c-.5-.6-1-1.2-1.5-1.2s-.2,0-.3,0c0,0-.3.2.1,1.6.7,0,1.5,0,2.2.1,0,0-.2-.2-.2-.3Z"/>
          </g>
          <path class="cls-3" d="M299.3,216.3c-1.4-1.2-4.7-3.1-12.1-5-2.7-.7-6.1-1.4-10.1-2l.2-13v-1s.2-17.5.2-17.5c2.2,0,11.1.7,16.8,3.9,2.4,1.3,4.2,3,4.8,5.4v8.4s0,1,0,1v19.8Z"/>
        </g>
        <g>
          <path class="cls-3" d="M100.4,98c-2-2.1-4.9-3.9-8.9-5.4-3.6-1.3-5.9-2.4-7-3.3-1.1-.8-1.6-1.9-1.6-3.1s.3-1.7,1-2.2c.7-.5,1.5-.8,2.5-.8,2.8,0,4.2,1.9,4.2,5.7l11.7-.3c0-.4,0-.7,0-1,0-4.9-1.4-8.7-4.2-11.3-3-2.8-6.8-4.1-11.6-4.1s-8.5,1.3-11.6,3.9c-3.2,2.6-4.7,6.3-4.7,11.1,0,7,3.9,11.9,11.9,14.6,3.3,1.2,5.5,2.2,6.8,3.1,1.2.9,1.8,1.9,1.8,3,0,2-1.3,3-3.9,3s-2.7-.5-3.7-1.4c-.9-.9-1.4-2.4-1.4-4.3l-11.7.3c0,.3,0,.7,0,1,0,3.2.7,6,2.2,8.3,1.6,2.5,3.7,4.4,6.2,5.5,2.5,1.1,5.4,1.7,8.5,1.7,4.8,0,8.8-1.3,11.9-3.9,3.1-2.6,4.6-6.1,4.6-10.5s-1-7.4-2.9-9.5Z"/>
          <path class="cls-3" d="M142.2,73.1h-12c0,2.7,0,8.1,0,16.3s0,13.5,0,15.9c0,1.7-.5,3-1.2,4-.8,1-1.8,1.4-3.1,1.4s-2.4-.5-3.2-1.4c-.8-1-1.3-2.3-1.3-4,0-2.6,0-8,0-16.2s0-13.6,0-16h-12v33.1c0,4.9,1.6,8.8,4.8,11.5,3.1,2.7,7,4.1,11.5,4.1s8.5-1.4,11.7-4.1c3.2-2.7,4.8-6.5,4.9-11.3,0-5.4,0-10.9,0-16.5s0-11.2,0-16.8Z"/>
          <path class="cls-3" d="M182.5,82c-.9-2.1-2.1-3.7-3.5-4.8-1.4-1.1-3.1-2-5.3-2.7-2.2-.7-4.2-1-6-1.2-1.9-.1-4-.2-6.6-.2s-7.2,0-10.8,0v47.7h12.7v-15.5h3.4c5.3.1,9.5-1.3,12.7-4.3,3.2-2.9,4.8-6.8,4.8-11.6s-.5-5.3-1.4-7.4ZM169.5,93.7c-1.1.9-2.6,1.3-4.4,1.3s-1.6,0-2.2,0v-10.8h1.7c4.3,0,6.5,1.7,6.5,5.3s-.6,3.4-1.7,4.3Z"/>
          <path class="cls-3" d="M216,84.2v-11.1h-26.8v47.7h26.8v-11.1h-14.1v-7.7h12.8v-10.8h-12.8v-7h14.1Z"/>
          <path class="cls-3" d="M258.1,117.6c-.8-2.1-1.9-4.6-3.1-7.5-1.2-2.9-2.2-5.2-2.9-6.8-1-2-2-3.4-3.2-4,5.6-2.5,8.3-6.9,8.3-13s-.5-4.9-1.5-6.7c-1-1.8-2.5-3.1-4.4-4.1-1.9-.9-4-1.6-6.3-1.9-2.2-.4-4.9-.5-8-.5-4.5,0-8.7,0-12.8.1v47.7h12.7v-18h1.9l7,18h13.5l-1.2-3.2ZM238.3,93.5c-.8,0-1.3,0-1.4-.2v-10h1.8c3.9,0,5.9,1.6,5.9,5s-2.1,5.1-6.3,5.1Z"/>
        </g>
        <g>
          <path class="cls-3" d="M102.7,162.5c-6.5,3.8-15,1.7-19.3-4.4-3.3-5.9-1.5-14.1,4.7-17.7,6.3-3.7,14.8-1.9,18.9,4.2.2.3.4.6.6,1h10.2c-1.9-4.5-3.8-7.7-6.4-10.4-8.8-9-23-9.2-32.1-.7-9.8,9.2-9.9,23.9-.7,33.3,8.8,8.9,23.2,9.3,32.4.7,3.1-2.9,5.1-7.4,6.3-10.9h-9.8c-1.3,2.2-2.7,3.7-4.8,4.9Z"/>
          <path class="cls-3" d="M157.9,134.9c-8.7-8.9-22.9-9.2-31.9-.6-9.5,9.1-9.8,24-.7,33.2,8.7,9,23.1,9.4,32.3.6,9.4-9.1,9.4-23.9.4-33.2ZM149.2,162.4c-6.5,3.8-15.1,2.2-19.1-4.2-3.7-6-1.5-14.6,4.7-18.1,6.3-3.7,14.9-2.2,18.7,4.1,3.7,6.1,1.7,14.6-4.4,18.2Z"/>
          <path class="cls-3" d="M197.1,162.5c-6.5,3.8-15,1.7-19.3-4.4-3.3-5.9-1.4-14.1,4.7-17.7,6.3-3.7,14.9-1.9,18.9,4.2.2.3.4.6.7,1h10.2c-1.9-4.5-3.8-7.7-6.4-10.4-8.8-9-23-9.2-32.1-.7-9.8,9.2-9.9,23.9-.7,33.3,8.8,8.9,23.2,9.3,32.4.7,3.1-2.9,5.1-7.4,6.3-10.9h-9.8c-1.3,2.2-2.8,3.7-4.8,4.9Z"/>
          <path class="cls-3" d="M253,134.9c-8.7-8.9-22.9-9.2-31.9-.6-9.5,9.1-9.8,24-.7,33.2,8.7,9,23.1,9.4,32.2.6,9.5-9.1,9.5-23.9.4-33.2ZM244.2,162.4c-6.5,3.8-15.1,2.2-19.1-4.2-3.7-6-1.5-14.6,4.7-18.1,6.3-3.7,14.9-2.2,18.7,4.1,3.7,6.1,1.7,14.6-4.4,18.2Z"/>
        </g>
        <g>
          <path class="cls-3" d="M267.9,159.6c-4.2,0-7.6,3.4-7.6,7.6s3.4,7.6,7.6,7.6,7.6-3.4,7.6-7.6-3.4-7.6-7.6-7.6ZM267.9,174.2c-3.9,0-7-3.2-7-7s3.2-7,7-7,7,3.2,7,7-3.2,7-7,7Z"/>
          <path class="cls-3" d="M269.3,167.7c.7-.1,1.2-.4,1.5-.8.4-.4.5-1,.5-1.6s-.3-1.5-.9-2c-.6-.4-1.5-.6-2.6-.6h-2.7v9.2h1.4v-3.9h1.2l2.3,3.9h1.7l-2.6-4.1ZM267.7,166.8h-1.1v-2.9h1.1c.8,0,1.3.1,1.6.4.3.2.5.6.5,1.2s-.2.8-.5,1.1c-.4.2-.9.4-1.6.4Z"/>
        </g>
        <g>
          <path class="cls-4" d="M182,283.6c-4.1-2.2-7.1-5.5-9-9.8-1.1-2.4-1.7-4.9-2.1-7,.1-.2.2-.3.2-.5,0,0-.1,0-.2,0-.2.3-.3.7-.3.9.7,4,2.1,7.4,4.2,10.2,3.2,4.3,7.5,7.1,13.2,8.4t0,0h0s.1,0,.2,0c-2.3-.5-4.3-1.3-6.1-2.2ZM203.4,254.8c-.1-.2-.2-.3-.4-.5-3.5-4-7.6-6.3-12.6-7.3-1.1-.2-2.1-.2-3.2-.2-.3,0-.7,0-1,0-.8,0-1.6.1-2.3.3-.3,0-.5.1-.8.2h-.2c-.2,0-.3,0-.5.1,0,0-.2,0-.4,0h0c-.1,0-.2,0-.4.1,0,0-.2,0-.4.1-1.4.5-2.6,1.2-3.7,2-.1.1-.3.2-.4.3h-.1c0,.1-.1.2-.2.2,0,0-.1,0-.2.2,0,0-.1.1-.2.2h0c0,0,0,.2,0,.2-1.8,1.7-3,3.5-3.8,5.5-1,2.4-1.4,5-1.3,8.1v.3c0,.1,0,.3,0,.4,2-.7,3.9-.7,6-.7,2,0,3.7.3,5.2.8,1.5.5,2.4,1.3,3.5,2.2.4.4.9.7,1.4,1.1.6.5,1.2,1,1.7,1.4,1,.9,2,1.8,3.5,2.2,0,0,.2,0,.3,0,0,0,0-.1,0-.2,0-.8.8-1,1.2-1h.1c1.8-.3,3.3-.6,4.7-1.5l.3-.2s.1,0,.2-.1c0,0,.1-.1.2-.2,0,0,0,0,.2-.2h.1c0-.2.1-.3.2-.3l.3-.4c.9-1.3,1.5-2.8,1.8-4.3v-.5c.4-1.5.7-3,.7-4.5,0-1.2.6-2.5,1.5-3.4-.2-.2-.4-.5-.6-.7Z"/>
          <g>
            <g class="cls-2">
              <g>
                <path class="cls-6" d="M152.6,255.7s0,0,0,0h0s0,0,0,0Z"/>
                <path class="cls-6" d="M149.7,280.4s0,0,0,0c0,0,0,0,0,0,0,0,0,0,0,0Z"/>
                <path class="cls-6" d="M158.4,277.2c0,0,0-.1-.1-.2,0,0,0,0,0,0,0,0,0,0,0,0Z"/>
              </g>
              <path class="cls-6" d="M169.1,242s0,0-.1,0c-.1,0-.2.1-.3.2h0s0,0,0,0c.2-.1.3-.2.5-.3Z"/>
            </g>
            <g>
              <path class="cls-5" d="M210.5,261.5s0,0,0,0c0,0,0,0,0,0,0,0,0,0,0,0Z"/>
              <g>
                <path class="cls-4" d="M210.8,274.7c0,.2-.1.4-.2.7v.4c-2.9,9.6-11.6,15.2-21.6,14-6.4-.8-12.5-4.3-16.7-9.6-4.2-5.4-6.1-12.1-5.2-18.7,1.2-9.2,7.6-15.7,16.1-17h0c1.8-.3,3.7-.3,5.6-.1,7,.8,12.8,4.1,17.1,9.9-.3,0-.5.2-.8.3-.1,0-.2.1-.3.2-.2-.2-.4-.4-.5-.6-.1-.2-.3-.4-.4-.5-3.7-4.1-8-6.6-13.2-7.6-1.2-.2-2.3-.2-3.4-.2-.3,0-.7,0-1,0-.9,0-1.8.1-2.6.3-.2,0-.5.1-.8.1h-.2c-.2,0-.4.1-.6.2,0,0-.2,0-.3,0h-.1c-.1,0-.3.1-.4.2,0,0-.1,0-.3.1-1.5.6-2.8,1.3-4,2.2-.1,0-.2.2-.3.3h-.1c0,0,0,.1-.2.2,0,0-.2,0-.3.2,0,0,0,0-.2.2,0,0,0,0-.1.1h-.1c0,.1,0,.2,0,.2-1.9,1.7-3.2,3.7-4.1,5.9-1,2.5-1.5,5.3-1.3,8.5v.3c0,.3,0,.6,0,.9-.3.4-.7,1.2-.6,1.8.8,4.2,2.2,7.7,4.3,10.6,1.6,2.1,3.4,3.9,5.5,5.3,0,0,0,0,0,0,0,0,0,0,0,0s0,0,0,0,0,0,0,0,0,0,0,0c3,2,6.5,3.2,10.6,3.9.6,0,1.2.2,1.7.2.3,0,.7,0,1,0,.3,0,.7,0,1,0,.3,0,.6,0,.8,0s.6,0,.9,0c.6,0,1.2,0,1.8-.1,1.7-.2,3.3-.6,4.8-1.4.4-.2.8-.4,1.1-.7,2.2-1.4,4-3.5,5.6-6.4.7-1.3,1.4-2.8,2-4.3Z"/>
                <path class="cls-4" d="M132.3,208.3c-.7,0-1.5,0-2.2-.1-.4-1.4-.2-1.6-.1-1.6.1,0,.2,0,.3,0,.5,0,1,.5,1.5,1.2l.2.3c0,.1.2.2.2.3Z"/>
              </g>
              <g>
                <path class="cls-3" d="M163.2,243.5c.1,0,.2-.2.4-.2l.5-.3s0,0,0,0h0s-.9.6-.9.6ZM167.9,239.3s0,0-.1-.1v.2c.2,0,.2,0,.2,0,0,0,0,0,0,0Z"/>
                <path class="cls-3" d="M164.2,16.9C82.2,16.9,15.4,83.6,15.4,165.6s66.7,148.8,148.8,148.8,148.8-66.7,148.8-148.8S246.2,16.9,164.2,16.9ZM155.1,296.3c-.3,0-.5,0-.8-.1-1-.1-2.1-.3-3.2,0,0,0,0,0-.1,0-1.4.3-2.6,1.1-3.7,1.8-1.1.7-2.1,1.3-3.2,1.6-3.6,1.1-7.4.5-10-.2-1.3-.3-2.6-.8-3.8-1.3-2-.8-4-1.5-6.2-1.8-1.8-.2-3.5-.5-5.1-1.1-4.9-2-8.6-6.6-11-9.8-.4-.5-.7-1.1-1-1.7-.5-1-1-2-1.5-2.9l-.4-.9c-1.3-2.9-2.4-5.8-3.1-8.9-1.4-5.9-1.3-11.9.5-18.9,1.3-5.1,3.5-10.1,6.5-14.8,1.4-2.2,3-4.2,4.7-6,1.2-1.3,2.6-2.5,3.9-3.7.3-.3.7-.6,1.1-.9.1-.1.3-.2.4-.4,0,0,0,0,0,0,.8.4,2.2,1.1,2.4,1.2.9.3,1.9.5,3,.7,2.8.5,5.7.8,8.5.9h0c2.5,0,5,0,7.4-.2.3,0,.5,0,.8,0,0,0,0,0,0,0,.7,0,1.3,0,2-.1,1.6,0,3.3-.2,5-.5,1-.2,1.9-.4,2.7-.7.3-.1.6-.2.9-.3.2,0,.6-.3,1.5-.8.4-.2.8-.5,1.2-.7.1,0,.2-.1.3-.1,0,0,.2.1.2.2.2.1.3.2.4.3,2.6,2.2,4.7,4.2,6.5,6.3,1.2,1.3,2.4,3.1,3.7,5,0,.2.2.4.4.7.2.4.4.8.6,1.2l-5.2,4.3c-.3.2-.5.4-.8.7,0,0-.2.2-.3.3-.2.2-.5.5-.7.8-.3.3-.5.6-.8.9s-.5.5-.8.7c-.6.6-1.3,1.3-1.9,1.9-1.5,1.7-2.8,3.5-3.9,5.3-.4.7-.8,1.4-1.1,2.1h0c-.2.5-.4.9-.5,1.3-.7,1.8-1.2,3.8-1.6,6,0,0,0,.1,0,.2-.4,2.2-.6,4.5-.7,6.9,0,1.5,0,3.1.2,4.7,0,0,0,.1,0,.2,0,.8.2,1.6.3,2.4,0,.8.2,1.5.3,2.2,0,.2,0,.4.1.6.1.8.3,1.6.5,2.3,0,0,0,.2,0,.3.1.5.2,1,.4,1.5,0,0,0,0,0,0,.3,1,.6,1.9.9,2.8,0,0,0,.2.1.3,0,0,0,.1,0,.2,0,.1.1.3.2.4,0,.2.2.4.2.6.2.5.5,1,.7,1.6,0,0,0,.1,0,.2,1,1.9,2.2,4,3.7,5.5-.4,0-.8,0-1.1,0ZM286.2,222.7c-1.2,0-2.5,0-3.9-.1-13.9,28.7-38,51.6-67.5,64.1.4-.9.9-2.1,1.2-2.9-.6,1.1-1.2,2.2-1.9,3.2h0s0,0,0,0c-.3.6-.5,1.1-.6,1.2-1.1,1.9-2.3,3.7-3.6,5.4-1.6,2-3.5,3.9-5.4,5.4-7.4,5.8-16.8,7.2-25.9,6.2-1.9-.2-3.8-.5-5.6-.9-1-.2-2-.5-3-.8-1.2-.4-2.5-.6-3.6-1.2-1.1-.5-2.2-1.1-3.3-1.5-1.1-.4-2.2-1.4-3.1-2.1-.7-.5-1.3-.9-1.9-1.4-.2-.2-.4-.3-.6-.5h0s0,0-.1-.1c-.2-.2-.5-.4-.7-.6-.8-.8-1.5-1.7-2.1-2.7,0,0,0,0,0-.1-.9-1.5-1.7-3.1-2.3-4.6,0,0,0,0,0,0,0,0,0,0,0,0,0-.1,0-.3,0-.4-.1-.1-.2-.2-.3-.2.3-.7-.2-1.2-.4-1.8-.3-.8-.5-1.7-.8-2.6,0-.2-.2-.3-.4-.4.1-.2.2-.4.1-.7,0-.1,0-.2,0-.3-.1-.3-.1-.7-.2-1,0-.3-.2-.5-.5-.7,0,0,0,0,0,0,0,0,0,0,0,0,.2-.2.3-.4.3-.7,0-.6-.1-1.3-.2-1.9,0,0,0,0,0,0s0,0,0,0c0-.4,0-.8-.1-1.2,0,0,0,0,0,0-.1-1.1-.2-2.3-.2-3.4h0c0-.8,0-1.6,0-2.4,0-2.2.2-4.4.6-6.5.2-.9.3-1.7.5-2.6,0,0,0,0,0,0,0,0,0,0,0,0,0-.4.2-.7.3-1t0,0h0c0-.2.1-.4.2-.6h0c.2-.7.4-1.3.6-1.9.3-.7.6-1.4.9-2.1h0c0,0,0,0,0,0t0,0c.2-.3.3-.7.5-1,0-.2.2-.3.3-.5,1-1.6,2.1-3.2,3.5-4.7.6-.6,1.2-1.3,1.8-1.9.2-.2.5-.5.8-.8s.6-.6.9-.9c.5-.6,1-1.1,1.6-1.5h0c.4-.4.8-.7,1.2-.9l.9-.7,4.1-2.9-.3-.5v-.2c-.1,0-.2,0-.2,0-.3-.4-.6-1-.8-1.5-.2-.3-.3-.7-.4-.8-1.2-2-2.5-3.7-3.7-5.1-2.1-2.4-4.5-4.7-7.6-7.2h0c-.2-.1-.2-.2-.6,0-.1,0-.3.1-.5.2-.2-.2-.5-.4-.8-.5l-.7-.5c-.9-.6-1.8-1.2-2.8-1.8-2.6-1.4-5.4-2.3-8.2-2.8-.2,0-.4,0-.6,0-.7,0-1.6,0-2.1-.6-.9-.9-.7-2.8,0-3.7.4-.4,1-.6,1.4-.7.2,0,.4-.1.5-.2.6-.3,1.4-.5,2.1-.8,1.6-.5,3.2-.7,5-.8h1.7c4.8-.2,9.7-.3,14.5-1,1.2-.2,2.4-.4,3.6-.7.3,0,.7-.1,1-.2h.2c.5-.2.9-.2,1.1-.5h0c0-.1.2-.3.2-.5,0-.5-.4-1-.8-1.2-.8-.5-1.7-.4-2.9.4-1.3.9-2.3,1.5-3.9,1.5h0c-.3,0-.5,0-.8,0,0,0,0,0,0,0-1.5,0-3,0-4.5,0-1.7,0-3.4,0-5,0-3.8,0-7.8.1-11.3,1.4-.5.2-.9.5-1.4.8-.4.3-.9.7-1.5.9-1.7.6-2.7-.9-3.1-1.4-1-1.4-1.8-2.5-2.6-3.5-.7,0-1.5,0-2.2-.1,0,.1,0,.3.2.4.5,1.4,1.6,2.2,2.8,3.2.3.2.6.5.9.8,1.9,1.6,2.7,3.1,2.5,4.6-.3,2-2.5,2.2-4.1,2.4-.4,0-.7,0-1,.1-2.3.5-4.6,1.4-7.2,2.9-1,.6-2,1.2-2.9,1.9-.1,0-.3.2-.4.3-.2.1-.6.4-.9.6-.2,0-.3-.2-.5-.2,0,0-.1,0-.2-.1h-.3c0-.1,0-.1,0-.1l-.3.2c-.6.5-1.2,1.1-1.8,1.6-1.3,1.2-2.7,2.4-4,3.7-1.8,1.8-3.4,3.9-4.8,6.1-3.1,4.8-5.4,9.9-6.7,15.1-1.8,7.2-1.9,13.4-.4,19.4.8,3.2,1.8,6.2,3.2,9.1l.4.9c.3.6.5,1.2.8,1.8-24.5-12.3-44.6-32.1-57.4-56.3-.5,0-1,0-1.5,0-.5,0-1.1,0-1.6,0-5.6,0-14.3-1.8-16-5.5v-17.1h.2v-7.3s1.1-2,6.6-4.5c-1.8-8.6-2.7-17.5-2.7-26.6,0-72.4,58.9-131.2,131.2-131.2s131.2,58.9,131.2,131.2-.3,10-.9,15c2.8,1.5,4.9,3.5,5.6,6.3h0c0,.1,0,8.6,0,8.6v22.8c0,.1-.1.3-.3.6-1.1,1.4-4.4,3.9-13.7,3.9Z"/>
                <path class="cls-3" d="M220.7,255.1c-.3.3-.9.8-2.4,1.7h-.2c-1.7,1.2-3.2,3.1-4.1,5.4-.6,1.5-1.1,3.1-1.6,4.6-.2.5-.3,1-.5,1.4-1.2,4.1-2.4,7.4-4,10.2-1.5,2.7-3.2,4.7-5.3,6.1-.2.1-.3.2-.5.3,0,0,0,0,0,0-.3.2-.6.3-1,.5-1,.5-2.1.8-3.2,1-.8.1-1.6.2-2.4.2-.3,0-.6,0-.9,0-.6,0-1.2,0-1.8,0-.7,0-1.3-.1-2-.2-1-.1-1.9-.3-2.8-.5-2.3-.5-4.3-1.3-6.1-2.2-4.1-2.2-7.1-5.5-9-9.8-1.1-2.4-1.7-4.9-2.1-7,.1-.2.2-.3.2-.5,2-.9,3.9-.8,6.1-.8,1.9,0,3.5.3,4.9.8,1.3.4,2.2,1.2,3.2,2,.5.4.9.8,1.4,1.1.6.4,1.1.9,1.7,1.4,1.1,1,2.2,1.9,3.8,2.5,2.2.7,4.6.6,7.2-.2,1.2-.3,2.4-.9,3.6-1.5,0,0,0,0,0,0,1.9-1.2,3.5-2.7,4.5-4.3.4-.7.8-1.5,1.2-2.3.2-.4.3-.7.5-1.1,0,0,0,0,0,0,.3-.6.6-1.2,1-1.8,0-.1.2-.3.3-.4,0,0,0,0,0,0,0,0,.1-.2.2-.2h0c0,0,0-.1.1-.2h0s0,0,0,0h0c.6-.7,1.3-1.4,2-2.1h0c.3-.4.7-.8,1.1-1.1t0,0c.3-.3.7-.5,1.1-.8,0,0,0,0,0,0s0,0,0,0h0c.1,0,.3-.2.4-.2,0,0,0,0,0,0h0c.2-.1.5-.2.7-.4.3-.2.7-.3,1.1-.5h.1c.5-.2,1-.5,1.5-.6h.2c.4-.2.9-.4,1.3-.3Z"/>
                <path class="cls-3" d="M149.7,280.4s0,0,0,0c0,0,0,0,0,0,0,0,0,0,0,0Z"/>
                <path class="cls-3" d="M152.6,255.7s0,0,0,0h0s0,0,0,0Z"/>
              </g>
              <g>
                <path class="cls-1" d="M152.6,255.7s0,0,0,0h0s0,0,0,0Z"/>
                <path class="cls-1" d="M158.4,277.2c0,0,0-.1-.1-.2,0,0,0,0,0,0,0,0,0,0,0,0Z"/>
                <path class="cls-1" d="M158.8,278s0,0,0,0c0,0,0-.2,0-.2,0,0,.1.2.2.3Z"/>
                <path class="cls-3" d="M158.4,277.2c0,0,0-.1-.1-.2,0,0,0,0,0,0,0,0,0,0,0,0Z"/>
                <path class="cls-3" d="M152.6,255.7s0,0,0,0h0s0,0,0,0Z"/>
                <path class="cls-3" d="M149.7,280.4s0,0,0,0c0,0,0,0,0,0,0,0,0,0,0,0Z"/>
                <path class="cls-3" d="M158.4,277.2c0,0,0-.1-.1-.2,0,0,0,0,0,0,0,0,0,0,0,0Z"/>
                <path class="cls-3" d="M158.4,277.2c0,0,0-.1-.1-.2,0,0,0,0,0,0,0,0,0,0,0,0Z"/>
                <path class="cls-3" d="M158.4,277.2c0,0,0-.1-.1-.2,0,0,0,0,0,0,0,0,0,0,0,0Z"/>
              </g>
              <g>
                <g>
                  <path class="cls-4" d="M218.2,272.7c0,.3,0,.5,0,.8-.2,2-.5,3.8-1.1,5.6-.4,1.1-.8,2.2-1.3,3.3-.1.2-.2.5-.4.7,0,.2-.2.3-.2.4,0,0,0,0,0,0,0,0,0,0,0,.1-.5.9-1,1.8-1.6,2.6,0,0,0,0,0,0-.3.4-.5.8-.8,1.2-2.2,2.9-4.8,5.3-7.8,7.2-.2.1-.4.3-.6.4l-.3.2c-1.8.9-3.8,1.7-6.1,2.5l-4,.8c-.2,0-.4,0-.5,0-.4,0-.8,0-1.1,0-5,.4-9.9-.5-14.5-2.6-1.1-.5-2.2-1.1-3.3-1.7-2.2-1.3-4.1-2.7-5.9-4.4,1.4,1.2,3,2.3,4.6,3.2-5.1-3.3-9.2-8-12.1-14.1,0,0,0-.1,0-.2-.1-.3-.3-.8-.8-1-.1-.4-.3-.8-.5-1.1,0,0,0,0,0-.1,0,0,0-.1,0-.2,0,0,0-.2,0-.3,0-.5-.3-1-.5-1.6-.2-1-.4-2-.8-3,0-.6-.1-1.3-.3-1.8,0-.6,0-1.3-.1-1.9,0-.3-.1-.6-.1-.9,0-1.2,0-2.4,0-3.6v-.4c.2-.4.1-.7.1-1.1,0-.3,0-.5,0-.7v-.3c0,0,0-.2,0-.4,0-.6.2-1.2.4-1.8,0-.2.1-.5.2-.7.2-.9.5-1.8.8-2.7.5-1.5,1.2-3,2-4.5.6-1,1.2-2,1.6-2.7.2-.2.4-.4.6-.7.2-.2.4-.4.6-.7l.2-.3c.3-.4.6-.8,1-1.1.5-.4,1-.9,1.5-1.5,0,0,0,0,0,0l.2-.4h0c0,0,.2-.3.2-.3.2-.2.3-.3.5-.4.2-.1.3-.2.5-.4.2-.2.5-.3.7-.5,0,0,0,0,0,0h0c0,0,.2-.2.3-.2,0,0,0,0,.1,0,0,0,0,0,0,0,.3-.2.7-.5,1.1-.7,1.8-1.1,3.5-2,5.6-2.6.5-.2,1-.3,1.5-.5.4-.1.7-.2,1.1-.3h0s0,0,0,0c1.1-.3,2.3-.6,3.4-.8.5,0,.9,0,1.4,0h.9c.9,0,1.8,0,2.7,0s.6,0,.9,0h0c.9,0,1.7,0,2.6.2,2.2.3,4.3,1.1,6.6,2.1,7.2,2.9,13.3,8.5,17.2,15.8.2.4.5.8.7,1.2-.2.1-.4.3-.7.4h0c0,0-.2.1-.3.2-.7.5-1.3.9-1.8,1.5h0c-.6.7-1.2,1.3-1.8,1.9,0,0,0,0-.1.1,0,0,0-.2-.1-.2h0c0-.2,0-.3-.1-.5,0-.1,0-.2,0-.3,0-.7,0-1.4-.1-2-.3-1.2-.9-2.1-1.8-2.6h0c-.2-.1-.4-.2-.5-.2-.2,0-.3,0-.5-.1-4.3-5.9-9.8-9.5-16.7-10.6,0,0,0,0,0,0h-.1c-.5,0-.9-.1-1.4-.2-11.7-1.3-21.3,6.3-22.8,18-.9,6.9,1.1,13.8,5.5,19.4,4.3,5.6,10.7,9.2,17.3,10,10.5,1.3,19.6-4.6,22.6-14.7v-.4c.2-.3.2-.5.3-.8,0,0,0-.2,0-.2h0c0-.1.1-.2.2-.3h0c0-.2.1-.3.2-.5l.2-.4c.2-.3.3-.7.6-1,.5-.8,1-1.6,1.5-2.3,0-.1.2-.2.3-.4.4-.4.8-.8,1.2-1.2,0,0,.2-.2.2-.2s0,0,.1,0c0,0,0,0,0,0,.2-.1.4-.3.6-.4,0,0,.2,0,.3,0h.3s.2-.3.2-.3h0c.9,1.1.5,3.6.3,5.2Z"/>
                  <path class="cls-4" d="M169.1,242s0,0-.1,0c-.1,0-.2.1-.3.2h0s0,0,0,0c.2-.1.3-.2.5-.3Z"/>
                </g>
                <g>
                  <path class="cls-1" d="M158.4,277.2c0,0,0-.1-.1-.2,0,0,0,0,0,0,0,0,0,0,0,0Z"/>
                  <path class="cls-1" d="M158.8,278s0,0,0,0c0,0,0-.2,0-.2,0,0,.1.2.2.3Z"/>
                  <path class="cls-1" d="M215.3,257.2s0,0,0,0h0s0,0,0,0Z"/>
                </g>
              </g>
              <g>
                <g>
                  <path class="cls-4" d="M239.1,260.7c-.7,1-1.6,1.9-2.8,2.6-2.6,1.5-5.4,2-8.7,1.7-2.8-.3-5.1-.2-7.3.3-1,.2-1.7.5-2.3.9-.2,0-.3.2-.4.3,0,0-.1,0-.2.1h0c-.2.2-.4.3-.6.4-.3.2-.6.4-.9.6h0c-.6.5-1.2,1-1.6,1.6,0,0,0,0,0,0-.4.5-.8,1-1.2,1.6v-.2c-.3.4-.5.9-.8,1.3,0,0,0,.2,0,.2,0,.1-.2.2-.2.4,0,0,0-.2,0-.2,0-.4.2-.7.4-1.1,0-.2.1-.3.2-.5,0,0,0,0,0,0,0,0,0-.1,0-.2,0,0,0,0,0-.1t0,0c0,0,0-.1,0-.2,0-.2.1-.5.2-.7.7-2.6,2.4-5.3,3.8-7.1.2-.2.4-.4.6-.6h0c.2-.2.4-.4.6-.5.3-.2.6-.5.9-.8.8-.8,1.5-1.4,2.3-1.9,1.6-1.2,3.4-2,5.3-2.5.9-.2,1.9-.4,2.9-.5l-.5.4h2.1v-.5c2.4-.1,4.8.1,6.7.8h.2c1,.5,1.8,1.2,2,2,.2.8,0,1.7-.5,2.5Z"/>
                  <path class="cls-4" d="M228.5,244.2c-.1.7-.5,1.5-1,2.3-1.5,2.3-3.7,3.8-6.4,4.6.2-.2.5-.5.7-.7.3-.3.6-.5.7-.7.8-1.1,1.3-2.2,1.5-3.4.1-.9,0-1.7-.1-2.5-.2-.9-.3-1.8,0-2.6.2-.7.6-1.2,1.3-1.4.2,0,.5-.1.7-.1.5,0,.9.2,1.3.4,1.3.9,1.8,2.2,1.5,4.2Z"/>
                </g>
                <path class="cls-4" d="M209,259.4c0,1-.3,2-.6,2.8-.9,2.2-1.9,4.1-3.2,5.6-.9,1.1-2,1.9-3.2,2.8-2.1,1.2-4.6,1.7-7.8,1.5,1.8-.3,3.4-.6,4.9-1.6,0,0,.1,0,.2-.1h.1c0-.2.2-.2.2-.3l.2-.2c0,0,.2-.2.2-.2,0,0,0,0,0,0h.1c0-.2,0-.2.1-.3l.4-.5c1-1.4,1.6-3,1.9-4.7v-.4c.4-1.5.7-3.1.7-4.7,0-.9.5-2.1,1.3-2.8.1-.1.3-.3.4-.4.1,0,.2-.2.4-.2.3-.2.6-.3,1-.3.2,0,.4,0,.6,0-.1,0-.3.2-.4.2.1.2.2.3.4.4.1,0,.3-.2.4-.3.2.1.4.2.6.4,0,0,.2.2.2.2,0,0,0,0,0,0,.2.3.4.8.5,1.2.2.6.2,1.3.1,2Z"/>
              </g>
            </g>
          </g>
        </g>
      </g>
      <path class="cls-3" d="M163.2,243.5l-1.2.9c.4-.3.8-.6,1.2-.9Z"/>
      <path class="cls-3" d="M166.8,239.5s0,0,0-.1c0,0,0,0,0-.1,0,0,0,.2.2.2Z"/>
    </g>
  </g>
</svg>