<?xml version="1.0" encoding="UTF-8"?>
<svg xmlns="http://www.w3.org/2000/svg" version="1.1" xmlns:xlink="http://www.w3.org/1999/xlink" viewBox="0 0 330 331">
  <defs>
    <style>
      .cls-1 {
        fill: url(#linear-gradient-15);
      }

      .cls-2 {
        fill: url(#linear-gradient-13);
      }

      .cls-3 {
        fill: #8dc63f;
      }

      .cls-3, .cls-4, .cls-5, .cls-6, .cls-7, .cls-8, .cls-9, .cls-10, .cls-11, .cls-12, .cls-13, .cls-14, .cls-15, .cls-16, .cls-17, .cls-18, .cls-19, .cls-20, .cls-21, .cls-22, .cls-23, .cls-24, .cls-25, .cls-26, .cls-27, .cls-28 {
        fill-rule: evenodd;
      }

      .cls-4 {
        fill: #f6f5f2;
      }

      .cls-5 {
        fill: url(#linear-gradient-19);
      }

      .cls-29 {
        fill: url(#linear-gradient-2);
      }

      .cls-6 {
        fill: #699e55;
      }

      .cls-30 {
        fill: url(#linear-gradient-10);
      }

      .cls-31 {
        fill: url(#linear-gradient-12);
      }

      .cls-7 {
        fill: #6a9e56;
      }

      .cls-32 {
        opacity: .3;
      }

      .cls-33, .cls-10 {
        fill: #fff;
      }

      .cls-8 {
        fill: #f7daa2;
      }

      .cls-9 {
        fill: #9ab08a;
      }

      .cls-34 {
        fill: url(#linear-gradient-4);
      }

      .cls-35 {
        fill: #3b3b3c;
      }

      .cls-11 {
        fill: #e0c996;
      }

      .cls-12 {
        fill: #f7dba3;
      }

      .cls-36 {
        fill: #143920;
      }

      .cls-13 {
        fill: #79a663;
      }

      .cls-37 {
        fill: url(#linear-gradient-3);
      }

      .cls-38 {
        fill: url(#linear-gradient-5);
      }

      .cls-39 {
        fill: url(#linear-gradient-8);
      }

      .cls-14 {
        fill: #5c984d;
      }

      .cls-15 {
        fill: url(#linear-gradient-18);
      }

      .cls-16 {
        fill: url(#linear-gradient-21);
      }

      .cls-17 {
        fill: #f6daa3;
      }

      .cls-18 {
        fill: url(#linear-gradient-20);
      }

      .cls-40 {
        fill: url(#linear-gradient-14);
      }

      .cls-19 {
        fill: #8fad3e;
      }

      .cls-20 {
        fill: #eca334;
      }

      .cls-21 {
        fill: #eba238;
      }

      .cls-41 {
        fill: url(#linear-gradient-7);
      }

      .cls-22 {
        fill: #7ea967;
      }

      .cls-42 {
        fill: url(#linear-gradient-9);
      }

      .cls-43 {
        fill: url(#linear-gradient-11);
      }

      .cls-44 {
        fill: url(#linear-gradient-6);
      }

      .cls-23 {
        fill: #dfc897;
      }

      .cls-24 {
        fill: #4bb262;
      }

      .cls-25 {
        fill: #5e984e;
      }

      .cls-26 {
        fill: url(#linear-gradient-22);
      }

      .cls-27 {
        fill: url(#linear-gradient-17);
      }

      .cls-28 {
        fill: #71a25c;
      }

      .cls-45 {
        fill: url(#linear-gradient-16);
      }

      .cls-46 {
        fill: url(#linear-gradient);
      }
    </style>
    <linearGradient id="linear-gradient" x1="35" y1="19.6" x2="282.3" y2="299.2" gradientUnits="userSpaceOnUse">
      <stop offset="0" stop-color="#534c2c"/>
      <stop offset=".5" stop-color="#ada137"/>
      <stop offset="1" stop-color="#494325"/>
    </linearGradient>
    <linearGradient id="linear-gradient-2" x1="28.9" y1="214.4" x2="69.4" y2="214.4" gradientUnits="userSpaceOnUse">
      <stop offset="0" stop-color="#143920"/>
      <stop offset=".1" stop-color="#143920"/>
      <stop offset=".2" stop-color="#22452e"/>
      <stop offset=".2" stop-color="#4a6653"/>
      <stop offset=".3" stop-color="#899c8f"/>
      <stop offset=".4" stop-color="#dfe5e1"/>
      <stop offset=".4" stop-color="#fcfdfc"/>
      <stop offset=".5" stop-color="#d0e2d5"/>
      <stop offset=".6" stop-color="#64a173"/>
      <stop offset=".7" stop-color="#36854a"/>
      <stop offset="1" stop-color="#143920"/>
    </linearGradient>
    <linearGradient id="linear-gradient-3" x1="49.7" y1="207.6" x2="69.3" y2="207.6" xlink:href="#linear-gradient-2"/>
    <linearGradient id="linear-gradient-4" x1="29" y1="202.1" x2="300" y2="202.1" gradientUnits="userSpaceOnUse">
      <stop offset="0" stop-color="#1e4f2d"/>
      <stop offset=".5" stop-color="#009050"/>
      <stop offset="1" stop-color="#1f502e"/>
    </linearGradient>
    <linearGradient id="linear-gradient-5" x1="276.7" y1="197.4" x2="299.8" y2="197.4" xlink:href="#linear-gradient-2"/>
    <linearGradient id="linear-gradient-6" x1="196.1" y1="170.7" x2="110" y2="112.9" gradientUnits="userSpaceOnUse">
      <stop offset=".4" stop-color="#ada137"/>
      <stop offset="1" stop-color="#595130"/>
    </linearGradient>
    <linearGradient id="linear-gradient-7" x1="209.8" y1="150.3" x2="123.7" y2="92.5" xlink:href="#linear-gradient-6"/>
    <linearGradient id="linear-gradient-8" x1="219.5" y1="135.8" x2="133.4" y2="78" xlink:href="#linear-gradient-6"/>
    <linearGradient id="linear-gradient-9" x1="232.2" y1="116.9" x2="146.2" y2="59" xlink:href="#linear-gradient-6"/>
    <linearGradient id="linear-gradient-10" x1="242.7" y1="101.4" x2="156.6" y2="43.5" xlink:href="#linear-gradient-6"/>
    <linearGradient id="linear-gradient-11" x1="66.7" y1="156.2" x2="200.7" y2="134.3" xlink:href="#linear-gradient-6"/>
    <linearGradient id="linear-gradient-12" x1="67.8" y1="163.3" x2="201.9" y2="141.4" xlink:href="#linear-gradient-6"/>
    <linearGradient id="linear-gradient-13" x1="69.1" y1="171.3" x2="203.2" y2="149.4" xlink:href="#linear-gradient-6"/>
    <linearGradient id="linear-gradient-14" x1="70.3" y1="178.5" x2="204.3" y2="156.5" xlink:href="#linear-gradient-6"/>
    <linearGradient id="linear-gradient-15" x1="260" y1="180.4" x2="275.9" y2="153.7" xlink:href="#linear-gradient-6"/>
    <linearGradient id="linear-gradient-16" x1="260.5" y1="180.7" x2="276.4" y2="154" xlink:href="#linear-gradient-6"/>
    <linearGradient id="linear-gradient-17" x1="145.7" y1="214.6" x2="140.6" y2="234.2" gradientUnits="userSpaceOnUse">
      <stop offset="0" stop-color="#378a47"/>
      <stop offset="1" stop-color="#285f37"/>
    </linearGradient>
    <linearGradient id="linear-gradient-18" x1="134.4" y1="225.1" x2="134.4" y2="286" gradientUnits="userSpaceOnUse">
      <stop offset="0" stop-color="#73a360"/>
      <stop offset="1" stop-color="#327340"/>
    </linearGradient>
    <linearGradient id="linear-gradient-19" x1="148.9" y1="273.4" x2="215.8" y2="273.4" xlink:href="#linear-gradient-18"/>
    <linearGradient id="linear-gradient-20" x1="167.3" y1="239.6" x2="181.8" y2="239.6" xlink:href="#linear-gradient-18"/>
    <linearGradient id="linear-gradient-21" x1="214.4" y1="265.4" x2="166.8" y2="249.8" gradientUnits="userSpaceOnUse">
      <stop offset="0" stop-color="#33703f"/>
      <stop offset=".9" stop-color="#60a05a"/>
    </linearGradient>
    <linearGradient id="linear-gradient-22" x1="113.7" y1="293.3" x2="113.1" y2="237.5" xlink:href="#linear-gradient-21"/>
  </defs>
  <!-- Generator: Adobe Illustrator 28.6.0, SVG Export Plug-In . SVG Version: 1.2.0 Build 709)  -->
  <g>
    <g id="Layer_1">
      <g>
        <path class="cls-46" d="M164.2,15.2C81.1,15.2,13.8,82.6,13.8,165.6s67.3,150.4,150.4,150.4,150.4-67.3,150.4-150.4S247.2,15.2,164.2,15.2ZM164.2,295.2c-71.6,0-129.6-58-129.6-129.6S92.6,36,164.2,36s129.6,58,129.6,129.6-58,129.6-129.6,129.6Z"/>
        <g>
          <path class="cls-36" d="M164.2,317.7c-83.8,0-152-68.2-152-152.1S80.3,13.6,164.2,13.6s152,68.2,152,152.1-68.2,152.1-152,152.1ZM164.2,16.9C82.2,16.9,15.4,83.6,15.4,165.6s66.7,148.8,148.8,148.8,148.7-66.7,148.7-148.8S246.2,16.9,164.2,16.9Z"/>
          <path class="cls-36" d="M164.2,296.8c-72.4,0-131.2-58.9-131.2-131.2S91.8,34.4,164.2,34.4s131.2,58.9,131.2,131.2-58.9,131.2-131.2,131.2ZM164.2,37.7c-70.5,0-127.9,57.4-127.9,127.9s57.4,127.9,127.9,127.9,127.9-57.4,127.9-127.9-57.4-127.9-127.9-127.9Z"/>
        </g>
        <g>
          <g>
            <path class="cls-29" d="M69.4,202v18.8s-7.3,5.9-24.5,5.9-14.3-1.8-16-5.5v-17.1l40.6-2.1Z"/>
            <path class="cls-37" d="M49.7,194.3v26s18.8-2.2,19.6.4v-23l-19.6-3.4Z"/>
            <path class="cls-34" d="M29,196.8s8.6-15.5,96.9-14.8c23,.2,78,5.8,88.6,7.5,10.6,1.6,60.1,6.9,63.2,6.2l22.2.2v21.9s-2.5,6.4-22.9,3.7c-20.4-2.7-107.3-10.3-123.4-11.4-16.1-1.1-123.9-8.8-124.6,10.2v-23.6Z"/>
            <path class="cls-38" d="M277.1,177.2s20.3.4,22.6,9.7v30.6c.1,0-2.2-4.7-23-7.8l.4-32.5Z"/>
          </g>
          <g>
            <path class="cls-35" d="M72.5,202.6l-4.7-13.4h2.9s3.3,9.9,3.3,9.9l3.3-9.9h2.9s-4.8,13.3-4.8,13.3h-2.9Z"/>
            <path class="cls-35" d="M81.3,202.7v-13.3c.1,0,2.8,0,2.8,0v13.3c-.1,0-2.8,0-2.8,0Z"/>
            <path class="cls-35" d="M86.7,202.7l.2-13.3h5.7c1.4,0,2.5.2,3.1.5.6.2,1.2.7,1.5,1.3.4.6.6,1.3.6,2.1,0,1-.3,1.8-.9,2.5-.6.6-1.5,1-2.7,1.2.6.3,1.1.7,1.4,1.1.4.4.9,1.1,1.5,2.2l1.6,2.6h-3.2s-1.9-3-1.9-3c-.7-1-1.1-1.7-1.4-2-.2-.3-.5-.5-.8-.6-.3-.1-.7-.2-1.3-.2h-.5s0,5.6,0,5.6h-2.7ZM89.5,195.1h2c1.3,0,2.1,0,2.4-.1.3-.1.6-.3.8-.6.2-.3.3-.6.3-1,0-.4-.1-.8-.3-1.1-.2-.3-.6-.5-1-.5-.2,0-.9,0-2,0h-2.1s0,3.4,0,3.4Z"/>
            <path class="cls-35" d="M106.2,198.1v-2.2s5.9.1,5.9.1v5.3c-.7.5-1.5,1-2.6,1.4-1.1.4-2.2.6-3.3.6-1.4,0-2.6-.3-3.6-1-1-.6-1.8-1.5-2.3-2.6-.5-1.1-.7-2.3-.7-3.6,0-1.4.3-2.6,1-3.7.6-1.1,1.5-1.9,2.6-2.4.9-.4,1.9-.6,3.2-.6,1.7,0,2.9.4,3.9,1.1.9.7,1.5,1.7,1.7,2.9l-2.7.4c-.2-.7-.5-1.2-1-1.6-.5-.4-1.1-.6-1.9-.6-1.2,0-2.1.3-2.8,1.1-.7.7-1.1,1.8-1.1,3.3,0,1.6.3,2.8,1,3.6.7.8,1.6,1.2,2.7,1.2.6,0,1.1,0,1.7-.3.6-.2,1.1-.5,1.5-.8v-1.7s-3.1,0-3.1,0Z"/>
            <path class="cls-35" d="M114.5,203.2l.4-13.3h2.7c0,0-.4,13.4-.4,13.4h-2.7Z"/>
            <path class="cls-35" d="M119.7,203.4l.5-13.3h2.6c0,0,5.1,9.2,5.1,9.2l.3-8.9h2.5c0,0-.5,13.4-.5,13.4h-2.7c0-.1-5.1-9-5.1-9l-.3,8.7h-2.5Z"/>
            <path class="cls-35" d="M147,199.8l2.6,1c-.5,1.4-1.2,2.5-2.2,3.1-1,.6-2.2.9-3.6.8-1.8-.1-3.2-.8-4.2-2.1-1.1-1.3-1.5-3-1.4-5.1.1-2.2.8-3.9,2-5.1,1.2-1.2,2.8-1.7,4.6-1.6,1.6.1,2.9.7,3.9,1.7.6.6,1,1.5,1.2,2.5l-2.7.5c-.1-.7-.4-1.3-.9-1.7-.5-.4-1.1-.7-1.8-.7-1,0-1.8.2-2.5.9-.7.7-1,1.8-1.1,3.4,0,1.7.1,2.9.7,3.7.6.8,1.3,1.2,2.3,1.2.7,0,1.3-.1,1.9-.6.5-.4,1-1.1,1.2-2.1Z"/>
            <path class="cls-35" d="M151.5,198.3c.1-1.4.4-2.5.9-3.3.4-.6.8-1.2,1.4-1.7.6-.5,1.2-.8,1.8-1,.9-.3,1.8-.4,2.9-.2,2,.2,3.5.9,4.5,2.3,1.1,1.3,1.5,3.1,1.3,5.2-.2,2.1-.9,3.8-2.2,4.9-1.3,1.1-2.9,1.6-4.9,1.4-2-.2-3.5-.9-4.5-2.3s-1.5-3-1.3-5.1ZM154.2,198.5c-.1,1.5,0,2.7.7,3.5.6.8,1.5,1.3,2.5,1.4,1.1.1,2-.2,2.7-.9s1.2-1.8,1.4-3.4c.2-1.5,0-2.7-.7-3.5-.6-.8-1.5-1.3-2.6-1.4-1.1-.1-2,.2-2.8.9-.7.7-1.2,1.8-1.3,3.3Z"/>
            <path class="cls-35" d="M175,202.8l2.5,1.1c-.6,1.4-1.4,2.4-2.4,3-1,.6-2.2.8-3.6.6-1.8-.2-3.1-1-4.1-2.3-1-1.3-1.4-3.1-1.1-5.1.3-2.2,1-3.8,2.3-4.9,1.3-1.1,2.9-1.5,4.7-1.3,1.6.2,2.9.8,3.8,1.9.5.6.9,1.5,1.1,2.6l-2.7.3c0-.7-.3-1.3-.8-1.7-.4-.5-1-.7-1.7-.8-1-.1-1.8.1-2.5.8-.7.6-1.1,1.7-1.3,3.3-.2,1.7,0,2.9.5,3.7.5.8,1.3,1.2,2.2,1.3.7,0,1.3,0,1.9-.5.6-.4,1-1.1,1.4-2Z"/>
            <path class="cls-35" d="M179.7,201.6c.1-1.4.4-2.5.9-3.4.4-.7.8-1.2,1.4-1.7.6-.5,1.2-.9,1.8-1.1.9-.3,1.8-.4,2.9-.3,2,.2,3.5.9,4.6,2.2,1.1,1.3,1.5,3,1.4,5.2-.2,2.1-.9,3.8-2.1,4.9-1.3,1.1-2.9,1.6-4.8,1.5-2-.2-3.5-.9-4.6-2.2-1.1-1.3-1.5-3-1.4-5.1ZM182.5,201.7c-.1,1.5.1,2.7.8,3.5.6.8,1.5,1.3,2.6,1.4,1.1,0,2-.2,2.7-1,.7-.7,1.2-1.8,1.3-3.4.1-1.5-.1-2.7-.7-3.5-.6-.8-1.5-1.2-2.6-1.3-1.1,0-2,.2-2.8.9-.7.7-1.2,1.8-1.3,3.4Z"/>
            <path class="cls-35" d="M194.2,209.3l.8-13.3,2.6.2,4.9,9.2.5-8.9h2.5c0,.1-.8,13.5-.8,13.5l-2.7-.2-4.9-9-.5,8.7h-2.5Z"/>
            <path class="cls-35" d="M208.1,196.7h2.7c0,.1-.3,7.3-.3,7.3,0,1.1,0,1.9,0,2.2,0,.6.3,1,.8,1.4.4.4,1,.5,1.8.6.8,0,1.3,0,1.7-.4.4-.3.7-.7.8-1.1.1-.4.2-1.2.2-2.3l.4-7.4h2.7c0,.1-.3,7.1-.3,7.1,0,1.6-.2,2.7-.4,3.4-.2.7-.5,1.2-.9,1.6-.4.4-.9.8-1.6,1-.7.2-1.5.3-2.6.3-1.3,0-2.2-.3-2.9-.6-.6-.3-1.1-.7-1.5-1.2-.4-.5-.6-1-.7-1.5-.1-.8-.2-1.9,0-3.4l.3-7.1Z"/>
            <path class="cls-35" d="M223.9,210.8l.4-11.1-4-.2v-2.3c0,0,10.7.4,10.7.4v2.3c0,0-4-.2-4-.2l-.4,11.1h-2.7Z"/>
            <path class="cls-35" d="M237.1,204.7c0-1.4.3-2.5.7-3.4.3-.7.8-1.3,1.3-1.8.5-.5,1.1-.9,1.8-1.1.8-.3,1.8-.5,2.9-.4,2,0,3.5.7,4.7,2,1.1,1.3,1.7,3,1.6,5.1,0,2.2-.7,3.8-1.9,5-1.2,1.2-2.8,1.7-4.8,1.7-2,0-3.5-.7-4.7-2-1.1-1.2-1.7-2.9-1.6-5.1ZM239.9,204.7c0,1.5.3,2.7.9,3.5.7.8,1.6,1.2,2.6,1.3,1.1,0,2-.3,2.7-1.1.7-.8,1.1-1.9,1.1-3.4,0-1.5-.2-2.7-.9-3.5-.7-.8-1.5-1.2-2.6-1.2-1.1,0-2,.3-2.7,1.1-.7.7-1.1,1.9-1.1,3.4Z"/>
            <path class="cls-35" d="M251.8,211.7l.4-13.3h2.7c0,0-.4,13.4-.4,13.4h-2.7Z"/>
            <path class="cls-35" d="M257.2,211.9l.3-13.2h2.7c0,0-.2,11-.2,11l6.7.2v2.2c0,0-9.4-.2-9.4-.2Z"/>
          </g>
          <g>
            <path class="cls-33" d="M71.8,202l-4.7-13.4h2.9s3.3,9.9,3.3,9.9l3.3-9.9h2.9s-4.8,13.3-4.8,13.3h-2.9Z"/>
            <path class="cls-33" d="M80.7,202.1v-13.3c.1,0,2.8,0,2.8,0v13.3c-.1,0-2.8,0-2.8,0Z"/>
            <path class="cls-33" d="M86,202.1l.2-13.3h5.7c1.4,0,2.5.2,3.1.5.6.2,1.1.7,1.5,1.3.4.6.6,1.3.6,2.1,0,1-.3,1.8-.9,2.5-.6.6-1.5,1-2.7,1.2.6.3,1.1.7,1.4,1.1.4.4.9,1.1,1.5,2.2l1.6,2.6h-3.2s-1.9-3-1.9-3c-.7-1-1.1-1.7-1.4-2-.2-.3-.5-.5-.8-.6-.3-.1-.7-.2-1.4-.2h-.5s0,5.6,0,5.6h-2.7ZM88.8,194.4h2c1.3,0,2.1,0,2.4-.1.3-.1.6-.3.8-.6.2-.3.3-.6.3-1,0-.4-.1-.8-.3-1.1-.2-.3-.6-.5-1-.5-.2,0-.9,0-2,0h-2.1s0,3.4,0,3.4Z"/>
            <path class="cls-33" d="M105.6,197.5v-2.2s5.8.1,5.8.1v5.3c-.7.5-1.5,1-2.6,1.4-1.1.4-2.2.6-3.3.6-1.4,0-2.6-.3-3.6-1-1-.6-1.8-1.5-2.3-2.6-.5-1.1-.7-2.3-.7-3.6,0-1.4.4-2.6,1-3.7.6-1.1,1.5-1.9,2.6-2.4.9-.4,1.9-.6,3.2-.6,1.7,0,2.9.4,3.9,1.1.9.7,1.5,1.7,1.7,2.9l-2.7.4c-.2-.7-.5-1.2-1-1.6-.5-.4-1.2-.6-1.9-.6-1.2,0-2.1.3-2.8,1.1-.7.7-1.1,1.8-1.1,3.3,0,1.6.3,2.8,1,3.6.7.8,1.6,1.2,2.7,1.2.6,0,1.1,0,1.7-.3.6-.2,1.1-.5,1.5-.8v-1.7s-3,0-3,0Z"/>
            <path class="cls-33" d="M113.8,202.6l.4-13.3h2.7c0,0-.4,13.4-.4,13.4h-2.7Z"/>
            <path class="cls-33" d="M119.1,202.8l.5-13.3h2.6c0,0,5.1,9.2,5.1,9.2l.3-8.9h2.5c0,0-.5,13.4-.5,13.4h-2.7c0-.1-5.1-9-5.1-9l-.3,8.7h-2.5Z"/>
            <path class="cls-33" d="M146.4,199.1l2.6,1c-.5,1.4-1.2,2.5-2.2,3.1-1,.6-2.2.9-3.6.8-1.8-.1-3.2-.8-4.2-2.1-1.1-1.3-1.5-3-1.4-5.1.1-2.2.8-3.9,2-5.1,1.2-1.2,2.8-1.7,4.6-1.6,1.6.1,2.9.7,3.9,1.7.6.6,1,1.5,1.2,2.5l-2.7.5c-.1-.7-.4-1.3-.9-1.7-.5-.4-1.1-.7-1.8-.7-1,0-1.8.2-2.5.9-.7.7-1,1.8-1.1,3.4,0,1.7.1,2.9.7,3.7.6.8,1.3,1.2,2.3,1.2.7,0,1.3-.1,1.9-.6.5-.4,1-1.1,1.2-2.1Z"/>
            <path class="cls-33" d="M150.8,197.7c.1-1.4.4-2.5.9-3.3.4-.6.8-1.2,1.4-1.7.6-.5,1.2-.8,1.8-1,.9-.3,1.8-.4,2.9-.2,2,.2,3.5.9,4.5,2.3,1.1,1.3,1.5,3.1,1.3,5.2-.2,2.1-1,3.8-2.2,4.9-1.3,1.1-2.9,1.6-4.9,1.4-2-.2-3.5-.9-4.5-2.3-1.1-1.3-1.5-3-1.3-5.1ZM153.6,197.9c-.2,1.5,0,2.7.7,3.5.6.8,1.5,1.3,2.5,1.4,1.1.1,2-.2,2.7-.9.8-.7,1.2-1.8,1.4-3.4.1-1.5,0-2.7-.7-3.5-.6-.8-1.4-1.3-2.6-1.4-1.1-.1-2,.2-2.8.9-.7.7-1.2,1.8-1.3,3.3Z"/>
            <path class="cls-33" d="M174.4,202.2l2.5,1.1c-.6,1.4-1.4,2.4-2.4,3-1,.6-2.2.8-3.6.6-1.8-.2-3.1-1-4.1-2.3-1-1.3-1.4-3.1-1.1-5.1.3-2.2,1-3.8,2.3-4.9,1.3-1.1,2.9-1.5,4.7-1.3,1.6.2,2.9.8,3.8,1.9.5.6.9,1.5,1.1,2.6l-2.7.3c0-.7-.3-1.3-.8-1.7-.4-.5-1-.7-1.7-.8-1-.1-1.8.1-2.5.8-.7.6-1.1,1.7-1.3,3.3-.2,1.7,0,2.9.5,3.7.5.8,1.3,1.2,2.2,1.3.7,0,1.3,0,1.9-.5.6-.4,1-1.1,1.4-2Z"/>
            <path class="cls-33" d="M179.1,201c.1-1.4.4-2.5.9-3.4.4-.7.8-1.2,1.4-1.7.6-.5,1.2-.9,1.8-1.1.9-.3,1.8-.4,2.9-.3,2,.2,3.5.9,4.6,2.2,1.1,1.3,1.5,3,1.4,5.2-.2,2.1-.9,3.8-2.1,4.9-1.3,1.1-2.9,1.6-4.8,1.5-2-.2-3.5-.9-4.6-2.2-1.1-1.3-1.5-3-1.4-5.1ZM181.8,201.1c-.1,1.5.1,2.7.8,3.5.6.8,1.5,1.3,2.6,1.4,1.1,0,2-.2,2.7-1,.7-.7,1.2-1.8,1.3-3.4.1-1.5-.1-2.7-.7-3.5-.6-.8-1.5-1.2-2.6-1.3-1.1,0-2,.2-2.8.9-.7.7-1.2,1.8-1.3,3.4Z"/>
            <path class="cls-33" d="M193.6,208.7l.8-13.3,2.6.2,4.9,9.2.5-8.9h2.5c0,.1-.8,13.5-.8,13.5l-2.7-.2-4.9-9-.5,8.7h-2.5Z"/>
            <path class="cls-33" d="M207.5,196.1h2.7c0,.1-.3,7.3-.3,7.3,0,1.1,0,1.9,0,2.2,0,.6.3,1,.8,1.4.4.4,1,.5,1.8.6.8,0,1.3,0,1.7-.4s.7-.7.8-1.1c.1-.4.2-1.2.2-2.3l.4-7.4h2.7c0,.1-.3,7.1-.3,7.1,0,1.6-.2,2.7-.4,3.4-.2.7-.5,1.2-.9,1.6-.4.4-.9.8-1.6,1-.7.2-1.5.3-2.6.3-1.3,0-2.2-.3-2.9-.6-.6-.3-1.1-.7-1.5-1.2-.4-.5-.6-1-.7-1.5-.1-.8-.2-1.9,0-3.4l.3-7.1Z"/>
            <path class="cls-33" d="M223.3,210.2l.4-11.1-4-.2v-2.3c0,0,10.7.4,10.7.4v2.3c0,0-4-.2-4-.2l-.4,11.1h-2.7Z"/>
            <path class="cls-33" d="M236.5,204.1c0-1.4.3-2.5.7-3.4.3-.7.8-1.3,1.3-1.8.5-.5,1.1-.9,1.8-1.1.8-.3,1.8-.5,2.9-.4,2,0,3.5.7,4.7,2,1.1,1.3,1.7,3,1.6,5.1,0,2.2-.7,3.8-1.9,5-1.2,1.2-2.8,1.7-4.8,1.7-2,0-3.5-.7-4.7-2-1.1-1.2-1.7-2.9-1.6-5.1ZM239.2,204c0,1.5.3,2.7.9,3.5.7.8,1.6,1.2,2.6,1.3,1.1,0,2-.3,2.7-1.1.7-.8,1.1-1.9,1.1-3.4,0-1.5-.2-2.7-.9-3.5-.7-.8-1.5-1.2-2.6-1.2-1.1,0-2,.3-2.7,1.1-.7.7-1.1,1.9-1.1,3.4Z"/>
            <path class="cls-33" d="M251.2,211.1l.4-13.3h2.7c0,0-.4,13.4-.4,13.4h-2.7Z"/>
            <path class="cls-33" d="M256.6,211.2l.3-13.2h2.7c0,0-.2,11-.2,11l6.7.2v2.2c0,0-9.4-.2-9.4-.2Z"/>
          </g>
        </g>
        <g>
          <path class="cls-44" d="M69.9,105.4l11.7-.3c0,2,.5,3.4,1.4,4.3,1,.9,2.2,1.4,3.7,1.4,2.6,0,3.9-1,3.9-2.9s-.6-2.1-1.8-3c-1.2-.9-3.5-1.9-6.8-3.1-7.9-2.7-11.9-7.6-11.9-14.6s1.6-8.5,4.7-11.1c3.2-2.6,7-3.9,11.6-3.9s8.6,1.4,11.6,4.1c2.8,2.6,4.2,6.3,4.2,11.3s0,.7,0,1l-11.7.3c0-3.8-1.4-5.7-4.2-5.7s-1.9.3-2.6.8c-.7.5-1,1.2-1,2.2s.5,2.3,1.6,3.1c1.1.8,3.4,1.9,7,3.3,4,1.5,6.9,3.3,8.9,5.4,2,2.1,2.9,5.3,2.9,9.5s-1.6,7.8-4.6,10.5c-3.1,2.6-7,3.9-11.9,3.9s-6-.6-8.5-1.7c-2.5-1.1-4.6-2.9-6.2-5.5-1.4-2.3-2.2-5.1-2.2-8.3,0-.3,0-.7,0-1Z"/>
          <path class="cls-41" d="M109.4,106.2v-33.1h12c0,2.5,0,7.8,0,16s0,13.6,0,16.2c0,1.7.5,3,1.3,4,.8,1,1.9,1.4,3.2,1.4s2.3-.5,3.1-1.4c.7-1,1.2-2.3,1.2-4,0-2.4,0-7.7,0-15.9s0-13.6,0-16.3h12c0,5.7,0,11.3,0,16.8s0,11,0,16.5c0,4.8-1.7,8.6-4.9,11.3-3.2,2.7-7.1,4.1-11.7,4.1s-8.4-1.4-11.5-4.1c-3.1-2.7-4.7-6.6-4.8-11.5Z"/>
          <path class="cls-39" d="M150.4,120.8v-47.7c3.6,0,7.2,0,10.8,0s4.7,0,6.6.2c1.9.2,3.9.6,6,1.2,2.2.7,3.9,1.6,5.3,2.7,1.4,1.1,2.5,2.7,3.4,4.8.9,2.1,1.4,4.6,1.4,7.4,0,4.8-1.6,8.7-4.8,11.6-3.2,2.9-7.4,4.4-12.7,4.4h-3.4c0-.1,0,15.4,0,15.4h-12.7ZM163,95c.5,0,1.2,0,2.2,0,1.8,0,3.2-.4,4.3-1.4,1.1-.9,1.7-2.3,1.7-4.3,0-3.6-2.2-5.3-6.5-5.3h-1.7v10.9Z"/>
          <path class="cls-42" d="M189.2,120.8v-47.7h26.8v11.1h-14.1v7.1h12.8v10.8h-12.8v7.7h14.1v11.1h-26.8Z"/>
          <path class="cls-30" d="M224.2,120.8v-47.7c4.1,0,8.3-.1,12.8-.1s5.8.2,8,.5c2.2.4,4.3,1,6.3,1.9,1.9.9,3.4,2.3,4.4,4.1,1,1.8,1.5,4,1.5,6.7,0,6.2-2.8,10.5-8.3,13,1.1.7,2.2,2,3.2,4.1.8,1.6,1.7,3.9,2.9,6.8,1.2,2.9,2.2,5.4,3.1,7.6l1.2,3.2h-13.5l-7-18h-1.9v18h-12.7ZM236.9,93.4c.1,0,.6.1,1.4.2,4.2,0,6.3-1.7,6.3-5.1s-2-5.1-5.9-5.1h-1.8v10Z"/>
        </g>
        <g>
          <path class="cls-43" d="M107.6,145.7c-.2-.4-.4-.7-.6-1-4-6.1-12.6-7.9-18.9-4.2-6.1,3.6-8,11.8-4.7,17.7,4.3,6,12.8,8.2,19.3,4.4,2-1.2,3.5-2.7,4.8-5h9.8c-1.2,3.6-3.2,8.2-6.3,11-9.2,8.6-23.6,8.2-32.4-.6-9.2-9.4-9-24.2.7-33.4,9.1-8.4,23.3-8.2,32.1.7,2.6,2.7,4.5,5.8,6.4,10.5h-10.2Z"/>
          <path class="cls-31" d="M157.5,168.1c-9.1,8.7-23.6,8.4-32.3-.6-9-9.2-8.8-24,.7-33.2,9-8.6,23.2-8.3,31.9.6,9,9.3,9,24-.4,33.2ZM134.8,140c-6.2,3.6-8.4,12.2-4.7,18.1,3.9,6.4,12.6,8,19.1,4.2,6.1-3.6,8.1-12.2,4.4-18.2-3.8-6.4-12.5-7.8-18.7-4.1Z"/>
          <path class="cls-2" d="M202.1,145.7c-.2-.4-.4-.7-.6-1-4-6.1-12.6-7.9-18.9-4.2-6.1,3.6-8,11.8-4.7,17.7,4.3,6,12.8,8.2,19.3,4.4,2-1.2,3.5-2.7,4.8-5h9.8c-1.2,3.6-3.2,8.2-6.3,11-9.2,8.6-23.6,8.2-32.4-.6-9.2-9.4-9-24.2.7-33.4,9.1-8.4,23.3-8.2,32.1.7,2.6,2.7,4.5,5.8,6.4,10.5h-10.2Z"/>
          <path class="cls-40" d="M252.5,168.1c-9.1,8.7-23.5,8.4-32.3-.6-9-9.2-8.8-24,.7-33.2,9-8.6,23.2-8.3,31.9.6,9,9.3,9,24-.4,33.2ZM229.9,140c-6.2,3.6-8.4,12.2-4.7,18.1,3.9,6.4,12.5,8,19.1,4.2,6.1-3.6,8.1-12.2,4.4-18.2-3.8-6.4-12.5-7.8-18.7-4.1Z"/>
        </g>
        <g>
          <path class="cls-1" d="M267.9,174.8c-4.2,0-7.6-3.4-7.6-7.6s3.4-7.6,7.6-7.6,7.6,3.4,7.6,7.6-3.4,7.6-7.6,7.6ZM267.9,160.1c-3.9,0-7,3.2-7,7s3.2,7,7,7,7-3.2,7-7-3.2-7-7-7Z"/>
          <path class="cls-45" d="M265.2,162.6h2.7c1.2,0,2,.2,2.6.7.6.4.9,1.1.9,2s-.2,1.2-.5,1.6c-.3.4-.9.7-1.5.8l2.6,4.1h-1.7l-2.3-3.9h-1.2v3.9h-1.4v-9.2ZM266.6,163.8v2.9h1.1c.7,0,1.2-.1,1.6-.4.4-.2.5-.6.5-1.1s-.2-.9-.5-1.2c-.3-.2-.9-.4-1.6-.4h-1.1Z"/>
        </g>
        <g>
          <path class="cls-10" d="M210.7,264.7c0,11.7-9.5,21.2-21.2,21.2s-21.2-9.5-21.2-21.2,9.5-21.2,21.2-21.2,21.2,9.5,21.2,21.2Z"/>
          <g>
            <g class="cls-32">
              <g>
                <path class="cls-19" d="M214.2,283.1c-2.3,4.6-5.8,8.2-10.3,10.9-.3.2-.8.3-.6.8-.3-.2-.6,0-.8,0-1.6.7-3.2,1.4-4.9,1.9-.2,0-.5.2-.5.5,0,0,0,0,0-.1-1.4-.1-2.8,0-4,.9-.6-.5-1.3-.4-1.9-.3-3.6.4-7.2-.1-10.6-1.2-9.6-2.9-16.5-8.9-20.9-17.6-.2-.4-.3-.9-.8-1,0-.4-.2-.8-.5-1.1-.2-.2-.1-.4-.2-.6,0,0,0-.1,0-.2,0-.5-.2-1-.5-1.5-.2-1-.4-2-.8-3,0-.6-.1-1.2-.3-1.7,0-.9-.2-1.8-.3-2.7,0-1.3,0-2.6,0-3.9.3-.6,0-1.2.2-1.8,0-.2,0-.3,0-.4,0-.8.4-1.7.7-2.5.2-.9.5-1.7.8-2.6.5-1.5,1.2-3,2.1-4.4.5-.9,1.1-1.8,1.7-2.6.3-.5.8-.8,1.1-1.3.4-.5.7-1,1.2-1.4.5-.4,1-.8,1.4-1.4-.5-.5-.1-1,0-1.4.2-.4,0-1-.6-1.1-.6,0-1.3.7-1.9,1.1-.7.5-1.4.9-2,1.4-1,.7-1.7,1.7-2.6,2.5-.9.8-1.8,1.7-2.6,2.6-1.4,1.6-2.7,3.3-3.8,5.1-.6,1-1.1,2.1-1.6,3.2-1.5,3.9-2.2,8.2-2.3,12.4,0,2.3.1,4.6.4,6.9.4,3.1,1.1,6.4,2.3,9.3,1.2,2.8,2.8,6.1,5,8.2,1,1,2.2,1.8,3.3,2.6.9.6,2.1,1.6,3.1,2,1.2.4,2.2,1,3.3,1.5,1.1.5,2.4.8,3.6,1.1,1,.3,2,.5,3,.8,1.9.4,3.7.7,5.6.9,9.1,1,18.5-.3,25.9-5.9,2-1.5,3.9-3.3,5.4-5.2,1.3-1.7,2.6-3.4,3.6-5.3.2-.4,2.4-5,2.2-5-.6,0-.7.5-.9.8Z"/>
                <path class="cls-19" d="M168.7,242.3h0c0,0,.2-.2.3-.2h0,0s0,0,0,0c.1-.2.4-.1.5-.3,3.6-2,7.4-3.3,11.5-3.8-.5-.6-1.1-.2-1.6-.2-3.6.2-7,1.1-10.2,2.5-.2,0-.4,0-.5.2-.3.2-.6.5-.7.9,0,.4-.3,1.1.7.9Z"/>
              </g>
            </g>
            <g>
              <path class="cls-3" d="M181.8,236.9c-.5-.4-1.1,0-1.6-.2,1.7-.4,3.5-.2,5.2-.2,0,0,.1,0,0,.1,0,0,0,0,0,0-.4,0-.8,0-1.3,0-.6.2-1.3,0-1.9.2-.2,0-.3,0-.5,0Z"/>
              <path class="cls-3" d="M186.5,236.5c.7-.1,1.3.2,2,.2-.8.4-1.5.4-2.3,0,0-.1.2-.2.3-.2Z"/>
              <path class="cls-22" d="M156.9,263.1c0-.6-.2-1.3.2-1.8,0,.6.1,1.3-.2,1.8Z"/>
              <path class="cls-9" d="M182.3,236.9c.6-.4,1.2-.2,1.9-.2-.6.4-1.2.2-1.9.2Z"/>
              <path class="cls-3" d="M186.5,236.5c0,0-.2.1-.3.2-.2,0-.5,0-.8,0,0,0,0-.1,0-.2.3,0,.7,0,1,0Z"/>
              <path class="cls-14" d="M159,277.3c-.2-.1-.2-.3-.2-.6.2.2.2.4.2.6Z"/>
              <path class="cls-25" d="M169.8,241.1c.1-.2.3-.3.5-.3-.1.2-.3.3-.5.3Z"/>
              <path class="cls-25" d="M169.5,241.3c0,0,.2-.2.3-.2,0,.1-.1.2-.3.2Z"/>
              <path class="cls-7" d="M166.4,243.7c0-.1.2-.2.3-.3,0,0-.2.2-.3.3Z"/>
              <path class="cls-7" d="M166.2,243.9c0,0,.2-.2.3-.2,0,.1-.1.2-.3.2Z"/>
              <path class="cls-28" d="M164.4,245.7c0,0,.1-.2.2-.2,0,.1,0,.2-.2.2Z"/>
              <path class="cls-28" d="M164.1,246c0,0,.2-.2.2-.3,0,.1-.1.2-.2.3Z"/>
              <path class="cls-13" d="M162.3,248.2c0-.2,0-.3.3-.3,0,.1-.2.2-.3.3Z"/>
              <path class="cls-13" d="M162.1,248.6c0,0,.1-.2.2-.3,0,.1,0,.2-.2.3Z"/>
              <path class="cls-22" d="M159.7,252.5c0-.1.1-.2.2-.3,0,.1-.1.2-.2.3Z"/>
              <path class="cls-22" d="M159.5,253c0-.1.1-.2.2-.3,0,.1-.1.2-.2.3Z"/>
              <path class="cls-12" d="M217.9,267.2c0-.1.1-.2.3-.2,0,0,0,.1,0,.2h-.3Z"/>
              <path class="cls-8" d="M217.4,261.5c-2.3,2.7-3.8,5.7-5,9-.8-.5-.2-1.2-.2-1.8.8-3.1,1.8-6.1,3.6-8.7.2-.2.3-.4.5-.6.4.4.4.9.5,1.3,0,.3.2.6.5.8Z"/>
              <path class="cls-23" d="M212.2,268.7c.1.6-.2,1.3.2,1.8-.2.9-.5,1.9-.7,2.8-.2.4-.2.8,0,1.3-.5,1.8-1,3.6-1.9,5.3-3,5.6-7.6,9.2-13.8,10.4-5.1,1-10,.3-14.7-2-3.2-1.6-6-3.6-8.4-6.3-2.2-2.6-4.1-5.4-5.2-8.6-.6-1.8-1.3-3.6-1.4-5.5-.1-1.5-.5-3-.2-4.6.2-1.4.2-2.9.6-4.3,1-4.3,3.1-8,6.5-10.9,2.8-2.4,6.1-3.8,9.8-4.5,1.3-.2,2.5-.3,3.8-.3,3,0,5.9.7,8.7,1.8,3.7,1.4,6.8,3.6,9.4,6.5.9,1,2,2,2.5,3.4-.6.5-1.3.7-2.1.7-.9-.3-1.3-1.1-1.8-1.8-3.5-3.9-7.7-6.5-12.9-7.5-1.4-.3-2.9-.2-4.4-.2-1.1,0-2.2.2-3.2.4-.2,0-.5,0-.7.2-.1,0-.2,0-.3,0-.2,0-.3.1-.5.2-.1,0-.2,0-.3.1-1.4.5-2.7,1.2-3.9,2.1-.1.1-.3.2-.4.3,0,0-.2.1-.3.2,0,0-.2.1-.3.2,0,0,0,0-.1.1,0,0-.1.2-.2.2,0,0,0,0-.1.1-1.7,1.6-3.1,3.5-3.9,5.7-1.1,2.7-1.4,5.4-1.3,8.3,0,.7.2,1.5-.3,2.2.5,2.5,1.1,5,2.2,7.4,2,4.4,5,7.7,9.2,10,2.9,1.5,5.9,2.4,9.1,2.8,2.1.3,4.3.4,6.4.2,3.4-.3,6.2-1.9,8.5-4.6,2.4-2.8,3.7-6,5-9.4.5-1.4,1-2.9,1.5-4.4Z"/>
              <path class="cls-11" d="M208.6,262.8c.6-1.7.9-3.4.8-5.2.3,1,.5,2,1,3,.1.2.2.3.5.4-.6,1-1.1,1.9-1.7,2.9-.6-.2-.4-.7-.5-1Z"/>
              <path class="cls-20" d="M208.4,255.8c.1,0,.2.1.2.3h0c-.2,0-.3,0-.3-.3h0Z"/>
              <path class="cls-4" d="M202.9,271.6c-.3-.1-.4-.3-.5-.6,3-2,4.9-4.9,6.2-8.2.3.3.2.7.5,1-1.1,3.4-3.2,5.9-6.2,7.7Z"/>
              <path class="cls-13" d="M161,245c0,0,0-.2,0-.3,0,0,.2,0,.2,0h0c0,0-.2.2-.3.3Z"/>
              <path class="cls-13" d="M160.7,245.2c0,0,.2-.2.3-.3,0,0-.2.2-.3.3Z"/>
              <path class="cls-6" d="M165.1,240.1c0,0-.2-.2-.2-.3,0,0,.2.2.2.3Z"/>
              <path class="cls-24" d="M159.2,246.5c0,0,.2-.2.3-.2,0,0-.2.2-.3.2Z"/>
              <path class="cls-27" d="M170.4,210.4c.2-.2.3-.5.3-.9,0-.7-.4-1.3-1-1.6-1.2-.8-2.4-.3-3.5.5-1.2.8-2.2,1.5-3.7,1.4-3.4,0-6.9,0-10.4,0-3.8,0-7.9.1-11.5,1.4-1,.4-1.8,1.3-2.8,1.6-1.2.4-1.9-.3-2.5-1.3-.9-1.3-1.8-2.6-2.9-3.8-.6-.7-1.6-2.1-2.7-1.5-.8.4-.2,2.1,0,2.7.7,1.8,2.4,2.9,3.8,4.1,1.2,1,2.6,2.5,2.3,4.2-.3,2-3.2,1.8-4.7,2.1-2.6.5-5,1.6-7.4,3-1,.6-2,1.2-2.9,1.9-.6.4-1.9,1-2,1.8,0,.8.6,1,1.1,1.2,2.8,1.3,5.8,1.4,8.8,1.7,1.5.1,3,.5,4.6.7,3.2.2,6.4-.1,9.7-.5,2.9-.4,5.9-.5,8.7-1.2,1-.3,2.7-.7,3.1-1.9.4-1.1-1-1.8-1.7-2.3-1.1-.7-2.1-1.5-3.3-2.1-2.6-1.4-5.4-2.3-8.3-2.8-.7-.1-1.9,0-2.4-.5-.7-.7-.6-2.3,0-3,.5-.5,1.2-.5,1.8-.8.7-.3,1.4-.5,2.1-.7,1.6-.5,3.2-.7,4.9-.7,5.4-.1,10.8-.2,16.2-1,1.6-.2,3.1-.5,4.6-.9.6-.1,1.2-.2,1.6-.6Z"/>
              <path class="cls-15" d="M167.5,239.7c-.7-.7-1.2-2.2-1.5-2.7-1.1-1.7-2.4-3.5-3.7-5-2.3-2.6-4.8-4.9-7.5-7.1,0,0-2.9,1.6-3.3,1.8-1.1.5-2.3.8-3.5,1-2.6.4-5.2.4-7.8.6-5.3.5-10.6.2-15.8-.7-1-.2-1.9-.4-2.9-.7-.2,0-2.6-1.3-2.6-1.3-1.9,1.7-4,3.4-5.7,5.3-1.8,1.9-3.4,3.9-4.8,6-3,4.6-5.3,9.7-6.6,15-1.6,6.5-2,12.7-.5,19.2.8,3.2,1.8,6.1,3.2,9,.9,1.9,1.7,3.9,3,5.6,2.9,4,6.5,8.1,11.2,10,1.7.7,3.5,1,5.2,1.2,3.5.4,6.6,2.2,10,3.1,3.3.9,7,1.2,10.3.2,2.4-.7,4.4-2.8,6.9-3.4,1.3-.3,2.6,0,3.9,0,.8,0,1.7,0,2.5,0-.3-.5-.8-.9-1.2-1.4-.6-.8-1.4-1.4-1.8-2.3,0-.6-.5-1-.7-1.6-.2-.4-.5-.7-.9-.9,0-.3,0-.5-.1-.7-.3-.4-.2-1.1-.9-1.2,0,0,0,0,0-.1,0-.2,0-.3,0-.4-.1-.1-.2-.2-.3-.2.3-.7-.2-1.2-.4-1.8-.3-.8-.4-1.7-.8-2.6,0-.2-.2-.3-.4-.4.1-.2.1-.4.1-.7,0-.1,0-.2,0-.3-.1-.3-.1-.7-.2-1,0-.3-.2-.6-.5-.7.2-.2.3-.4.3-.7,0-.8-.2-1.7-.2-2.5-.1-.6-.1-1.3-.6-1.7.2-.2.2-.4.2-.6-.1-.5,0-1,0-1.6.2-.3.2-.6.3-.9,0-1.6-.1-3.3.1-4.9,0-.3,0-.6.1-.8,0-.4,0-.8.2-1.2,0-.5.1-1,0-1.4,0-.1-.1-.2-.2-.3.1,0,.2-.1.3-.2,0-.1.1-.2.2-.4,0-.3,0-.6.2-.8,0-.1,0-.2,0-.3,0-.2.1-.4.2-.6,0-.1,0-.2,0-.3,0-.3.1-.6,0-.9,1-.7.9-1.9,1.4-2.8,0-.2.1-.5.2-.7,0-.1.1-.2.1-.4,0-.1,0-.2,0-.3.2-.2.3-.5.5-.7,0-.1.2-.2.2-.3,0,0,0-.1,0-.2.4-.9.9-1.8,1.5-2.6,0,0,.1-.2.2-.3,0-.2.2-.5.3-.7.6-.3.7-1,1.3-1.3.2-.3.4-.7.5-1,.3-.3.7-.5,1-.8.3-.4.7-.9,1-1.3,0,0,.2-.2.3-.2,0,0,.2,0,.3,0,.3-.4.6-.8,1-1,0,0,.2-.2.3-.3,0,0,0-.2,0-.3h.2c.6-.4,1-1.2,1.8-1.3v-.2c.1,0,.2-.2.3-.3,0-.1.2-.2.3-.3.5,0,.8-.6,1.3-.5.1-.4.6-.5.7-.8.5.4.3.9.2,1.4,0,.4-.4,1,.4,1.2,0,0,.2-.2.3-.2.3-.3.7-.4,1-.8.3-.3.3-.8.4-1.2.1-.6.6-1.1.7-1.7-.3.1-.6,0-.9-.3Z"/>
              <path class="cls-5" d="M215,283.7c-2.4,4.8-5.8,8.5-10.4,11.3-.3.2-.8.3-.6.8-.3-.2-.6,0-.8,0-1.6.7-3.3,1.4-4.9,2-.2,0-.5.2-.5.6,0,0,0,0,0-.1-1.4-.1-2.8,0-4,.9-.6-.5-1.3-.4-2-.3-3.6.4-7.2-.1-10.6-1.2-9.6-3-16.5-9.3-20.9-18.3-.2-.4-.3-.9-.8-1,0-.4-.2-.8-.5-1.1-.2-.2-.1-.4-.2-.6,0,0,0-.1,0-.2,0-.5-.3-1.1-.5-1.6-.2-1.1-.4-2.1-.8-3.1,0-.6,0-1.2-.3-1.8.1-1-.2-1.9-.3-2.8,0-1.4,0-2.7,0-4.1.3-.6,0-1.3.2-1.8,0-.2,0-.3,0-.5,0-.9.4-1.8.7-2.6.2-.9.5-1.8.8-2.7.5-1.6,1.2-3.1,2-4.6.5-.9,1.1-1.8,1.7-2.7.3-.5.8-.9,1.1-1.3.4-.5.7-1,1.2-1.5.5-.5,1-.9,1.4-1.5-.5-.5-.1-1,0-1.5.2-.5,0-1.1-.5-1.1-.7,0-1.4.8-1.9,1.1-.7.5-1.4.9-2.1,1.4-1,.7-1.7,1.7-2.5,2.6-.9.9-1.8,1.7-2.6,2.7-1.4,1.6-2.7,3.4-3.8,5.3-.6,1.1-1.1,2.2-1.6,3.3-1.5,4.1-2.2,8.6-2.3,12.9,0,2.4.1,4.8.4,7.2.4,3.2,1.1,6.7,2.3,9.7,1.2,2.9,2.8,6.4,5,8.6,1,1,2.2,1.9,3.3,2.7.9.6,2,1.7,3.1,2.1,1.2.4,2.2,1,3.3,1.6,1.1.6,2.4.8,3.6,1.2,1,.3,2,.6,3,.8,1.9.4,3.7.7,5.6.9,9.1,1.1,18.5-.3,25.9-6.2,2-1.6,3.9-3.4,5.4-5.4,1.3-1.7,2.6-3.5,3.6-5.5.2-.4,2.4-5.2,2.2-5.2-.6,0-.7.5-.8.8Z"/>
              <path class="cls-18" d="M180.2,236.7c-3.6.2-7,1.1-10.2,2.6-.2,0-.4,0-.5.2-.4,0-.8.2-1.1.5-.9.5-1,1.5-1.2,2.4,0,.2.2.2.4.3.6-.4,1.3-.8,1.8-1.3h0c0,0,.2-.2.3-.2h0s0,0,0,0c.1-.2.4-.1.5-.3,3.6-2.1,7.4-3.4,11.6-3.9-.5-.6-1.1-.2-1.6-.2Z"/>
              <path class="cls-16" d="M151.1,229.6l15.6,10.9s-12.8,6.7-16.2,18.8c0,0,6-22.2-.4-26.8,0,0-2.5-3.6,1.1-3Z"/>
              <path class="cls-26" d="M113.1,231.2s10.9-3.9,10.9,5.7-1.5,12.9-3.1,19.6c-1.7,7.1-1.8,14.7,3.1,20.6,10.5,12.9-17.2,10.5-21.8-3.5,0,0-7.6-21,10.9-42.4Z"/>
              <path class="cls-17" d="M218.3,267.3c-.1-.1-.2-.2-.4-.2-.2,0-.4.1-.5.3-.8-.1-1.2.5-1.7.9-1.7,1.5-3.1,3.4-4.1,5.5-.1.3-.3.6-.4.9-.1.4-.2.8-.3,1.2-2.8,9.6-11.4,15.6-22,14.4-13.4-1.6-24.2-14.6-22.4-28.9,1.5-11.7,11.1-18.7,22.3-17.5,7.7.8,13.8,4.7,18.2,11.1.2.5.8.6,1.1.9.1.1.3.2.4.4.4.5.5,1,.7,1.6.1.5.1,1,.4,1.5.3.6.3,1.6,1.2,1.8,1.4-1.1,2.6-2.6,4-3.8,0,0,0-.1,0-.2.5,0,.9,0,1.1-.5-.4-.6-.8-1.2-1.1-1.9-3.8-7.1-10-12.9-17.5-16-2.2-.9-4.4-1.8-6.8-2.1-2.4-.3-4.8-.2-7.2-.1-4.5.1-9.2,1.1-12.8,3.9-.2.1-.4.3-.6.4-.1,0-.2.1-.3.2,0,0-.2.1-.3.2-.1,0-.2.1-.3.2-.5.3-1,.6-1.5,1-.3.3-.7.5-1,.8,0,0-.1.2-.2.2,0,0,0,0-.1.1,0,0-.2.2-.2.2,0,0-.2.2-.2.2-.4.4-.8.8-1.2,1.2,0,0-.2.2-.2.2,0,0,0,0-.1.1,0,0-.2.2-.2.2,0,0-.1.2-.2.2-.5.4-.8,1-1.2,1.5-.1.1-.2.3-.3.4,0,0-.1.2-.2.3,0,0-.1.2-.2.3,0,0-.1.2-.2.3-.7,1-1.3,2-1.8,3.1,0,.2-.1.3-.2.5,0,.1-.1.2-.1.3,0,.2-.2.3-.2.5,0,.1,0,.2-.1.3-1.1,2.3-1.6,4.8-2.1,7.3,0,.2,0,.4,0,.6,0,.6,0,1.3-.2,1.9-.2,1.3,0,2.6,0,3.9,0,1,.4,1.9.3,2.8,0,.6.2,1.2.3,1.9.2,1,.5,2,.8,3,.2.5.4,1,.5,1.6,0,.1,0,.2.1.3,0,.2.2.4.3.6.2.4.3.9.7,1.2.1.2.3.4.4.7,3.1,6.7,7.7,11.9,14,15.7,5.6,3.3,11.6,4.9,18.2,4.4.5,0,1.1,0,1.7,0,1.4-.3,2.7-.5,4.1-.8,2.1-.7,4.2-1.6,6.2-2.6.3-.2.6-.4.9-.6,5.8-3.6,10.4-9.5,12.5-15.9.6-1.8.9-3.8,1.1-5.7.2-1.7.9-4.8-.3-6.3Z"/>
              <g>
                <path class="cls-21" d="M219,254.9c-.6.2-1.2.5-1.7.7-1.7.7-3.4,1.6-4.7,3-1,1-2.1,2-2.9,3.1-1.1,1.6-1.7,3.5-2.8,5.2-1,1.7-2.6,3.1-4.3,4.2-1.1.7-2.3,1.2-3.5,1.5-2.2.7-4.6.8-6.9.2-2.3-.7-3.4-2.4-5.3-3.7-1.6-1.2-2.8-2.6-4.7-3.2-1.6-.6-3.3-.8-5-.8-2.4,0-4.4,0-6.6,1-.3.3-.6,1-.5,1.4.7,3.8,2,7.3,4.3,10.4,3.9,5.4,9.4,8.1,15.9,9.1,2.6.4,5.2.5,7.8.1,4.9-.8,8.1-3.9,10.3-8.1,1.8-3.3,3-6.8,4-10.3.6-2,1.3-4,2.1-6,.8-2,2.1-3.9,3.9-5.1.4-.3,4.4-2.6,2.5-2.8-.6,0-1.3.2-1.9.3Z"/>
                <g>
                  <path class="cls-21" d="M237.7,255.8c0,0-.2,0-.2,0-3.5-1.1-8-1-11.5-.1-2,.5-3.8,1.4-5.4,2.6-.8.6-1.6,1.3-2.3,2-.7.7-1.5,1.2-2.1,2-1.7,2.2-3.5,5.3-4.1,8-.2,1.1-1.4,3.1-.5,4.1.2-.2.2-.4.3-.7.2-.4.5-.9.7-1.3,1.3-2.1,2.7-4,4.9-5.2.1,0,.2-.1.3-.2,0,0,.2-.2.3-.2.7-.4,1.5-.7,2.3-.9,2.4-.6,4.7-.6,7.1-.3,3.2.3,6.2-.1,9-1.7,1.2-.7,2.3-1.6,3-2.7,1.5-2.2.4-4.3-1.8-5.2ZM230,255.5s0,0,0,0c0,0,0,0,0,0,0,0,0,0-.1,0Z"/>
                  <path class="cls-21" d="M221.1,251.5c2.8-.8,5.1-2.3,6.8-4.8.5-.8.9-1.6,1.1-2.5.3-1.9,0-3.5-1.7-4.7-1.5-1.1-3.6-.4-4.1,1.4-.5,1.7.4,3.5.2,5.2-.2,1.2-.7,2.2-1.4,3.1-.4.6-3.3,2.8-.9,2.2Z"/>
                </g>
                <path class="cls-21" d="M209.4,257.3c-.2-1-.7-1.8-1.6-2.3-2.4-1.4-4.8,1.8-4.8,4,0,1.7-.4,3.4-.7,5.1-.3,1.6-.9,3.2-1.9,4.5,0,0-.1.2-.2.3,0,0,0,0-.1.1,0,0-.2.2-.2.2,0,0,0,0-.1.1,0,0-.1.1-.2.2,0,0,0,0-.1.1,0,0-.2.1-.3.2-.1,0-.2.1-.3.2-1.5,1-3.2,1.3-4.9,1.6-.3,0-.9,0-.9.5,0,.5.6.4.9.4,2.9.2,5.6-.1,8.2-1.6,1.2-.9,2.4-1.7,3.3-2.9,1.4-1.7,2.5-3.7,3.3-5.8.5-1.3.9-3.4.5-5Z"/>
              </g>
            </g>
          </g>
        </g>
      </g>
    </g>
  </g>
</svg>