<?xml version="1.0" encoding="UTF-8"?>
<svg xmlns="http://www.w3.org/2000/svg" version="1.1" viewBox="0 0 644.1 168.4">
  <defs>
    <style>
      .cls-1 {
        fill: #fff;
      }
    </style>
  </defs>
  <!-- Generator: Adobe Illustrator 28.6.0, SVG Export Plug-In . SVG Version: 1.2.0 Build 709)  -->
  <g>
    <g id="Layer_1">
      <g id="_图层_2" data-name="图层_2">
        <g id="_图层_1-2" data-name="图层_1-2">
          <path class="cls-1" d="M30.5,35.2l3.5-1c-.4,6.6,1.7,13,6,18l-3.1,1c-7.4-7.7-6.3-18-6.3-18M50.9,29.1l3.1,1.7c-4.9,4.3-8,10.4-8.5,17l-2.9-1.5c.2-10.6,8.3-17.2,8.3-17.2M69.6,39l.9,3.4c-6.6-.4-13,1.7-18,6l-1-3.2c7.6-7.3,18-6.3,18-6.3M75.7,59.3l-1.7,3.1c-4.4-4.9-10.5-7.9-17-8.4l1.6-3c10.6.2,17.2,8.3,17.2,8.3M65.7,78l-3.4,1c.4-6.6-1.7-13-6-18l3.2-1c7.4,7.6,6.3,18,6.3,18M45.5,84.2l-3.1-1.7c4.9-4.3,8-10.4,8.5-17l2.9,1.5c-.2,10.6-8.3,17.2-8.3,17.2M26.7,74.2l-.9-3.4c6.6.4,13-1.7,18-6l1,3.2c-7.6,7.4-18,6.3-18,6.3M20.6,53.9l1.7-3.1c4.3,4.9,10.4,8,17,8.5l-1.5,2.9c-10.6-.2-17.2-8.3-17.2-8.3M0,84.2c0,46.5,37.7,84.2,84.2,84.2V0C37.7,0,0,37.7,0,84.2"/>
          <path class="cls-1" d="M116.2,162.1c2-.8,4-1.7,5.9-2.7V9c-1.9-1-3.9-1.9-5.9-2.7v155.8Z"/>
          <path class="cls-1" d="M141.5,145.9c1.5-1.3,2.9-2.7,4.2-4.2V26.7c-1.4-1.4-2.7-2.9-4.2-4.2v123.4Z"/>
          <path class="cls-1" d="M156.6,127.2c1.2-2,2.3-4.1,3.4-6.3V47.5c-1-2.1-2.2-4.2-3.4-6.2v85.9Z"/>
          <path class="cls-1" d="M128,156.1c1.7-1,3.4-2.2,5.1-3.3V15.6c-1.6-1.2-3.3-2.3-5.1-3.3v143.8Z"/>
          <path class="cls-1" d="M102.7,166.4c2.8-.6,5.7-1.4,8.4-2.4V4.4c-2.8-.9-5.6-1.7-8.4-2.3v164.3Z"/>
          <path class="cls-1" d="M87.6,168.4c3.7-.2,7.3-.5,10.9-1.2V1.2c-3.6-.6-7.3-1-10.9-1.2v168.3Z"/>
          <path class="cls-1" d="M621.9,28.6c-6.7,0-11.9-5.2-11.9-12.4s5.2-12.3,11.9-12.3,11.9,5.3,11.9,12.3-5.2,12.4-11.9,12.4M621.9,1.4c-8.1,0-14.8,6.4-14.9,14.5,0,0,0,.2,0,.3-.2,8.2,6.3,15,14.4,15.2,8.2.2,15-6.3,15.2-14.4,0-.3,0-.5,0-.8,0-8.1-6.4-14.7-14.6-14.8,0,0-.2,0-.2,0"/>
          <path class="cls-1" d="M618.8,15.2v-5.3h3.5c1.8,0,3.7.4,3.7,2.5s-1.9,2.8-4.1,2.8h-3.1ZM628.6,12.6c0-3.4-2-4.9-6-4.9h-6.4v17.2h2.5v-7.4h2.9l4.5,7.4h2.9l-4.8-7.5c2.5-.3,4.4-1.6,4.4-4.7"/>
          <polygon class="cls-1" points="224 168.4 224 45.1 180.2 45.1 180.2 20 297.9 20 297.9 45.1 254.1 45.1 254.1 168.4 224 168.4"/>
          <rect class="cls-1" x="316.4" y="20" width="30.1" height="148.4"/>
          <path class="cls-1" d="M462.2,113.2l28.1,8.8c-4.3,15.7-11.5,27.4-21.5,35s-22.8,11.4-38.2,11.4c-19.1,0-34.8-6.5-47.1-19.5s-18.4-30.8-18.4-53.4c0-23.9,6.2-42.5,18.5-55.7,12.3-13.2,28.6-19.8,48.8-19.8,17.6,0,31.9,5.2,42.9,15.5,6.5,6.2,11.5,14.9,14.7,26.4l-28.7,6.8c-1.4-6.9-5.2-13.1-10.7-17.5-5.4-4.3-12-6.4-19.8-6.4s-19.4,3.8-26,11.5-10,20-10,37.1c0,18.1,3.3,31,9.8,38.7,6.6,7.7,15.1,11.5,25.6,11.5,7.3.1,14.5-2.5,20-7.3,5.6-4.9,9.6-12.5,12-23"/>
          <path class="cls-1" d="M589.5,109.6l-20.8-54.8-20.1,54.8h40.8ZM644.1,168.4h-32.4l-12.7-33.8h-59.5l-12.3,33.8h-31.8l57.9-148.4h31.5l59.4,148.4Z"/>
        </g>
      </g>
    </g>
  </g>
</svg>