<?xml version="1.0" encoding="UTF-8"?>
<svg xmlns="http://www.w3.org/2000/svg" version="1.1" viewBox="0 0 360 360" fill="currentColor">
  <defs>
    <style>
      .cls-1 {
        display: none;
      }
    </style>
  </defs>
  <!-- Generator: Adobe Illustrator 28.7.1, SVG Export Plug-In . SVG Version: 1.2.0 Build 142)  -->
  <g>
    <g id="Layer_1">
      <g class="cls-1">
        <path d="M129.9,73.9c.9-5.1,1.4-9.8,2.5-14.4,3.6-14.3,11-26.3,23.4-34.8,20-13.6,45.8-10.1,62,8.2,9.8,11.1,14.9,24,15.9,38.7.1,1.8.7,2.3,2.5,2.3,15.2,0,30.3,0,45.5,0,4.3,0,5.7,1.3,5.5,5.7-.8,16.4-1.6,32.9-2.4,49.3-.5,10.7-1,21.4-1.5,32.1-.9,18.8-1.9,37.6-2.8,56.4-.3,5.6-.4,11.2-.9,16.8-1.2,12.2-9.9,19.9-22.1,19.9-31.3,0-62.5,0-93.8,0-19.3,0-38.5,0-57.8,0-11.6,0-19.9-6.8-21.5-18.2-.8-6-.8-12.2-1-18.3-.8-17.7-1.6-35.5-2.4-53.2-.3-7.4-.7-14.8-1-22.2-.8-18.7-1.7-37.3-2.5-56-.1-2.3-.2-4.6-.3-6.9-.2-3.7,1.5-5.5,5.2-5.5,15,0,30,0,45.1,0,.9,0,1.8,0,2.7,0ZM181.2,103.1c-6.7-.1-13.2,1.2-19.1,4.4-10.8,5.9-17,14.7-16.5,27.3.4,9.4,5.6,16.2,12.9,21.6,6.6,4.8,14.4,7,21.8,10,5.1,2,10.2,3.8,15.1,6.1,2.8,1.3,5.4,3.3,7.6,5.5,9.7,9.3,7.9,23.1-3.9,29.6-9.1,5-18.7,5.4-28.6,2.8-7.6-2-14.4-5.6-20.6-10.5-2.3-1.9-2.8-1.8-4.5.8-1.1,1.6-2.1,3.3-3.3,4.8-1.1,1.4-.7,2.4.6,3.4,5.6,4.4,11.5,8.2,18.2,10.5,12.9,4.4,25.9,5.9,39,1,11.7-4.4,18.7-12.8,20.6-25.2,1.9-12.1-2.9-21.4-12.8-28.4-8.2-5.8-17.5-9.4-27-12.6-6.3-2.1-12.4-4.5-17.5-9-7.3-6.4-7.9-16.1-1.5-23.4,3.4-3.9,7.7-6.2,12.7-7.1,10.2-1.9,19.8.4,29,4.9,1.6.8,3.1,1.8,4.7,2.7,2.3,1.4,2.5,1.3,3.9-.8.8-1.3,1.6-2.5,2.4-3.8,1.7-2.8,1.6-3.2-1.2-5-9.8-6.2-20.6-9.3-32.2-9.5ZM220,73.7c-.2-1.7-.3-3.3-.5-4.8-1.5-11.5-6-21.5-14.5-29.5-12-11.3-29.2-12.5-42.5-2.8-9.1,6.6-14.4,15.7-16.9,26.5-.8,3.4-1.1,7-1.7,10.7h76Z"/>
        <path d="M191.4,297.6c9.3-5.5,17.6-4.9,23.6,1.6,5.4,5.8,6,14.6,1.3,21-2.9,4-6.8,6.3-11.7,6.9-4.9.6-9.2-.8-13.4-3.9,0,1.2-.1,1.9-.1,2.7,0,5.6,0,11.2,0,16.8,0,1.6-.5,2.1-2.1,2.1-3.5,0-3.5,0-3.5-3.5,0-15,0-29.9,0-44.9,0-.9.3-2.4.6-2.4,1.4-.3,3.1-.4,4.4,0,.6.2.5,2.1.8,3.5ZM202.5,299.4c-6.2,0-11.3,5.1-11.3,11.2,0,6.1,5,11.1,11.3,11.2,6,0,11.4-5.2,11.3-11.2,0-6.1-5.2-11.2-11.3-11.2Z"/>
        <path d="M100,278.6c-.3.6-.5,1-.8,1.4-2.5,3.7-2.4,2.9-5.1,1.4-4-2.1-8.3-3.5-12.8-2.2-2.1.6-4.2,1.9-5.7,3.5-2.6,2.6-2.4,6.7.5,9,2.3,1.8,5.1,3.1,7.8,4.3,3.5,1.6,7.2,2.6,10.5,4.3,6.7,3.5,9.2,8.2,8.1,14.9-.9,5.8-5.7,10.4-12.3,11.7-8.1,1.5-15.4-.3-22-5.1-1.9-1.4-1.8-1.5.3-4.5,1.1-1.6,1.9-.8,3,0,5.1,3.5,10.7,5.7,17,4.3,3.5-.8,6.5-2.3,7.9-5.9,1.3-3.2.3-5.9-2-8.2-2.6-2.6-6-3.6-9.2-4.9-3.9-1.5-8.1-2.8-11.5-5.2-8.3-5.7-7.4-16.8,1.6-21.7,5.1-2.8,10.5-2.6,15.9-1.2,3.2.8,6.3,2,8.9,4.2Z"/>
        <path d="M114.4,296.9c2.7-.9,5.1-2.1,7.7-2.6,8.7-1.7,17.6,5.4,17.9,14.3.2,5.8,0,11.6,0,17.5,0,.4,0,.8-.2,1.4h-5.5c0-1.7,0-3.3,0-5,0-4,0-8.1,0-12.1,0-6.3-4.2-10.6-10.1-10.6-5.9,0-10,4.3-10.1,10.6,0,4.9,0,9.8,0,14.7,0,1.9-.5,2.8-2.5,2.5-1-.1-2,0-3.1,0,0-1-.1-1.7-.1-2.4,0-16.4,0-32.8,0-49.2,0-2.3.9-2.6,2.8-2.5,1.8,0,3.1,0,3,2.6-.2,6.3,0,12.6,0,19,0,.7,0,1.4,0,1.9Z"/>
        <path d="M231.6,312.3c.4,4.5,4.3,8.1,9.6,9,4.9.8,9.2-.8,13.1-4,.8,1.1,1.4,2,2.1,2.9,1,1.2.5,2-.6,2.8-3.1,2.3-6.6,3.4-10.4,3.8-9.1.9-16.8-3.9-19.1-12-1.8-6.6-.3-12.4,4.8-17.1,4.6-4.2,10.1-5.3,16-3.1,6.4,2.4,9.8,7.3,10.6,13.9.4,3-.2,3.6-3.4,3.6-6.8,0-13.6,0-20.5,0h-2.3ZM251.5,306.6c-.8-4.1-5.3-7.5-9.9-7.4-4.7,0-8.9,3.2-9.5,7.4h19.4Z"/>
        <path d="M292.9,317.3c.9,1.3,1.8,2.4,2.3,3.6.2.6-.4,1.8-.9,2.2-3.1,2.4-6.7,3.5-10.6,3.8-9.7.8-17.5-4.8-19.2-13.8-1.8-9.6,4.9-18.4,14.6-19.4,8.8-.9,16.9,6.5,17.2,15.7,0,2.3-.3,2.8-2.7,2.8-7,0-13.9,0-20.9,0h-2.6c.5,3.6,2.5,6,5.3,7.5,6.2,3.2,11.9,1.9,17.5-2.5ZM290.1,306.6c-1-4.3-5.5-7.5-10-7.4-4.7.1-8.7,3.1-9.5,7.4h19.5Z"/>
        <path d="M145.6,310.2c0-9.2,7.5-16.5,16.9-16.5,9.5,0,16.9,7.4,16.8,17,0,9-7.6,16.3-16.9,16.3-9.5,0-17-7.5-16.9-16.7ZM162.5,299.3c-6.4,0-11.3,4.9-11.2,11.1,0,6.1,5.1,11,11.3,10.9,6.3,0,11.4-5.1,11.3-11.2,0-6-5.2-10.9-11.3-10.9Z"/>
      </g>
      <g>
        <path d="M254.7,294.6c-1.3-.2-2.5-.5-3.8-.7-11.3-2.3-19.9-11.7-21.2-23.2-1-9.1.9-17.2,7-24.1,9.3-10.6,26-11.5,35.3-1.2,0,0,.2.1.6.4,0-.9,0-1.6,0-2.3,0-8.7,0-17.3,0-26,0-1.7.4-2.3,2.2-2.2,3.1.1,6.2,0,9.5,0v78c-3.6,0-7.1,0-10.6,0-.4,0-1-.9-1-1.4-.1-1.6,0-3.3,0-5.2-.5.3-.7.4-.9.6-3.4,3.8-7.7,6-12.7,6.9-.6.1-1.1.4-1.7.5h-2.9ZM257.6,283.4c9.2,0,16.1-7.1,16.2-16.9,0-10.1-6.6-17.6-15.9-17.7-9.3,0-16.3,7.3-16.3,17.2,0,9.8,6.8,17.2,16,17.3Z"/>
        <path d="M236.8,45.2c9.7,5.7,19.3,11.5,29,17.2,2.7,1.6,5.5,3.2,8.1,5.1,1.3,1,2.1,2.6,3.2,3.9-1.1.1-2.4,0-3.3.5-4.9,2.5-9.7,5.2-14.5,7.8-2.5,1.4-5,2.8-7.5,4.2-2.4,1.4-4.7,2.8-7.1,4.1-2.4,1.3-4.7,2.5-7.1,3.8-1.8,1-3.6,1.9-5.4,2.9-2.1,1.1-4.2,2.2-6.2,3.3-2.2,1.2-4.4,2.5-6.7,3.7-.3,0-.5,0-.8,0-.1-1.2-.4-2.3-.4-3.5,0-13.2,0-26.5,0-39.7,0-1-.3-2-.4-3,5.6-3.5,11.1-6.9,16.7-10.4.8,0,1.7,0,2.5,0Z"/>
        <path d="M77.2,294.6c-1.3-.3-2.6-.7-3.9-1-10.6-3-17-10.3-19.2-20.8-2.4-11.6.6-21.9,10.2-29.5,9.5-7.5,23.7-6.8,31.5,1.9.2.2.4.3.9.7v-6.6c3.8,0,7.4,0,11,0,.4,0,1,1.1,1,1.8,0,5.5,0,11.1,0,16.6,0,11.1,0,22.3,0,33.4,0,1.7-.5,2.3-2.2,2.2-3.2-.1-6.3,0-9.7,0v-6.8c-1,.9-1.6,1.5-2.2,2.1-3.4,3.1-7.5,4.9-12,5.7-.4,0-.8.3-1.3.4h-4.2ZM97.6,266.2c0-12.5-11-20.5-22.1-16.1-6.6,2.7-10.4,9.5-9.9,17.8.7,10.6,9.9,17.6,20.1,15.1,7.1-1.7,11.9-8.5,11.9-16.8Z"/>
        <path d="M316.2,294.6c-1.3-.4-2.6-.7-3.9-1.1-10.1-2.7-18-11.7-19.4-22.3-1.3-9.5.9-18,7.3-25.2,9.3-10.3,25.2-10.7,34.9-.8,0,0,.2.1.7.4,0-1.8,0-3.4,0-5,0-1,.3-1.5,1.4-1.5,3.5,0,7,.1,10.6.2v54c-3.3,0-6.6-.1-9.9,0-1.7,0-2.2-.6-2.1-2.1.1-1.4,0-2.8,0-4.8-3.4,3.8-7.1,6-11.3,7.2-1.4.4-2.7.7-4.1,1h-4.2ZM320.8,283.4c9.3,0,16-7.3,16-17.3,0-9.9-6.9-17.3-16.1-17.3-9.2,0-16.1,7.4-16,17.3,0,10,6.8,17.2,16.1,17.2Z"/>
        <path d="M189.9,294.6c-1.2-.3-2.3-.7-3.5-1-11.1-2.8-19.2-12.9-19.9-25.1-.6-11.4,3.2-20.7,13.1-26.9,9.5-6,21.1-4.5,29.1,3.4.2.2.5.4,1,.9v-6.7c3.8,0,7.4,0,10.9,0,.3,0,.7.5.9.9.2.4,0,1,0,1.4,0,16.4,0,32.8,0,49.2,0,2-.6,2.6-2.6,2.5-3-.2-6.1,0-9.2,0v-6.5c-.4,0-.6,0-.7.1-3.7,4.3-8.5,6.5-14,7.3-.2,0-.4.3-.6.4h-4.6ZM178.6,266.1c-.1,14,12.8,21.1,23.5,15.5,6.8-3.6,9-9.9,8.5-17.2-.6-9.1-7.6-15.6-16.3-15.5-9.1.1-15.6,7.4-15.7,17.2Z"/>
        <path d="M15.3,219.8h12.5c0,1,.1,1.8.1,2.7,0,18.7,0,37.4,0,56.1,0,2.1.5,2.7,2.7,2.7,5.6-.1,11.2,0,16.8,0h2.4v12.2H15.3v-73.6Z"/>
        <path d="M130.4,45.2c2.1,1.2,4.2,2.5,6.3,3.7-.3,1.2-.8,2.3-.8,3.5,0,13.5,0,27,0,40.5,0,1.1.3,2.5-1.2,3-.6-.1-1.1-.3-1.7-.4-1-.6-1.9-1.3-2.9-1.9-3-1.7-6.1-3.5-9.1-5.2.3-1.2.8-2.4.8-3.6,0-10.5,0-21,0-31.5,0-1.2-.5-2.4-.8-3.6,2.6-1.5,5.3-3.1,7.9-4.6.6,0,1.1,0,1.7,0Z"/>
        <path d="M192.4,194c-1.9,1.2-3.8,2.5-5.8,3.6-2.5,1.3-5.2,1.5-7.6,0-12.1-7.4-24.1-14.9-36.1-22.4,0-23,0-46.1,0-69.1q0-3.4,3.1-3.6c0,0,.1,0,.2,0,1.5.7,3,1.4,4.6,2.1,5.5,3,11.1,6.1,16.6,9.1,2.4,1.2,4.7,2.5,7.1,3.7,2.6,1.4,5.3,2.8,7.9,4.1,2.2-1.2,4.4-2.5,6.6-3.7,1-.4,1.9-.8,2.9-1.3,1.7.6,1.2,2,1.2,3.2,0,23.4,0,46.8,0,70.2,0,1.3-.5,2.7-.8,4Z"/>
        <path d="M146,250.1h-27.5v-10.7h43.1c0,3,.1,6,0,9,0,.9-1.1,1.7-1.7,2.5-8.3,10-16.7,20-25,30-.3.4-.6.8-1.1,1.4,1,0,1.7.1,2.5.1,7.9,0,15.8,0,23.7,0,1.8,0,2.5.4,2.4,2.3-.2,2.3,0,4.7,0,7.1,0,.9-.1,1.6-1.3,1.6-14.1,0-28.2,0-42.4,0,0,0-.1,0-.5-.2,0-2.9,0-6,0-9.1,0-.5.6-.9.9-1.3,8.5-10.1,17-20.3,25.4-30.4.4-.5.9-1.1,1.7-2.1Z"/>
        <path d="M259.3,79.7c4.8-2.6,9.6-5.3,14.5-7.8.9-.5,2.2-.3,3.3-.5,0,.2,0,.5,0,.7,0,22.5,0,45,0,67.5-.7,1.1-1.2,2.6-2.3,3.3-4.9,3.1-9.9,6-14.8,9,0-22.8,0-45.5,0-68.3,0-1.3-.5-2.7-.8-4Z"/>
        <path d="M120.9,88.4c3,1.7,6.1,3.4,9.1,5.2,1,.6,2,1.2,2.9,1.9-.1,1.4-.4,2.7-.4,4.1,0,23.1,0,46.1,0,69.2-5-3.1-10-6.2-14.9-9.2-.1-1-.4-2.1-.4-3.1,0-21.9,0-43.8,0-65.8,0-1,.8-2.1,1.2-3.1.8.3,1.7.6,2.5.8Z"/>
        <path d="M118.4,87.6c-.4,1-1.2,2.1-1.2,3.1,0,21.9,0,43.8,0,65.8,0,1,.2,2.1.4,3.1-5.1-3.2-10.3-6.4-15.4-9.6,0-22.2,0-44.4,0-66.5,0-1.4.5-2.8.8-4.2,2.2,1.1,4.4,2.2,6.7,3.3,2.9,1.7,5.8,3.3,8.7,5Z"/>
        <path d="M103,79.3c-.3,1.4-.8,2.8-.8,4.2,0,22.2,0,44.4,0,66.5-3.7-2.2-7.5-4.4-11.2-6.7-2-1.3-2.9-3.2-2.9-5.6,0-21.2,0-42.3,0-63.5,0-.9.3-1.9.4-2.8,4.8,2.6,9.7,5.3,14.5,7.9Z"/>
        <path d="M132.4,168.8c0-23.1,0-46.1,0-69.2,0-1.4.3-2.7.4-4.1.6.1,1.1.3,1.7.4,2.6,1.4,5.3,2.8,7.9,4.2,1.2.8,2.5,1.7,3.7,2.5,0,0-.1,0-.2,0q-3.1.2-3.1,3.6c0,23,0,46.1,0,69.1-3.5-2.2-7-4.3-10.4-6.5Z"/>
        <path d="M259.3,79.7c.3,1.3.8,2.7.8,4,0,22.8,0,45.5,0,68.3-2.8,1.7-5.5,3.5-8.3,5.2.1-1.2.4-2.3.4-3.5,0-22,0-44.1,0-66.1,0-1.2-.3-2.5-.4-3.7,2.5-1.4,5-2.8,7.5-4.2Z"/>
        <path d="M214,180.6c-2.6,1.6-5.3,3.3-7.9,4.9.1-.9.4-1.8.4-2.7,0-23.8,0-47.5,0-71.3,0-.8-.5-1.6-.8-2.4l3.8-2.4c1.4-.6,2.8-1.2,4.1-1.8.1,1.2.4,2.3.4,3.5,0,24.1,0,48.1,0,72.2Z"/>
        <path d="M205.7,109.2c.3.8.8,1.6.8,2.4,0,23.8,0,47.5,0,71.3,0,.9-.3,1.8-.4,2.7-2.4,1.4-4.7,2.9-7.1,4.3.1-1.1.4-2.2.4-3.3,0-23.3,0-46.7,0-70,0-1.2-.3-2.5-.4-3.7,1.5-1,3-1.9,4.6-2.9.7-.3,1.4-.6,2.1-.8Z"/>
        <path d="M219.4,101.7c2.2-1.2,4.4-2.5,6.7-3.7.1,1.2.4,2.3.4,3.5,0,23.8,0,47.6,0,71.4-2.4,1.5-4.7,3-7.1,4.4,0-25.2,0-50.4,0-75.6Z"/>
        <path d="M251.8,83.8c.1,1.2.4,2.5.4,3.7,0,22,0,44.1,0,66.1,0,1.2-.3,2.3-.4,3.5-2.6,1.6-5.3,3.3-7.9,4.9.4-1.3,1.2-2.7,1.2-4,0-22.3,0-44.7,0-67,0-1-.3-2-.4-3.1,2.4-1.4,4.7-2.8,7.1-4.1Z"/>
        <path d="M244.7,88c.1,1,.4,2,.4,3.1,0,22.3,0,44.7,0,67,0,1.3-.8,2.7-1.2,4-1.8,1.1-3.6,2.2-5.4,3.3,0-23.1,0-46.3,0-69.4,0-1.4-.5-2.8-.8-4.2,2.4-1.3,4.7-2.5,7.1-3.8Z"/>
        <path d="M199,112.9c.1,1.2.4,2.5.4,3.7,0,23.3,0,46.7,0,70,0,1.1-.3,2.2-.4,3.3-2.2,1.4-4.4,2.7-6.7,4.1.3-1.3.8-2.7.8-4,0-23.4,0-46.8,0-70.2,0-1.2.4-2.6-1.2-3.2,1.4-.8,2.8-1.7,4.2-2.5,1-.4,1.9-.9,2.9-1.3Z"/>
        <path d="M237.7,91.7c.3,1.4.8,2.8.8,4.2,0,23.1,0,46.3,0,69.4-2,1.2-3.9,2.4-5.9,3.6-.1-1.1-.4-2.2-.4-3.3,0-23.7,0-47.4,0-71.1,1.8-1,3.6-1.9,5.4-2.9Z"/>
        <path d="M232.3,94.7c0,23.7,0,47.4,0,71.1,0,1.1.2,2.2.4,3.3-2.1,1.3-4.1,2.6-6.2,3.8,0-23.8,0-47.6,0-71.4,0-1.2-.3-2.3-.4-3.5,2.1-1.1,4.2-2.2,6.2-3.3Z"/>
        <path d="M219.4,101.7c0,25.2,0,50.4,0,75.6-1.8,1.1-3.6,2.2-5.4,3.4,0-24.1,0-48.1,0-72.2,0-1.2-.3-2.3-.4-3.5,1.7-1.1,3.3-2.1,5-3.2.3,0,.5,0,.8,0Z"/>
        <path d="M118.4,87.6c-2.9-1.7-5.8-3.3-8.7-5,.1-1,.4-1.9.4-2.9,0-7.8,0-15.6,0-23.4,3.6-2.2,7.2-4.3,10.9-6.5.3,1.2.8,2.4.8,3.6,0,10.5,0,21,0,31.5,0,1.2-.5,2.4-.8,3.6-.8-.3-1.7-.6-2.5-.8Z"/>
        <path d="M110,56.3c0,7.8,0,15.6,0,23.4,0,1-.3,1.9-.4,2.9-2.2-1.1-4.4-2.2-6.7-3.3-4.8-2.6-9.7-5.3-14.5-7.9.8-1.1,1.3-2.6,2.3-3.3,6.3-4,12.8-7.9,19.2-11.8Z"/>
        <path d="M277.2,139.6c0-22.5,0-45,0-67.5.1.9.3,1.8.3,2.6,0,20.7,0,41.5,0,62.2,0,.9-.2,1.7-.4,2.6Z"/>
        <path d="M218.6,101.8c-1.7,1.1-3.3,2.1-5,3.2-1.4.6-2.8,1.2-4.1,1.8-.1-1.2-.4-2.3-.4-3.5,0-13,0-26,0-38.9,0-1-.3-2-.5-3,3.1-1.9,6.1-3.9,9.2-5.8.1,1,.4,2,.4,3,0,13.2,0,26.5,0,39.7,0,1.2.3,2.3.4,3.5Z"/>
        <path d="M167.4,113.8c-5.5-3-11.1-6.1-16.6-9.1.3-1.2.8-2.3.8-3.5,0-13,0-25.9,0-38.9,0-1.2.3-2.3.5-3.5,5.2,3.2,10.5,6.5,15.7,9.7-.1,1.2-.4,2.3-.4,3.5,0,14,0,27.9,0,41.9Z"/>
        <path d="M152.1,58.7c-.2,1.2-.5,2.3-.5,3.5,0,13,0,25.9,0,38.9,0,1.2-.5,2.3-.8,3.5-1.5-.7-3-1.4-4.6-2.1-1.2-.8-2.5-1.7-3.7-2.5.3-1.5.8-3.1.8-4.6,0-13,0-26,0-38.9,0-1,.3-2,.4-3,2.8,1.8,5.6,3.5,8.3,5.3Z"/>
        <path d="M143.8,53.5c-.2,1-.4,2-.4,3,0,13,0,26,0,38.9,0,1.5-.5,3.1-.8,4.6-2.6-1.4-5.3-2.8-7.9-4.2,1.6-.5,1.2-1.8,1.2-3,0-13.5,0-27,0-40.5,0-1.2.5-2.3.8-3.5,2.4,1.5,4.7,3,7.1,4.6Z"/>
        <path d="M167.4,113.8c0-14,0-27.9,0-41.9,0-1.2.3-2.3.4-3.5,2.4,1,4.7,2,7.1,3,0,14.3,0,28.5,0,42.8,0,1.1-.3,2.2-.4,3.3-2.4-1.2-4.7-2.5-7.1-3.7Z"/>
        <path d="M174.5,117.5c.1-1.1.4-2.2.4-3.3,0-14.3,0-28.5,0-42.8,2.4.4,4.7.7,7.1,1.1,0,14.6,0,29.3,0,43.9,0,1.7.3,3.4.4,5.1-2.6-1.4-5.3-2.8-7.9-4.1Z"/>
        <path d="M196.1,114.2c-1.4.8-2.8,1.7-4.2,2.5-1,.4-1.9.8-2.9,1.3-.1-1.2-.4-2.3-.4-3.5,0-14.2,0-28.4,0-42.6,2.2-.8,4.4-1.7,6.7-2.5.1,1,.4,2,.4,3,0,12.2,0,24.3,0,36.5,0,1.8.3,3.6.4,5.4Z"/>
        <path d="M196.1,114.2c-.1-1.8-.4-3.6-.4-5.4,0-12.2,0-24.3,0-36.5,0-1-.3-2-.4-3,2.4-1.4,4.7-2.8,7.1-4.2.1,1.3.4,2.6.4,3.9,0,12.7,0,25.5,0,38.2,0,.9.5,1.9.8,2.8-1.5,1-3,1.9-4.6,2.9-1,.4-1.9.9-2.9,1.3Z"/>
        <path d="M188.6,71.8c0,14.2,0,28.4,0,42.6,0,1.2.3,2.3.4,3.5-2.2,1.2-4.4,2.5-6.6,3.7-.1-1.7-.4-3.4-.4-5.1,0-14.6,0-29.3,0-43.9,2.2-.2,4.4-.5,6.6-.7Z"/>
        <path d="M203.6,110c-.3-.9-.8-1.9-.8-2.8,0-12.7,0-25.5,0-38.2,0-1.3-.3-2.6-.4-3.9,2.1-1.3,4.1-2.5,6.2-3.8.2,1,.5,2,.5,3,0,13,0,26,0,38.9,0,1.2.3,2.3.4,3.5-1.3.8-2.5,1.6-3.8,2.4-.7.3-1.4.6-2.1.8Z"/>
      </g>
    </g>
  </g>
</svg>