<?xml version="1.0" encoding="UTF-8"?>
<svg xmlns="http://www.w3.org/2000/svg" version="1.1" viewBox="0 0 360 360">
  <defs>
    <style>
      .cls-1 {
        fill: #f37022;
      }

      .cls-2 {
        fill: #eb248f;
      }

      .cls-3 {
        fill: #ee3f75;
      }

      .cls-4 {
        fill: #f15a33;
      }

      .cls-5 {
        fill: #f15623;
      }

      .cls-6 {
        fill: #ed1981;
      }

      .cls-7 {
        fill: #c94e9d;
      }

      .cls-8 {
        fill: #f26822;
      }

      .cls-9 {
        fill: #282868;
      }

      .cls-10 {
        fill: #ed1c3e;
      }

      .cls-11 {
        fill: #ef4f2d;
      }

      .cls-12 {
        fill: #ed1676;
      }

      .cls-13 {
        fill: #ed1987;
      }

      .cls-14 {
        fill: #ef5330;
      }

      .cls-15 {
        fill: #ed165f;
      }

      .cls-16 {
        fill: #f04a28;
      }

      .cls-17 {
        fill: #ed1859;
      }

      .cls-18 {
        fill: #ed194f;
      }

      .cls-19 {
        fill: #f58021;
      }

      .cls-20 {
        fill: #f47821;
      }

      .cls-21 {
        fill: #f04c55;
      }

      .cls-22 {
        fill: #ed1766;
      }

      .cls-23 {
        display: none;
      }

      .cls-24 {
        fill: #ef522f;
      }

      .cls-25 {
        fill: #f15f23;
      }

      .cls-26 {
        fill: #ef4661;
      }

      .cls-27 {
        fill: #ef442c;
      }

      .cls-28 {
        fill: #ed146d;
      }

      .cls-29 {
        fill: #ed3994;
      }

      .cls-30 {
        fill: #f05149;
      }

      .cls-31 {
        fill: #d7489a;
      }

      .cls-32 {
        fill: #ee388c;
      }

      .cls-33 {
        fill: #ed1b45;
      }
    </style>
  </defs>
  <!-- Generator: Adobe Illustrator 28.7.1, SVG Export Plug-In . SVG Version: 1.2.0 Build 142)  -->
  <g>
    <g id="Layer_1">
      <g class="cls-23">
        <path class="cls-9" d="M252.2,296.7c-1.2-.3-2.5-.7-3.7-1-10-2.7-17.7-11.8-18.8-22.1-1-8.7.9-16.6,6.8-23.3,8.9-10.3,25.2-11.2,34.2-1.2.1.1.3.2.7.5v-29.4h11.3v75.2h-11.3v-6.3c-1.8,1.5-3.3,2.9-5,4-2.9,1.9-6.2,3.1-9.7,3.3-.3,0-.5.2-.8.4h-3.6ZM256.8,285.9c9,0,15.5-7.2,15.4-16.9,0-9.5-6.8-16.5-15.8-16.4-8.7,0-15.4,7.2-15.4,16.7,0,9.6,6.7,16.8,15.7,16.7Z"/>
        <path class="cls-9" d="M82.2,296.7c-1.3-.3-2.5-.6-3.8-1-10.3-2.9-16.5-10-18.6-20.2-2.1-10,.2-19.1,7.6-26.6,9.2-9.2,24.8-9.4,33,.1.1.1.3.2.7.4v-6.3h11.6v52.1h-11.5v-6.5c-3,3.3-6.1,5.4-9.8,6.6-1.8.6-3.6.9-5.5,1.4h-3.6ZM102.1,269.3c-.2-1.5-.3-3.1-.6-4.5-2.4-11.1-15.4-16-24.3-9-5.8,4.6-7.1,10.9-5.7,17.9,1.8,8.7,9.9,13.8,18.6,11.8,7.2-1.6,11.9-8,12.1-16.2Z"/>
        <path class="cls-9" d="M313.3,296.7c-1.2-.3-2.5-.7-3.7-1-9.8-2.6-17.4-11.4-18.8-21.5-1.3-9.3.8-17.5,7.1-24.5,9.1-10.1,25.3-10.3,34.2-.1v-6.7h11.7v52.7h-11.6v-6.7c-3.2,3.7-6.8,5.8-11,7-1.4.4-2.9.6-4.4,1h-3.6ZM317.8,285.9c9,0,15.5-7,15.5-16.9,0-9.4-6.6-16.5-15.5-16.5-9,0-15.6,7.1-15.6,16.8,0,9.6,6.6,16.6,15.6,16.6Z"/>
        <path class="cls-9" d="M191.1,296.7c-1.2-.3-2.3-.7-3.5-1-11-2.9-18.8-13.1-19.2-25-.3-10.7,3.5-19.4,12.7-25.2,9.2-5.8,21.4-4.4,28.4,3.5.2.2.4.3.8.7v-6.5h11.4v52.1h-11.2v-6.2c-.2-.2-.4-.3-.6-.5-.6.8-1.2,1.7-1.9,2.4-3.5,3.1-7.6,4.9-12.3,5.3-.2,0-.4.2-.6.4h-4ZM195.7,285.9c8.9,0,15.5-7,15.5-16.6,0-9.6-6.6-16.7-15.4-16.7-9,0-15.6,7-15.6,16.8,0,9.6,6.5,16.6,15.5,16.6Z"/>
        <path class="cls-9" d="M22.3,224.3h12.2v59.3h21.1v11.9H22.3v-71.1Z"/>
        <path class="cls-31" d="M228.1,59.1c2-1.2,4-2.4,6-3.6.8,0,1.6,0,2.4,0,3.8,2.2,7.5,4.4,11.3,6.5,0,9.8,0,19.7,0,29.5,0,.8.3,1.7.4,2.5-2.4,1.5-4.8,2.9-7.3,4.4-1.7,1-3.5,1.9-5.2,2.9-2.1,1.1-4.3,2.1-6.4,3.2-.1-.8-.4-1.5-.4-2.3,0-13.1,0-26.2,0-39.3,0-1.3-.5-2.6-.8-3.8Z"/>
        <path class="cls-20" d="M133.6,55.5c2,1.2,4,2.4,6.1,3.6-.3.8-.8,1.6-.8,2.5,0,13.3,0,26.7,0,40,0,1.1-.3,2.2-.4,3.3-.3,0-.5,0-.8,0-3.8-2.1-7.7-4.2-11.5-6.4-.8-.4-1.5-1.1-2.2-1.6.3-1.1.8-2.3.8-3.4,0-9.3,0-18.5,0-27.8,0-1.9-.2-3.8-.4-5.7,2.5-1.5,5.1-3,7.6-4.5.5,0,1.1,0,1.6,0Z"/>
        <path class="cls-5" d="M137.7,105c.3,0,.5,0,.8,0,2.4,1.3,4.8,2.7,7.2,4,2.8,1.5,5.6,3,8.4,4.4,1.7,1.1,3.5,2.1,5.2,3.2-.1.9-.4,1.8-.4,2.7,0,22.3,0,44.7,0,67,0,.9-.5,1.8-.8,2.6-7.1-4.4-14.2-8.8-21.3-13.2,0-22.5,0-44.9,0-67.4,0-1.1.5-2.3.8-3.4Z"/>
        <path class="cls-9" d="M121.5,295.3c0-2.9,0-5.7,0-8.4,0-.6.5-1.4.9-1.9,8.2-9.9,16.5-19.7,24.7-29.6.4-.5.8-1,1.4-1.8h-26.5v-10.6h41.7c0,2.9,0,5.8,0,8.6,0,.7-.7,1.5-1.3,2.2-8.3,9.9-16.6,19.8-24.8,29.7-.2.3-.5.6-.9,1.1h27.5v10.5h-42.7Z"/>
        <path class="cls-2" d="M275.1,80.1c.3,1.2.8,2.4.8,3.6,0,20.3,0,40.5,0,60.8,0,2.7-1,4.7-3.2,6.1-5.3,3.3-10.7,6.5-16.1,9.8.1-4.8.4-9.6.4-14.4,0-13.6,0-27.3,0-40.9,0-5.1-.3-10.3-.4-15.4,4.1-2.2,8.1-4.5,12.2-6.7,2-1.1,4.2-1.9,6.2-2.9Z"/>
        <path class="cls-27" d="M183.9,203.8c-1.1-.3-2.3-.3-3.2-.8-4.3-2.6-8.6-5.3-12.9-7.9.1-.8.4-1.7.4-2.5,0-21.8,0-43.5,0-65.3,0-1.9.2-3.8.4-5.8,1.6.8,3.2,1.6,4.8,2.4,2.8,1.5,5.6,3,8.4,4.5.7.4,1.4.8,2,1.2,0,24.8,0,49.5,0,74.3Z"/>
        <path class="cls-25" d="M137.7,105c-.3,1.1-.8,2.3-.8,3.4,0,22.5,0,44.9,0,67.4-5.5-3.4-11-6.8-16.4-10.2,0-22.1,0-44.2,0-66.2,0-1.1.5-2.2.8-3.2.9.3,1.9.6,2.8.8.7.6,1.4,1.2,2.2,1.6,3.8,2.2,7.7,4.2,11.5,6.4Z"/>
        <path class="cls-8" d="M121.2,96.1c-.3,1.1-.8,2.2-.8,3.2,0,22.1,0,44.2,0,66.2-4.7-2.9-9.4-5.8-14.1-8.8,0-22,0-43.9,0-65.9,0-.8.5-1.7.8-2.5,2.9,1.5,5.8,2.9,8.6,4.4,1.8,1,3.6,2.1,5.4,3.2Z"/>
        <path class="cls-1" d="M107.1,88.5c-.3.8-.8,1.7-.8,2.5,0,22,0,43.9,0,65.9-3.7-2.2-7.4-4.3-11-6.6-1.8-1.2-2.7-3-2.7-5.3,0-20.5,0-40.9,0-61.4,0-.9.3-1.8.4-2.7,4.7,2.5,9.3,5.1,14,7.6Z"/>
        <path class="cls-33" d="M200,195.4c-3.5,2.1-7,4.3-10.5,6.4,0-25.1,0-50.1,0-75.2,1.6-1.1,3.2-2.1,4.8-3.2l5.6-2.5c0,24.8,0,49.6,0,74.4Z"/>
        <path class="cls-6" d="M240.9,98.5c2.4-1.5,4.8-2.9,7.3-4.4.7-.3,1.3-.6,2-.8.3.8.8,1.6.8,2.4,0,22.7,0,45.4,0,68.1-3.2,2-6.5,3.9-9.7,5.9,0-23.1,0-46.2,0-69.2,0-.6-.3-1.2-.4-1.9Z"/>
        <path class="cls-16" d="M168.6,121.5c-.1,1.9-.4,3.8-.4,5.8,0,21.8,0,43.5,0,65.3,0,.8-.3,1.7-.4,2.5-3.2-2-6.5-4-9.7-6,.3-.9.8-1.8.8-2.6,0-22.3,0-44.7,0-67,0-.9.3-1.8.4-2.7,2,.9,4,1.9,6,2.8,1.1.7,2.2,1.3,3.2,2Z"/>
        <path class="cls-28" d="M229.3,104.6c2.1-1.1,4.3-2.1,6.4-3.2,0,24,0,47.9,0,71.9-3,1.8-5.9,3.7-8.9,5.5,0-24.2,0-48.4,0-72.6.8-.5,1.6-1.1,2.4-1.6Z"/>
        <path class="cls-19" d="M107.1,88.5c-4.7-2.5-9.3-5.1-14-7.6.8-1.1,1.3-2.6,2.4-3.3,9.6-6,19.3-11.8,28.9-17.6.1,1.9.4,3.8.4,5.7,0,9.3,0,18.5,0,27.8,0,1.1-.5,2.3-.8,3.4-.9-.3-1.9-.6-2.8-.8-1.8-1.1-3.6-2.2-5.4-3.2-2.9-1.5-5.8-3-8.6-4.4Z"/>
        <path class="cls-18" d="M200,195.4c0-24.8,0-49.6,0-74.4,1.6-1,3.2-2,4.9-3,1.1-.5,2.1-.9,3.2-1.4,0,24.6,0,49.3,0,73.9-2.7,1.6-5.3,3.3-8,4.9Z"/>
        <path class="cls-22" d="M226.9,106.2c0,24.2,0,48.4,0,72.6-2.4,1.5-4.8,3-7.2,4.5,0-24.4,0-48.7,0-73.1,2.4-1.3,4.8-2.7,7.2-4Z"/>
        <path class="cls-17" d="M208,190.5c0-24.6,0-49.3,0-73.9.4-.4.8-.7,1.3-1.1,1.3-.7,2.7-1.4,4-2,.4-.1.8-.3,1.2-.4.1.8.4,1.5.4,2.3,0,21.7,0,43.5,0,65.2,0,1.9.2,3.7.4,5.6-2.4,1.5-4.8,3-7.2,4.5Z"/>
        <path class="cls-7" d="M250.2,93.3c-.7.3-1.3.6-2,.8-.1-.8-.4-1.7-.4-2.5,0-9.8,0-19.7,0-29.5,7.9,4.8,15.9,9.6,23.7,14.5,1.4.9,2.4,2.4,3.6,3.6-2.1,1-4.2,1.8-6.2,2.9-4.1,2.2-8.1,4.5-12.2,6.7-2.1,1.2-4.3,2.4-6.4,3.6Z"/>
        <path class="cls-13" d="M250.2,93.3c2.1-1.2,4.3-2.4,6.4-3.6.1,5.1.4,10.3.4,15.4,0,13.6,0,27.3,0,40.9,0,4.8-.3,9.6-.4,14.4-1.9,1.1-3.7,2.3-5.6,3.4,0-22.7,0-45.4,0-68.1,0-.8-.5-1.6-.8-2.4Z"/>
        <path class="cls-10" d="M189.5,126.7c0,25.1,0,50.1,0,75.2-1.9.6-3.8,1.3-5.6,1.9,0-24.8,0-49.5,0-74.3,1.3-.8,2.7-1.6,4-2.4.5-.2,1.1-.3,1.6-.5Z"/>
        <path class="cls-12" d="M235.7,173.3c0-24,0-47.9,0-71.9,1.7-1,3.5-1.9,5.2-2.9.1.6.4,1.2.4,1.9,0,23.1,0,46.2,0,69.2-1.9,1.2-3.8,2.4-5.6,3.6Z"/>
        <path class="cls-15" d="M215.2,186c-.1-1.9-.4-3.7-.4-5.6,0-21.7,0-43.5,0-65.2,0-.8-.2-1.5-.4-2.3,1.7-.9,3.5-1.9,5.2-2.8,0,24.4,0,48.7,0,73.1-1.5.9-3,1.9-4.4,2.8Z"/>
        <path class="cls-29" d="M219.6,110.2c-1.7.9-3.5,1.9-5.2,2.8-.4.1-.8.3-1.2.4,0-14,0-28,0-42,0-.8-.6-1.5-.9-2.3,5.3-3.3,10.5-6.7,15.8-10,.3,1.3.7,2.6.8,3.8,0,13.1,0,26.2,0,39.3,0,.8.3,1.5.4,2.3-.8.5-1.6,1.1-2.4,1.6-2.4,1.3-4.8,2.7-7.2,4Z"/>
        <path class="cls-25" d="M165.4,119.4c-2-.9-4-1.9-6-2.8-1.7-1.1-3.5-2.1-5.2-3.2,0-12.9,0-25.7,0-38.6,0-2,.3-4.1.4-6.1,3.6,2.2,7.2,4.5,10.8,6.7.1,0,.3.2.4.3.2.1.4.2.5.3-.3.8-.9,1.5-.9,2.3,0,13.7,0,27.4,0,41.2Z"/>
        <path class="cls-3" d="M204.8,118c-1.6,1-3.2,2-4.9,3-1.9.8-3.8,1.7-5.6,2.5,0-13.7,0-27.4,0-41.2,0-.8-.3-1.5-.4-2.3,3.5-2,7-4,10.5-6,.1.8.4,1.5.4,2.3,0,13.9,0,27.7,0,41.6Z"/>
        <path class="cls-4" d="M165.4,119.4c0-13.7,0-27.4,0-41.2,0-.8.6-1.5.9-2.3,2.5,1.4,5,2.7,7.5,4.1,0,12.7,0,25.4,0,38.1,0,1.9-.3,3.8-.4,5.8-1.6-.8-3.2-1.6-4.8-2.4-1.1-.7-2.2-1.3-3.2-2Z"/>
        <path class="cls-8" d="M154.6,68.6c-.1,2-.4,4.1-.4,6.1,0,12.9,0,25.7,0,38.6-2.8-1.5-5.6-2.9-8.4-4.4.1-1.1.4-2.2.4-3.4,0-13.1,0-26.2,0-39.4,0-.9.3-1.8.4-2.7,2.7,1.7,5.4,3.4,8.1,5.1Z"/>
        <path class="cls-30" d="M173.4,123.9c.1-1.9.4-3.8.4-5.8,0-12.7,0-25.4,0-38.1,2.4.6,4.8,1.1,7.2,1.7.3.6.8,1.3.8,1.9,0,14.9,0,29.8,0,44.7-2.8-1.5-5.6-3-8.4-4.5Z"/>
        <path class="cls-1" d="M146.5,63.5c-.1.9-.4,1.8-.4,2.7,0,13.1,0,26.2,0,39.4,0,1.1-.3,2.2-.4,3.4-2.4-1.3-4.8-2.7-7.2-4,.1-1.1.4-2.2.4-3.3,0-13.3,0-26.7,0-40,0-.8.5-1.6.8-2.5,2.3,1.5,4.5,2.9,6.8,4.4Z"/>
        <path class="cls-26" d="M193.9,80.1c.1.8.4,1.5.4,2.3,0,13.7,0,27.4,0,41.2-1.6,1.1-3.2,2.1-4.8,3.2-.5.2-1.1.3-1.6.5,0-15.1,0-30.3,0-45.4,2-.5,4-1.1,6-1.6Z"/>
        <path class="cls-21" d="M187.9,81.7c0,15.1,0,30.3,0,45.4-1.3.8-2.7,1.6-4,2.4-.7-.4-1.4-.8-2-1.2,0-14.9,0-29.8,0-44.7,0-.6-.5-1.3-.8-1.9,2.3,0,4.5,0,6.8,0Z"/>
        <path class="cls-32" d="M212.3,69.2c.3.8.9,1.5.9,2.3,0,14,0,28,0,42-1.3.7-2.7,1.4-4,2-.1-.8-.4-1.5-.4-2.3,0-13.1,0-26.2,0-39.3,0-.8-.3-1.5-.4-2.3,1.3-.8,2.6-1.6,3.9-2.4Z"/>
        <path class="cls-32" d="M208.4,71.6c.1.8.4,1.5.4,2.3,0,13.1,0,26.2,0,39.3,0,.8.3,1.5.4,2.3-.4.4-.8.7-1.2,1.1-1.1.5-2.1.9-3.2,1.4,0-13.9,0-27.7,0-41.6,0-.8-.2-1.5-.4-2.3,1.3-.8,2.7-1.6,4-2.5Z"/>
        <path class="cls-4" d="M165.8,75.6c-.1,0-.3-.2-.4-.3.1,0,.3.2.4.3Z"/>
      </g>
      <g>
        <path class="cls-11" d="M132.7,79.8c1.5-6.4,2.4-12.7,4.4-18.6,4.5-13.4,12.9-24,25.8-30.4,16.7-8.3,36.2-4.9,50,8.6,10.3,10.1,15.6,22.6,17.1,36.9,0,.9.1,1.9.2,2.8,0,.1,0,.2.3.7h2.2c13.9,0,27.9,0,41.8,0,4.2,0,5.6,1.4,5.4,5.5-.9,18.8-1.8,37.6-2.8,56.4-.7,15-1.4,30.1-2.1,45.1-.7,14.4-1.2,28.8-2.3,43.1-.8,10.6-9.3,18-19.9,18-47.8,0-95.5,0-143.3,0-10.2,0-18.4-7.9-19.1-18.3-.7-10.6-1.1-21.3-1.6-31.9-.8-16.7-1.5-33.4-2.3-50.2-.6-14.3-1.3-28.6-1.9-42.9-.3-6.5-.6-13-.9-19.5-.2-3.6,1.5-5.4,5.3-5.4,13.9,0,27.9,0,41.8,0h2ZM182.2,107.3c-8.5,0-15.3,1.6-21.5,5.6-14.9,9.5-17.9,30.1-2.5,42.4,4.5,3.6,9.7,5.9,15,7.9,5.7,2.2,11.6,4.2,17.3,6.4,4.2,1.6,8,4,11.3,7.2,9,8.8,7.4,21.5-3.6,27.7-8.5,4.8-17.6,5.1-26.9,2.7-7.1-1.9-13.5-5.2-19.2-9.8-2.2-1.8-2.5-1.7-4.2.7-1,1.4-1.9,2.9-3,4.3-1,1.3-.8,2.1.5,3.1,4.6,3.5,9.3,6.8,14.7,8.9,11.7,4.5,23.6,6.2,35.9,2.7,16.6-4.8,24.1-19.6,21.4-34.3-1.5-7.8-6.7-13.1-13-17.3-7.3-4.9-15.4-7.9-23.7-10.7-5.9-2-11.7-4.3-16.4-8.5-6.7-6-7.3-15.1-1.3-21.8,5-5.6,11.6-7.5,18.8-7.3,8.9.3,17.1,2.8,24.6,7.7,1.5,1,2.6,1.1,3.5-.7.6-1.1,1.4-2.1,2-3.2,1.8-3,1.7-3.3-1.3-5.1-9.1-5.5-18.9-8.3-28.4-8.5ZM146.8,79.7h70.3c-1.1-14.1-5.8-26.2-17.5-34.5-9.7-6.9-20.3-7.9-31.1-2.6-14.6,7.1-21.7,24-21.6,37.2Z"/>
        <path class="cls-14" d="M190.5,288.5c4.3-3.2,8.8-4.5,13.9-3.3,3.6.8,6.7,2.7,9,5.7,4.6,5.8,4.5,14-.2,19.7-5.5,6.6-12.9,7.4-22.7,2.3v12.7c0,1.2,0,2.4,0,3.6,0,4,.8,3.5-3.7,3.5-.5,0-1,0-1.8-.2v-2.2c0-14.3,0-28.7,0-43,0-2.1.7-2.8,2.6-2.5.3,0,.7,0,1,0,1.5-.2,2.1.4,1.9,1.9,0,.5,0,1,0,1.8ZM190.4,300.5c0,5.7,4.5,10.3,10.3,10.4,5.7,0,10.5-4.6,10.5-10.2,0-5.7-4.7-10.4-10.3-10.4-5.7,0-10.4,4.6-10.5,10.2Z"/>
        <path class="cls-24" d="M105.4,270.6c-.2.5-.2.8-.4,1-2,3.6-2,3.6-5.6,1.8-3.5-1.8-7.3-2.9-11.2-2-1.9.5-3.8,1.5-5.2,2.8-2.9,2.7-2.7,6.7.3,9.1,2.1,1.6,4.6,2.6,7,3.7,4,1.9,8.3,3.3,12.1,5.6,4.4,2.6,6.1,6.9,5.2,12.1-.8,5.1-3.8,8.7-8.5,10.3-8.8,3.1-16.8,1.2-24.2-4.2-1-.7-1.2-1.4-.3-2.3,0,0,0-.1.1-.2,1.9-3,1.9-2.9,4.8-1.1,4.9,3.1,10.1,4.8,16,3.1,1.2-.4,2.4-.9,3.4-1.6,4-2.8,4.5-7.9.8-11-2.3-1.9-5.3-3-8-4.3-3.7-1.8-7.9-2.8-11.2-5.1-7.8-5.4-6.9-15.8,1.5-20.3,6.5-3.5,13-2.3,19.3.3,1.4.6,2.6,1.5,4,2.2Z"/>
        <path class="cls-24" d="M118.9,288.1c4-2.6,8-3.7,12.5-2.7,6.3,1.4,11.2,6.8,11.4,13.3.2,5.6,0,11.1,0,16.7,0,.3-.1.6-.2,1h-5.2c0-.8-.1-1.6-.2-2.4,0-5,0-10.1-.1-15.1-.2-4.5-3.7-8-8.1-8.3-4.8-.4-8.8,2.4-10,6.9-.2,1-.3,2-.3,3,0,4.7,0,9.4,0,14.1,0,1.5-.5,2.1-2,1.9-1.1-.1-2.2,0-3.6,0,0-.8-.1-1.5-.1-2.1,0-15.5,0-30.9,0-46.4,0-1.7.4-2.2,2.1-2.1,3.9.2,3.5-.5,3.5,3.6,0,6.1,0,12.2,0,18.7Z"/>
        <path class="cls-14" d="M249,306.8c.3.2.4.3.6.5,2.9,3.7,2.8,4.3-1.4,6.5-7.3,3.9-19.7,3.5-24.5-7-2.6-5.7-1.6-12.6,2.5-17.1,4.3-4.6,10.5-6.3,16.1-4.1,6.1,2.4,9.5,7,10.1,13.5.3,2.8-.2,3.2-2.9,3.2-7.2,0-14.3,0-21.5,0,.7,7,11.7,12.3,21,4.5ZM228.4,296.7h18c-1.6-4.2-5.4-6.7-9.7-6.5-4.1.2-7.3,2.7-8.3,6.5Z"/>
        <path class="cls-14" d="M263.9,302.3c.7,3.5,2.7,5.9,5.7,7.2,5.6,2.4,10.7,1.2,15.5-2.8.8,1.2,1.8,2.4,2.3,3.7.2.5-.5,1.7-1.1,2.1-4.4,3.2-9.4,4-14.7,3.2-6.9-1-12.1-6.2-13.2-13.4-1-6.7,2.6-13.5,8.9-16.3,9.8-4.4,21,2.7,21.2,14.2,0,1.7-1,2.1-2.5,2.1-6.8,0-13.5,0-20.3,0h-1.8ZM264.5,296.7h18c-1.8-4.6-5.7-7-10.5-6.5-3.7.4-6.9,3.2-7.5,6.5Z"/>
        <path class="cls-24" d="M179.4,300.4c0,8.6-7.1,15.5-15.8,15.5-8.8,0-16-7.2-15.9-15.7.1-8.6,7.2-15.5,15.9-15.5,8.8,0,15.8,7,15.8,15.7ZM163.6,290.2c-5.9,0-10.5,4.5-10.4,10.2,0,5.6,4.6,10.1,10.3,10.1,5.8,0,10.5-4.5,10.5-10.2,0-5.6-4.7-10.1-10.4-10.1Z"/>
      </g>
    </g>
  </g>
</svg>